<?xml version="1.0" encoding="utf-8"?>
<!-- Generator: Adobe Illustrator 16.0.0, SVG Export Plug-In . SVG Version: 6.00 Build 0)  -->
<!DOCTYPE svg PUBLIC "-//W3C//DTD SVG 1.1//EN" "http://www.w3.org/Graphics/SVG/1.1/DTD/svg11.dtd">
<svg version="1.1" id="Layer_1" xmlns="http://www.w3.org/2000/svg" xmlns:xlink="http://www.w3.org/1999/xlink" x="0px" y="0px"
	 width="191.514px" height="78.236px" viewBox="0 0 191.514 78.236" enable-background="new 0 0 191.514 78.236"
	 xml:space="preserve">
<g>
	<g>
		<path fill="#FFFFFF" d="M37.561,27.042c0.029,0.694,0.017,1.391-0.037,2.085c-0.029,0.347-0.084,0.689-0.163,1.029
			c-0.078,0.347-0.174,0.688-0.29,1.025c-0.111,0.337-0.243,0.668-0.387,0.993c-0.146,0.323-0.315,0.638-0.505,0.939l-0.613,0.974
			c-0.217,0.345-0.407,0.705-0.566,1.08c-0.317,0.749-0.481,1.553-0.481,2.363c0.006,0.789,0.166,1.566,0.476,2.291l0.03-0.009
			c-0.153-0.739-0.173-1.5-0.052-2.244c0.123-0.719,0.384-1.408,0.764-2.03c0.363-0.605,0.89-1.128,1.396-1.738
			c0.127-0.154,0.253-0.314,0.376-0.48c0.12-0.166,0.239-0.347,0.344-0.521c0.215-0.352,0.403-0.718,0.565-1.096
			c0.162-0.377,0.301-0.764,0.414-1.159c0.116-0.401,0.206-0.811,0.266-1.224c0.13-0.831,0.093-1.678-0.109-2.494
			c-0.194-0.803-0.519-1.566-0.96-2.265c-0.411-0.691-0.958-1.294-1.605-1.769l-0.011,0.009c0.349,0.674,0.622,1.384,0.813,2.117
			C37.414,25.613,37.525,26.323,37.561,27.042z"/>
		<path fill="#FFFFFF" d="M10.904,56.178c2.154,4.429-2.104,6.175-1.912,6.462C15.89,60.72,10.904,56.178,10.904,56.178z"/>
		<path fill="#FFFFFF" d="M34.86,42.017c0,0,6.958,0.346,2.863-4.367C37.724,37.65,40.399,41.734,34.86,42.017z"/>
		<path fill="#FFFFFF" d="M36.195,43.939c-4.515,0-6.563-6.29-6.563-6.29c-0.394,8.168,5.101,8.314,5.101,8.314
			c7.826-0.145,5.389-7.056,5.389-7.056S40.71,43.939,36.195,43.939z"/>
		<path fill="#FFFFFF" d="M33.383,48.136c13.692,2.465,7.919-6.588,7.919-6.588C41.772,47.816,33.383,48.136,33.383,48.136z"/>
		<path fill="#FFFFFF" d="M39.278,49.466c-3.726,0.692-7.992,0-7.992,0c2.021,0.871-0.146,0.291,5.651,1.383
			c5.797,1.09,4.611,4.894,4.611,4.894C43.474,53.365,43.006,48.784,39.278,49.466z"/>
		<path fill="#FFFFFF" d="M29.385,74.877c0,0,7.846-1.826,3.822-6.958c0,0-0.565-0.961-3.726-1.654
			c-3.156-0.688-4.927-2.963-5.305-4.242c0,0-1.159,4.048,4.514,6.117C34.369,70.214,29.385,74.877,29.385,74.877z"/>
		<path fill="#FFFFFF" d="M33.95,67.529c4.021,5.133,5.526-0.543,5.526-0.543C37.454,71.156,33.95,67.529,33.95,67.529z"/>
		<path fill="#FFFFFF" d="M28.104,75.746c0.615,1.874,3.769,1.087,3.769,1.087c3.699-1.777,3.232-4.984,3.232-4.984
			C33.285,78.088,28.104,75.746,28.104,75.746z"/>
		<path fill="#FFFFFF" d="M34.125,50.847c-5.749-0.446-5.354-2.439-5.354-2.439c-1.504,1.654,1.087,4.269,4.048,5.22
			c2.345,0.758,3.188,1.294,3.438,1.483c-0.219-0.103-0.969-0.291-3.51-0.466c-3.702-0.247-4.836-2.317-4.836-2.317
			c-2.468-4.986,1.822-4.541,1.822-4.541c-4.02-1.015-3.675-4.293-3.675-4.293c4.688,7.402,10.657,2.689,10.657,2.689
			c-2.519,0.346-8.535,0.739-8.486-10.955c0.049-11.695-7.957-12.264-7.957-12.264c5.711,2.491,5.342,7.031,5.342,7.031
			c-2.616-5.626-10.857-9.327-10.857-9.327s-0.74,2.517,3.036,5.257c3.774,2.738,3.812,7.4,2.884,9.622
			c-0.925,2.221-0.894,3.447-0.894,3.447c-0.26,5.884,6.587,7.957,6.587,7.957c-4.996,5.363-1.086,8.658-1.086,8.658
			c0.421,3.654,2.146,4.813,2.146,4.813c-3.699-0.371-4.044-4.493-4.044-4.493c-0.816,5.602,2.664,9.695,6.932,9.475
			c4.27-0.221,5.511,1.951,5.511,1.951c-0.123-3.357-2.396-4.541-2.396-4.541c3.503,0.813,2.913,5.6,2.913,5.6
			c1.604-3.032,0.987-4.836,0.987-4.836c0.813-1.649,2.368-4.193,3.231-6.859C41.431,54.052,39.873,51.293,34.125,50.847z
			 M21.07,38.117h0.007c0.533-2.045,0.798-4.151,0.787-6.267c0,0,0.595,0.801,0.199,4.983c-0.69,4.269,0.618,5.872,0.618,5.872
			S20.177,41.601,21.07,38.117z M37.085,63.113c0,0-1.251-1.803-4.439-2.494c-3.186-0.688-4.174-2.764-4.542-3.428
			c1.667,0.788,3.448,1.305,5.28,1.528C36.343,59.066,37.576,61.038,37.085,63.113z M37.945,58.794c0,0-1.874-1.556-6.512-1.728
			c-4.639-0.172-4.737-4.5-4.737-4.5s1.135,3.021,6.316,4.104C38.193,57.758,37.945,58.794,37.945,58.794z"/>
		<path fill="#FFFFFF" d="M17.891,37.435c0,0-1.212-3.229-5.007-1.216c0,0,0.303,0.16,1.056-0.074c0,0-0.32,0.752-1.776,0.345
			c0.02,0.124,0.094,0.231,0.204,0.29c0,0-0.467,0.104-0.777-0.144c0,0,0.205,1.026,1.587,1.111
			c-0.174,0.25-0.415,0.447-0.691,0.568c0.382,0,0.764-0.053,1.128-0.161c-0.066,0.212-0.215,0.391-0.412,0.494
			c0.335,0.02,0.668-0.069,0.95-0.251c0,0,0.105,0.179-0.13,0.524c0.293,0,0.578-0.084,0.827-0.241
			c0.713,0.118,1.445,0.028,2.109-0.259c0,0,0.103-0.146,0.98-0.167c0,0,0.426-0.111-0.082-0.489
			c-0.51-0.378-0.668-0.862-1.076-1.149C16.779,36.616,17.149,36.616,17.891,37.435z M16.149,37.422c0.002,0,0.006,0,0.012,0H16.149
			c0.139,0,0.247,0.11,0.247,0.249c0,0.138-0.109,0.249-0.247,0.249c-0.136,0-0.247-0.112-0.247-0.249
			C15.903,37.533,16.013,37.422,16.149,37.422z M17.387,38.019h-0.004c-0.347,0.057-0.681,0.174-0.987,0.347
			c-1.83,0.665-2.767-0.804-2.767-0.804c0.193-0.056,0.393-0.098,0.595-0.126c0.21,0.66,0.916,1.026,1.576,0.815
			c0.45-0.145,0.783-0.53,0.856-0.996C17.914,37.831,17.387,38.019,17.387,38.019z"/>
		<path fill="#FFFFFF" d="M19.689,44.39c0.852-0.189,0.271-0.56-0.308-0.524c-0.479,0.011-0.223,0.261-0.223,0.261
			C19.33,44.312,19.464,44.436,19.689,44.39z"/>
		<path fill="#FFFFFF" d="M22.758,47.77c-0.657-0.267-0.989-0.128-1.11-0.046s-0.676,0.388-1.161,0.145
			c-0.329-0.147-0.688-0.219-1.049-0.205c-1.564,0.25-0.703,0.7-0.703,0.7c1.708,1.288,3.427,0.792,4.02,0.302
			C23.24,48.144,23.41,48.042,22.758,47.77z M22.739,48.358v-0.007c-0.501,0.423-0.87,0.26-0.964,0.22
			c-0.5-0.22,0.104-0.775,0.37-0.775C22.414,47.795,23.237,47.933,22.739,48.358z"/>
		<path fill="#FFFFFF" d="M17.755,47.407c0.435,0.408,1.001,0.188,1.001,0.188c0.492-0.36,1.171-0.52,1.518-0.31
			c0.355,0.229,0.799,0.278,1.195,0.135c0.42-0.158,0.988,0,0.988,0c0.481,0.293,1.078,0.332,1.595,0.106
			c0.302-0.132,0.512-0.537-0.128-0.581c-0.393-0.027-0.753-0.216-1-0.517c-0.938-0.953-1.358-0.521-1.579-0.396
			c-0.222,0.123-0.395,0.224-0.691,0.013c-0.298-0.207-0.666-0.394-1.21,0c-0.543,0.396-0.949,0.738-1.528,0.87
			C17.334,47.046,17.755,47.407,17.755,47.407z M21.979,46.23h0.005c0.769,0.121,1.027,0.508,0.602,0.713
			c-0.424,0.203-0.924-0.324-0.924-0.324S21.212,46.109,21.979,46.23z"/>
		<path fill="#FFFFFF" d="M20.363,13.636l0.749,0.916h1.074l0.748-0.916v-1.284l-0.748-0.918h-1.074l-0.749,0.918V13.636z
			 M20.51,12.404l0.672-0.824h0.934l0.671,0.822v1.179l-0.673,0.824h-0.936l-0.669-0.819L20.51,12.404L20.51,12.404z"/>
		<path fill="#FFFFFF" d="M18.335,14.552l0.75-0.916v-1.285l-0.75-0.918h-1.072l-0.75,0.918v1.285l0.75,0.916H18.335z
			 M16.649,12.402l0.671-0.823h0.937l0.675,0.823v1.18l-0.674,0.824h-0.937l-0.673-0.824L16.649,12.402z"/>
		<path fill="#FFFFFF" d="M10.287,41.886c-0.1-1.745,0.21-3.792,1.261-6.112c0.499-0.907,0.932-1.74,1.304-2.514
			c0.02,0.007,0.038,0.007,0.058,0h0.011c0.397-0.104,0.813-0.117,1.217-0.042c0.389,0.072,0.761,0.215,1.101,0.415
			c0.349,0.201,0.675,0.432,0.977,0.695c0.144,0.146,0.298,0.276,0.449,0.418c0.148,0.141,0.29,0.299,0.442,0.436l0.026,0.024
			c0.193,0.143,0.465,0.103,0.607-0.09c0.108-0.143,0.115-0.337,0.021-0.488c-0.143-0.182-0.29-0.354-0.444-0.527
			c-0.153-0.173-0.337-0.32-0.513-0.474c-0.093-0.071-0.188-0.146-0.291-0.208c-0.092-0.071-0.188-0.138-0.29-0.197
			c-0.104-0.061-0.208-0.115-0.313-0.172c-0.104-0.059-0.221-0.098-0.331-0.146l-0.162-0.061l-0.176-0.048
			c-0.114-0.039-0.232-0.065-0.353-0.085c-0.239-0.042-0.481-0.06-0.724-0.045c-0.435,0.019-0.854,0.157-1.216,0.399
			c3.203-6.6,2.15-8.242,2.15-8.242c-1.727,6.088-5.509,9.306-5.733,9.566c1.852-2.259,3.025-5.347,3.025-5.347
			C3.693,34.889,4.797,40.96,4.797,40.96c-2.185-4.036,0.61-8.757,0.61-8.757c-0.542,0.465-0.942,1.068-1.16,1.746
			c-0.843-9.178,6.016-13.471,6.016-13.471c-4.688,4.494-4.071,11.09-4.071,11.09c0.962-1.305,2.753-1.899,2.753-1.899
			c3.405-1.001,4.404-4.147,4.404-4.147c1.962-8.067-1.371-7.827-1.371-7.827c0.539-0.5,1.705-0.517,1.705-0.517
			c-0.097,0.393-0.06,0.808,0.11,1.176c2.666,3.208,6.489,3.505,6.489,3.505c8.734,1.134,9.079,8.771,9.079,8.771
			c2.123,10.992,6.021,10.598,6.021,10.598c-3.307-1.949-0.394-7.131-0.394-7.131c4.736-9.869-1.777-14.06-1.777-14.06
			c0.346-0.173,0.665-0.501,0.928-0.775c0.612-0.619,1.028-1.407,1.195-2.262c0.073-0.481,0.056-0.975-0.055-1.45
			c-0.105-0.526-0.278-1.044-0.405-1.585c-0.079-0.343-0.139-0.688-0.176-1.036c-0.027-0.233-0.048-0.468-0.063-0.704
			c-0.009-0.089-0.066-0.412-0.084-0.648l0.181,0.683l0.208-0.88l0.638,0.639l-0.264-0.863l0.874,0.235l-0.658-0.617l0.872-0.234
			l-0.881-0.205l0.642-0.64l-0.863,0.263l0.234-0.871l-0.618,0.657L34.68,8.87l-0.206,0.881L33.838,9.11L34.1,9.974l-0.871-0.235
			l0.658,0.618l-0.873,0.232l0.876,0.208l-0.638,0.637l0.864-0.263l-0.203,0.755c-0.433,0.375-0.993,0.828-1.438,1.052
			c-0.839,0.42-1.236,0.739-1.729,1.356c0.146-0.184-0.056-0.905-0.093-1.093c-0.381-1.861-1.766-3.429-2.191-5.267l0.197-0.841
			l0.639,0.639l-0.261-0.864l0.871,0.235l-0.658-0.618l0.873-0.231l-0.878-0.206l0.638-0.639l-0.864,0.263l0.236-0.874l-0.617,0.658
			l-0.235-0.873l-0.206,0.881l-0.637-0.64l0.262,0.863l-0.871-0.234l0.656,0.617l-0.874,0.233l0.881,0.205l-0.642,0.638l0.865-0.261
			l-0.231,0.859c-0.521,0.71-1.107,1.37-1.766,1.959c-0.674,0.586-1.213,1.311-1.583,2.121c0,0-0.174-1.803-2.346-4.686
			c-1.188-1.573-1.693-2.691-1.91-3.384l0.589,0.591L20.33,3.522l0.873,0.235L20.542,3.14l0.875-0.232l-0.88-0.208l0.639-0.637
			l-0.863,0.262l0.234-0.872l-0.619,0.659L19.696,1.24l-0.204,0.88l-0.64-0.64l0.262,0.865L18.242,2.11L18.9,2.728l-0.874,0.233
			l0.88,0.207l-0.638,0.639l0.863-0.263l-0.235,0.873l0.619-0.66l0.042,0.16c-0.311,0.805-0.957,2.077-2.285,3.701
			c-2.369,2.9-1.979,4.177-1.979,4.177s-1.18-1.654-2.363-2.716c-0.604-0.544-0.985-1.266-1.212-1.843l0.538,0.54l-0.261-0.865
			l0.872,0.236L12.21,6.53l0.873-0.232l-0.879-0.206l0.64-0.639l-0.866,0.263l0.236-0.873l-0.619,0.659l-0.232-0.874l-0.207,0.881
			l-0.637-0.641l0.263,0.862L9.909,5.495l0.656,0.618L9.693,6.347l0.88,0.205L9.933,7.19l0.86-0.264L10.557,7.8l0.619-0.66
			l0.039,0.145c-0.151,0.562-0.401,1.27-0.811,1.915c-0.842,1.332-1.969,3.504-1.624,5.085c-0.01-0.044-0.13-0.121-0.16-0.145
			c-0.158-0.146-0.323-0.271-0.489-0.397c-0.369-0.282-0.755-0.54-1.161-0.77c-0.372-0.187-0.724-0.411-1.046-0.675
			c-0.282-0.25-0.516-0.545-0.692-0.876l0.012-0.044l0.637,0.639l-0.26-0.863l0.874,0.235l-0.659-0.617l0.873-0.234L5.83,10.331
			l0.638-0.639L5.604,9.954l0.235-0.87L5.22,9.741L4.988,8.868l-0.205,0.88L4.145,9.108l0.261,0.864L3.535,9.739l0.659,0.618
			L3.32,10.588l0.881,0.207l-0.64,0.638l0.863-0.263L4.19,12.043l0.619-0.657l0.231,0.869c-0.048,0.496-0.142,0.984-0.287,1.465
			c-0.189,0.564-0.453,1.099-0.604,1.673c-0.281,1.087,0,2.289,0.602,3.223c0.074,0.116,0.145,0.229,0.235,0.336
			c0.323,0.415,0.704,0.778,1.134,1.081c-6.613,7.007-2.05,14.207-2.05,14.207c-2.663,6.49,1.32,9.566,1.32,9.566
			c0.739,1.74,1.714,2.611,1.714,2.611c0.222,3.034,1.186,7.327,4.688,9.449c3.503,2.124,1.382,5.28,1.382,5.28
			c5.303-5.725,2.029-11.424,2.029-11.424c3.996,3.551,6.339,3.158,6.339,3.158c-4.819-1.197-8.541-6.996-8.541-6.996
			s-0.247,1.037,1.061,2.519c1.308,1.479,0.961,2.319,0.961,2.319s-0.025-0.616-2.394-1.627c-2.369-1.015-3.701-2.268-3.997-2.812
			c-0.296-0.543,2,0.371,2,0.371c1.578,1.549,2.86,2.222,2.86,2.222S10.541,46.382,10.287,41.886 M32.753,15.974
			c-0.23-0.168-0.364-0.439-0.358-0.726c0-0.467,0.333-0.845,0.743-0.845s0.74,0.377,0.74,0.845s-0.331,0.846-0.74,0.846
			c-0.06,0-0.12-0.009-0.179-0.026l-0.202-0.112L32.753,15.974z M34.499,11.386L34.5,11.39c-0.017,0.016-0.036,0.033-0.058,0.055
			L34.499,11.386z M34.085,17.972c-1.108,1.396-1.4-1.146-1.183-1.766c0.077,0.023,0.155,0.037,0.235,0.037
			c0.488,0,0.887-0.443,0.887-0.989c0.004-0.295-0.12-0.578-0.338-0.777c0.146-0.273,0.319-0.533,0.521-0.771
			C34.46,15.3,35.251,16.393,34.085,17.972z M33.329,13.167c0.513-0.371,0.818-0.637,0.818-0.637
			c-0.02,0.331-0.011,0.664,0.033,0.994c-0.242,0.26-0.449,0.553-0.61,0.87c-0.088-0.055-0.182-0.093-0.282-0.112L33.329,13.167z
			 M31.851,14.112c0.512-0.291,0.963-0.58,1.327-0.839l-0.038,0.992c-0.489,0-0.886,0.443-0.886,0.989
			c-0.006,0.346,0.165,0.672,0.453,0.861c-0.166,0.497-0.277,0.792-1.173,1.129C30.544,17.618,30.495,14.875,31.851,14.112z
			 M27.596,13.758h-0.465c-0.39-0.146-0.676-0.621-0.676-1.175c0-0.677,0.427-1.227,0.951-1.227c0.521,0,0.946,0.55,0.946,1.227
			c0,0.59-0.324,1.085-0.753,1.201C27.597,13.766,27.596,13.758,27.596,13.758z M30.26,16.907l-0.416-0.144l0.369-0.686
			L30.26,16.907z M28.402,9.946v0.004c0.856,1.53,2.416,3.35,0.988,6.046c-1.19,1.651-1.674-1.305-1.775-2.064
			c0.503-0.125,0.883-0.678,0.883-1.346c0.014-0.438-0.17-0.856-0.498-1.146C28.01,11.045,28.262,10.317,28.402,9.946z M27.93,8.7
			v0.003c0.06,0.381,0.188,0.746,0.382,1.079c-0.116,0.29-0.407,1.074-0.45,1.561c-0.138-0.083-0.296-0.126-0.458-0.128h-0.048
			c0-0.265,0.021-1.173-0.065-1.578C27.555,9.364,27.771,9.048,27.93,8.7z M27.166,9.766v0.002c0.048,0.488,0.063,0.979,0.044,1.471
			c-0.51,0.115-0.897,0.675-0.897,1.347c0,0.594,0.3,1.096,0.725,1.29c-1.322,3.319-2.063,1.381-2.063,1.381
			C23.732,11.998,25.837,11.103,27.166,9.766z M19.713,19.286c-1.4,0-2.537-1.136-2.537-2.536c0.192,0.477,0.507,0.867,0.892,1.155
			l0.804-0.146l-0.813-0.544l0.955,0.205l-0.542-0.813l0.804,0.555l-0.189-0.958l0.53,0.82l0.191-0.957l0.176,0.959l0.544-0.811
			L20.32,17.17l0.813-0.54l-0.556,0.803l0.958-0.189l-0.818,0.529l0.644,0.129c0.394-0.296,0.702-0.69,0.891-1.154
			C22.25,18.151,21.113,19.286,19.713,19.286z M19.251,11.977l-0.672-0.824v-1.18l0.672-0.825h0.936l0.673,0.825v1.18l-0.673,0.824
			H19.251z M24.191,15.677h-0.966l0.633-1.184L24.191,15.677z M23.143,11.371c0.32,1.16-0.29,4.086-1.852,3.652
			c-1.705-0.782-1.294-2.746-1.263-2.898h0.227l0.748-0.916V9.922l-0.748-0.918h-0.024l0.318-1.835
			C21.415,8.428,22.471,9.286,23.143,11.371z M19.713,5.605c0.183,0.487,0.421,0.955,0.707,1.388l-0.349,2.011h-0.652
			c-0.043-0.309-0.229-1.646-0.335-2.153C19.334,6.458,19.545,6.04,19.713,5.605z M16.295,11.371
			c0.694-2.16,1.806-3.005,2.688-4.349c0.104,0.561,0.26,1.668,0.303,1.978h-0.104l-0.748,0.918v1.283l0.748,0.917h0.224
			c0.036,0.154,0.446,2.119-1.261,2.899C16.594,15.458,15.973,12.531,16.295,11.371z M15.606,14.444l0.606,0.81l-0.756,0.205
			L15.606,14.444z M11.868,13.758c0,0,0,0.01,0,0.026c-0.435-0.115-0.755-0.611-0.755-1.201c0-0.677,0.427-1.227,0.95-1.227
			c0.524,0,0.947,0.55,0.947,1.227c0,0.554-0.29,1.016-0.675,1.175H11.868z M12.355,9.823c1.333,1.306,3.358,2.224,2.14,5.432
			c0,0-0.741,1.938-2.063-1.382c0.418-0.192,0.725-0.695,0.725-1.29c0-0.67-0.387-1.23-0.896-1.347
			C12.261,11.036,12.288,10.277,12.355,9.823z M11.535,8.7c0.169,0.372,0.404,0.708,0.695,0.994
			c-0.068,0.503-0.108,1.012-0.119,1.522c-0.016,0-0.033,0-0.052,0c-0.161,0.001-0.319,0.045-0.458,0.127
			c-0.043-0.485-0.336-1.268-0.451-1.56C11.344,9.451,11.473,9.084,11.535,8.7z M11.059,9.948c0.145,0.37,0.397,1.098,0.401,1.488
			c-0.325,0.291-0.507,0.71-0.496,1.146c0,0.666,0.379,1.222,0.881,1.347c-0.103,0.76-0.58,3.716-1.774,2.064
			C8.644,13.297,10.204,11.477,11.059,9.948z M9.334,16.084l0.406,0.402l-0.406,0.146V16.084z M6.71,15.961l-0.205,0.111
			c-0.058,0.017-0.115,0.024-0.176,0.026c-0.409,0-0.742-0.381-0.742-0.846c0-0.466,0.333-0.847,0.742-0.847
			c0.408,0,0.741,0.378,0.741,0.847c0.008,0.285-0.127,0.557-0.357,0.725L6.71,15.961z M7.607,14.112
			c1.356,0.764,1.307,3.503,0.32,3.133c-0.896-0.337-1.007-0.632-1.173-1.128c0.288-0.19,0.459-0.517,0.454-0.861
			c0-0.547-0.399-0.99-0.889-0.99H6.313l-0.086-1.029C6.675,13.55,7.135,13.842,7.607,14.112z M5.32,12.531
			c0,0,0.284,0.245,0.76,0.595l0.098,1.158c-0.1,0.02-0.192,0.056-0.278,0.11c-0.16-0.314-0.365-0.602-0.609-0.855
			C5.333,13.204,5.343,12.866,5.32,12.531z M5.38,17.972c-1.16-1.575-0.376-2.669-0.12-4.259c0.202,0.233,0.377,0.49,0.52,0.764
			c-0.219,0.199-0.342,0.481-0.339,0.777c0,0.547,0.399,0.989,0.889,0.989c0.081,0,0.159-0.013,0.234-0.037
			C6.783,16.825,6.489,19.368,5.38,17.972z M7.48,42.601c-0.042-0.473-0.023-0.951,0.05-1.42c0.153-0.911,0.471-1.788,0.933-2.589
			c0.443-0.785,0.99-1.509,1.624-2.151c0.032-0.027,0.078-0.022,0.104,0.007c0.021,0.025,0.023,0.063,0.004,0.089
			c-0.266,0.348-0.508,0.711-0.724,1.092c-0.223,0.373-0.421,0.761-0.595,1.158c-0.35,0.78-0.563,1.614-0.631,2.466
			c-0.029,0.41-0.003,0.825,0.078,1.229c0.084,0.396,0.203,0.783,0.356,1.16c0.289,0.756,0.724,1.462,1.192,2.247
			c0.019,0.032,0.009,0.074-0.024,0.094c-0.021,0.013-0.044,0.013-0.063,0C9.36,45.781,8.977,45.505,8.65,45.17
			c-0.338-0.342-0.612-0.737-0.813-1.176C7.634,43.557,7.513,43.084,7.48,42.601z M15.41,53.618
			c0.001,0.017-0.012,0.027-0.026,0.031c0,0,0,0-0.001,0c-0.011,0-0.021-0.005-0.026-0.014c-0.388-0.597-0.824-1.156-1.305-1.68
			c-0.113-0.124-0.239-0.232-0.358-0.346c-0.124-0.103-0.25-0.2-0.383-0.29l-0.098-0.067c-0.034-0.019-0.068-0.036-0.104-0.058
			c-0.063-0.042-0.133-0.078-0.204-0.108c-0.069-0.029-0.145-0.062-0.209-0.093l-0.268-0.11c-0.353-0.152-0.692-0.334-1.014-0.546
			c-0.162-0.098-0.311-0.21-0.464-0.316c-0.154-0.104-0.299-0.226-0.435-0.347c-0.576-0.468-1.092-1.002-1.539-1.596
			c-0.008-0.009-0.008-0.02,0-0.029c0.007-0.004,0.015-0.004,0.023,0c0.648,0.356,1.269,0.725,1.893,1.082
			c0.311,0.177,0.622,0.347,0.933,0.508c0.311,0.16,0.622,0.309,0.935,0.436L13,50.167c0.096,0.039,0.191,0.083,0.29,0.126
			c0.094,0.048,0.185,0.098,0.271,0.155l0.133,0.076l0.123,0.093c0.317,0.243,0.595,0.538,0.816,0.869
			c0.217,0.32,0.391,0.665,0.525,1.025C15.296,52.868,15.38,53.24,15.41,53.618z"/>
		<path fill="#FFFFFF" d="M20.801,18.231c0.108-0.047,0.213-0.102,0.313-0.162l-0.4,0.073L20.801,18.231z"/>
		<path fill="#FFFFFF" d="M18.673,18.253l0.194-0.126l-0.688-0.14C18.335,18.094,18.5,18.183,18.673,18.253z"/>
	</g>
	<g>
		<path fill="#FFFFFF" d="M58.164,35.031c0.089,0.219,0.176,0.431,0.263,0.646c0.087-0.226,0.178-0.441,0.271-0.658
			c0.093-0.22,0.191-0.423,0.299-0.622l3.98-7.455c0.05-0.093,0.099-0.167,0.152-0.225c0.052-0.06,0.111-0.096,0.176-0.123
			c0.067-0.022,0.139-0.036,0.219-0.042c0.081-0.009,0.177-0.011,0.289-0.011h1.89v13.454h-2.206v-8.689
			c0-0.162,0.002-0.34,0.015-0.53c0.007-0.192,0.021-0.389,0.042-0.59l-4.066,7.631c-0.094,0.175-0.213,0.309-0.362,0.405
			c-0.15,0.096-0.323,0.147-0.521,0.147h-0.345c-0.196,0-0.37-0.052-0.52-0.147c-0.151-0.097-0.271-0.231-0.362-0.405l-4.122-7.655
			c0.025,0.205,0.043,0.403,0.052,0.602c0.009,0.196,0.014,0.375,0.014,0.544v8.689h-2.206V26.544h1.889
			c0.11,0,0.21,0.002,0.291,0.009c0.081,0.006,0.15,0.023,0.216,0.046c0.067,0.026,0.128,0.063,0.183,0.122
			c0.057,0.056,0.108,0.129,0.16,0.226l4.019,7.468C57.976,34.611,58.071,34.818,58.164,35.031z"/>
		<path fill="#FFFFFF" d="M71.238,39.996h-2.512V26.544h2.512V39.996z"/>
		<path fill="#FFFFFF" d="M81.473,28.99c-0.068,0.133-0.148,0.232-0.237,0.287c-0.09,0.055-0.196,0.086-0.321,0.086
			c-0.126,0-0.263-0.05-0.418-0.144c-0.158-0.102-0.337-0.205-0.552-0.323c-0.211-0.117-0.455-0.226-0.739-0.32
			c-0.28-0.098-0.613-0.144-1.001-0.144c-0.348,0-0.648,0.04-0.906,0.126c-0.256,0.086-0.476,0.199-0.651,0.349
			c-0.176,0.148-0.31,0.328-0.395,0.535c-0.09,0.208-0.129,0.438-0.129,0.682c0,0.315,0.087,0.581,0.263,0.791
			c0.177,0.212,0.411,0.392,0.703,0.541c0.291,0.146,0.624,0.282,0.996,0.398c0.37,0.119,0.75,0.245,1.138,0.38
			c0.388,0.132,0.769,0.287,1.141,0.462c0.37,0.177,0.703,0.4,0.993,0.668c0.293,0.273,0.525,0.605,0.703,0.995
			c0.181,0.393,0.267,0.865,0.267,1.421c0,0.61-0.106,1.18-0.313,1.709c-0.209,0.532-0.512,0.991-0.912,1.386
			c-0.4,0.396-0.887,0.706-1.466,0.932c-0.574,0.229-1.236,0.338-1.979,0.338c-0.427,0-0.85-0.039-1.265-0.124
			c-0.417-0.083-0.814-0.201-1.197-0.358c-0.38-0.154-0.735-0.341-1.069-0.557c-0.33-0.219-0.627-0.459-0.889-0.727l0.725-1.201
			c0.067-0.087,0.151-0.159,0.246-0.221c0.099-0.057,0.202-0.087,0.322-0.087c0.156,0,0.32,0.064,0.504,0.191
			c0.179,0.129,0.391,0.268,0.637,0.423c0.244,0.155,0.533,0.293,0.864,0.423c0.33,0.127,0.729,0.194,1.194,0.194
			c0.715,0,1.268-0.171,1.658-0.508c0.391-0.342,0.585-0.822,0.585-1.457c0-0.354-0.09-0.641-0.266-0.868
			c-0.178-0.225-0.413-0.41-0.702-0.56c-0.293-0.153-0.623-0.282-0.996-0.39c-0.372-0.104-0.75-0.22-1.137-0.344
			c-0.386-0.123-0.765-0.274-1.137-0.444c-0.372-0.175-0.704-0.4-0.995-0.682c-0.292-0.282-0.525-0.625-0.702-1.045
			c-0.177-0.418-0.266-0.938-0.266-1.55c0-0.488,0.1-0.963,0.292-1.432c0.195-0.467,0.479-0.878,0.854-1.238
			s0.837-0.647,1.379-0.867c0.549-0.217,1.171-0.327,1.871-0.327c0.794,0,1.527,0.125,2.196,0.373
			c0.668,0.25,1.239,0.598,1.713,1.043L81.473,28.99z"/>
		<path fill="#FFFFFF" d="M91.456,28.99c-0.069,0.133-0.148,0.232-0.235,0.287c-0.092,0.055-0.199,0.086-0.323,0.086
			s-0.261-0.05-0.42-0.144c-0.154-0.102-0.339-0.205-0.548-0.323c-0.212-0.117-0.458-0.226-0.741-0.32
			c-0.283-0.098-0.612-0.144-1.001-0.144c-0.348,0-0.648,0.04-0.908,0.126c-0.258,0.086-0.473,0.199-0.65,0.349
			c-0.177,0.148-0.311,0.328-0.396,0.535c-0.084,0.208-0.129,0.438-0.129,0.682c0,0.315,0.087,0.581,0.264,0.791
			c0.181,0.212,0.412,0.392,0.704,0.541c0.291,0.146,0.622,0.282,0.994,0.398c0.373,0.119,0.754,0.245,1.142,0.38
			c0.385,0.132,0.765,0.287,1.138,0.462c0.371,0.177,0.703,0.4,0.993,0.668c0.293,0.273,0.525,0.605,0.704,0.995
			c0.179,0.393,0.265,0.865,0.265,1.421c0,0.61-0.102,1.18-0.311,1.709c-0.208,0.532-0.51,0.991-0.91,1.386
			c-0.402,0.396-0.891,0.706-1.466,0.932c-0.577,0.229-1.236,0.338-1.98,0.338c-0.428,0-0.85-0.039-1.266-0.124
			c-0.415-0.083-0.813-0.201-1.193-0.358c-0.383-0.154-0.74-0.341-1.072-0.557c-0.33-0.219-0.627-0.459-0.888-0.727l0.727-1.201
			c0.068-0.087,0.15-0.159,0.244-0.221c0.098-0.057,0.204-0.087,0.323-0.087c0.156,0,0.321,0.064,0.502,0.191
			c0.181,0.128,0.394,0.268,0.638,0.423c0.245,0.155,0.534,0.293,0.865,0.423c0.33,0.127,0.732,0.194,1.197,0.194
			c0.713,0,1.264-0.171,1.654-0.508c0.393-0.342,0.586-0.822,0.586-1.457c0-0.354-0.087-0.641-0.267-0.868
			c-0.177-0.225-0.41-0.41-0.702-0.56c-0.292-0.153-0.621-0.282-0.996-0.39c-0.37-0.104-0.748-0.22-1.135-0.344
			c-0.387-0.123-0.764-0.274-1.137-0.444c-0.372-0.175-0.705-0.4-0.995-0.682c-0.293-0.282-0.526-0.625-0.704-1.045
			c-0.176-0.418-0.263-0.938-0.263-1.55c0-0.488,0.097-0.963,0.293-1.432c0.196-0.467,0.479-0.878,0.854-1.238
			c0.374-0.36,0.834-0.647,1.385-0.867c0.544-0.217,1.167-0.327,1.87-0.327c0.792,0,1.524,0.125,2.192,0.373
			c0.671,0.25,1.242,0.598,1.714,1.043L91.456,28.99z"/>
		<path fill="#FFFFFF" d="M99.407,26.557c0.076,0.011,0.142,0.026,0.2,0.057c0.061,0.026,0.117,0.068,0.173,0.117
			c0.057,0.055,0.117,0.125,0.187,0.212l7.062,8.998c-0.022-0.22-0.04-0.43-0.05-0.638c-0.008-0.21-0.015-0.402-0.015-0.583v-8.176
			h2.204v13.452h-1.293c-0.198,0-0.361-0.03-0.491-0.093c-0.131-0.063-0.259-0.174-0.384-0.335l-7.031-8.962
			c0.018,0.199,0.032,0.397,0.041,0.592c0.009,0.195,0.014,0.373,0.014,0.535v8.262H97.82V26.544h1.313
			C99.243,26.542,99.335,26.544,99.407,26.557z"/>
		<path fill="#FFFFFF" d="M120.371,26.542v1.986h-5.964v3.736h4.695v1.925h-4.695v3.804h5.964v2.002h-8.484V26.542H120.371z"/>
		<path fill="#FFFFFF" d="M125.126,35.262v4.735h-2.502V26.543h4.379c0.898,0,1.678,0.104,2.335,0.316
			c0.659,0.213,1.202,0.504,1.63,0.883c0.427,0.38,0.745,0.83,0.948,1.359c0.204,0.528,0.307,1.104,0.307,1.725
			c0,0.653-0.109,1.25-0.324,1.791c-0.22,0.544-0.546,1.011-0.979,1.401c-0.436,0.391-0.977,0.697-1.626,0.913
			c-0.651,0.216-1.415,0.326-2.294,0.326h-1.874V35.262z M125.126,33.304h1.877c0.462,0,0.862-0.059,1.202-0.17
			c0.343-0.116,0.622-0.281,0.846-0.494c0.225-0.214,0.392-0.475,0.503-0.781c0.109-0.306,0.167-0.649,0.167-1.028
			c0-0.355-0.058-0.683-0.167-0.978c-0.111-0.291-0.278-0.541-0.503-0.745c-0.224-0.204-0.505-0.359-0.846-0.47
			c-0.341-0.107-0.74-0.161-1.202-0.161h-1.877V33.304L125.126,33.304z"/>
		<path fill="#FFFFFF" d="M144.552,39.996h-1.935c-0.217,0-0.396-0.055-0.534-0.161c-0.14-0.106-0.241-0.245-0.304-0.406
			l-1.004-2.744h-5.573l-1.004,2.744c-0.05,0.146-0.146,0.273-0.293,0.391c-0.147,0.119-0.325,0.178-0.536,0.178h-1.944
			l5.285-13.451h2.559L144.552,39.996z M135.844,34.914h4.289l-1.637-4.476c-0.076-0.195-0.156-0.431-0.248-0.702
			c-0.087-0.271-0.18-0.561-0.265-0.879c-0.088,0.318-0.174,0.61-0.256,0.882c-0.084,0.274-0.166,0.514-0.248,0.718L135.844,34.914z
			"/>
		<path fill="#FFFFFF" d="M148.442,37.928h5.386v2.063h-7.892V26.542h2.506V37.928L148.442,37.928z"/>
	</g>
	<g>
		<path fill="#FFFFFF" d="M70.051,43.705c0.06,0.011,0.112,0.021,0.157,0.047c0.047,0.021,0.091,0.053,0.135,0.093
			c0.044,0.044,0.093,0.097,0.146,0.166l5.552,7.075c-0.021-0.172-0.032-0.338-0.038-0.502c-0.007-0.163-0.012-0.316-0.012-0.459
			v-6.428h1.733v10.578h-1.015c-0.157,0-0.286-0.023-0.39-0.074c-0.102-0.051-0.202-0.139-0.301-0.266l-5.529-7.046
			c0.016,0.159,0.025,0.313,0.033,0.467c0.006,0.152,0.011,0.295,0.011,0.422v6.497H68.8v-10.58h1.03
			C69.919,43.696,69.99,43.7,70.051,43.705z"/>
		<path fill="#FFFFFF" d="M90.007,48.985c0,0.775-0.129,1.492-0.387,2.151c-0.261,0.662-0.621,1.235-1.091,1.718
			c-0.471,0.482-1.032,0.859-1.69,1.131c-0.657,0.271-1.387,0.404-2.187,0.404c-0.801,0-1.53-0.134-2.19-0.404
			c-0.663-0.271-1.229-0.646-1.696-1.131c-0.471-0.483-0.837-1.056-1.095-1.718c-0.258-0.659-0.387-1.376-0.387-2.151
			s0.129-1.493,0.387-2.155c0.258-0.659,0.624-1.232,1.095-1.714c0.47-0.483,1.036-0.859,1.696-1.132
			c0.66-0.271,1.39-0.405,2.19-0.405c0.8,0,1.529,0.138,2.187,0.41c0.658,0.272,1.224,0.648,1.69,1.13
			c0.468,0.48,0.83,1.052,1.091,1.713C89.878,47.491,90.007,48.207,90.007,48.985z M87.988,48.985c0-0.582-0.077-1.102-0.231-1.563
			c-0.153-0.46-0.374-0.852-0.662-1.176c-0.286-0.32-0.639-0.565-1.049-0.738c-0.412-0.17-0.876-0.254-1.394-0.254
			c-0.517,0-0.981,0.084-1.397,0.254c-0.414,0.173-0.769,0.418-1.058,0.738c-0.288,0.324-0.514,0.716-0.668,1.176
			c-0.155,0.461-0.233,0.98-0.233,1.563c0,0.578,0.078,1.103,0.233,1.563c0.155,0.46,0.38,0.85,0.668,1.171
			c0.289,0.317,0.643,0.563,1.058,0.733c0.416,0.17,0.882,0.257,1.397,0.257c0.517,0,0.98-0.087,1.394-0.257
			c0.412-0.171,0.763-0.416,1.049-0.733c0.288-0.321,0.509-0.711,0.662-1.171C87.911,50.086,87.988,49.563,87.988,48.985z"/>
		<path fill="#FFFFFF" d="M93.591,50.142v4.132h-1.967V43.697h3.226c0.722,0,1.339,0.073,1.855,0.224
			c0.516,0.147,0.938,0.356,1.266,0.626c0.329,0.271,0.568,0.588,0.725,0.963c0.154,0.374,0.232,0.784,0.232,1.231
			c0,0.354-0.053,0.69-0.156,1.008c-0.104,0.315-0.255,0.604-0.455,0.864c-0.196,0.259-0.44,0.482-0.729,0.68
			c-0.289,0.196-0.62,0.353-0.99,0.471c0.249,0.142,0.462,0.343,0.643,0.605l2.648,3.908h-1.77c-0.173,0-0.316-0.036-0.437-0.105
			c-0.12-0.066-0.221-0.162-0.305-0.29l-2.226-3.389c-0.082-0.127-0.175-0.218-0.271-0.271c-0.102-0.055-0.248-0.079-0.444-0.079
			L93.591,50.142L93.591,50.142z M93.591,48.729h1.229c0.371,0,0.693-0.046,0.972-0.14c0.276-0.092,0.502-0.222,0.682-0.385
			c0.178-0.161,0.312-0.355,0.396-0.583C96.957,47.396,97,47.15,97,46.881c0-0.535-0.177-0.944-0.529-1.235
			c-0.354-0.286-0.895-0.432-1.622-0.432h-1.259V48.729L93.591,48.729z"/>
		<path fill="#FFFFFF" d="M108.187,43.696v1.616h-3.183v8.96h-1.969v-8.96h-3.196v-1.616H108.187L108.187,43.696z"/>
		<path fill="#FFFFFF" d="M118.363,54.272h-1.982v-4.621h-4.959v4.621h-1.983V43.696h1.983v4.551h4.959v-4.551h1.98v10.576H118.363z
			"/>
		<path fill="#FFFFFF" d="M132.621,54.272h-1.522c-0.171,0-0.312-0.043-0.421-0.127c-0.109-0.087-0.188-0.191-0.236-0.318
			l-0.789-2.158h-4.384l-0.79,2.158c-0.041,0.111-0.117,0.218-0.229,0.311c-0.112,0.092-0.254,0.138-0.42,0.138h-1.528l4.157-10.577
			h2.012L132.621,54.272z M125.772,50.279h3.373l-1.289-3.521c-0.059-0.156-0.123-0.339-0.192-0.553
			c-0.069-0.213-0.14-0.442-0.209-0.689c-0.066,0.249-0.136,0.479-0.2,0.691c-0.065,0.218-0.13,0.403-0.192,0.563L125.772,50.279z"
			/>
		<path fill="#FFFFFF" d="M139.252,50.369c0.071,0.171,0.138,0.34,0.209,0.51c0.065-0.177,0.138-0.349,0.213-0.52
			c0.072-0.17,0.149-0.333,0.229-0.488l3.134-5.858c0.039-0.074,0.077-0.132,0.12-0.177c0.041-0.044,0.089-0.077,0.14-0.095
			c0.053-0.021,0.106-0.031,0.173-0.036c0.063-0.008,0.138-0.008,0.228-0.008h1.484v10.575h-1.731V47.44
			c0-0.128,0.002-0.264,0.013-0.418c0.007-0.15,0.018-0.302,0.03-0.46l-3.197,6c-0.072,0.137-0.168,0.242-0.284,0.316
			c-0.118,0.075-0.253,0.114-0.411,0.114h-0.27c-0.155,0-0.293-0.039-0.41-0.114c-0.117-0.074-0.213-0.182-0.284-0.316l-3.241-6.021
			c0.021,0.163,0.034,0.321,0.04,0.477c0.009,0.151,0.013,0.295,0.013,0.428v6.833h-1.732v-10.58h1.482
			c0.091,0,0.169,0.003,0.229,0.011c0.063,0.002,0.12,0.015,0.173,0.035c0.051,0.018,0.098,0.049,0.144,0.095
			c0.043,0.043,0.086,0.103,0.125,0.175l3.159,5.875C139.104,50.039,139.18,50.202,139.252,50.369z"/>
		<path fill="#FFFFFF" d="M153.99,43.696v1.563h-4.688v2.935h3.695v1.514h-3.695v2.994h4.688v1.57h-6.674V43.696H153.99
			L153.99,43.696z"/>
		<path fill="#FFFFFF" d="M157.726,50.142v4.132h-1.97V43.697h3.227c0.724,0,1.345,0.073,1.856,0.224
			c0.515,0.147,0.938,0.356,1.267,0.626c0.329,0.271,0.569,0.588,0.726,0.963c0.151,0.374,0.229,0.784,0.229,1.231
			c0,0.354-0.053,0.69-0.157,1.008c-0.104,0.315-0.256,0.604-0.452,0.864c-0.197,0.259-0.44,0.482-0.731,0.68
			c-0.288,0.195-0.621,0.353-0.992,0.471c0.25,0.142,0.466,0.343,0.646,0.605l2.646,3.908h-1.771c-0.17,0-0.315-0.036-0.437-0.105
			c-0.119-0.066-0.221-0.162-0.305-0.29l-2.225-3.389c-0.082-0.127-0.175-0.218-0.273-0.271c-0.1-0.055-0.248-0.079-0.443-0.079
			L157.726,50.142L157.726,50.142z M157.726,48.729h1.229c0.371,0,0.692-0.046,0.969-0.14c0.277-0.092,0.503-0.222,0.682-0.385
			c0.181-0.161,0.313-0.355,0.399-0.583c0.085-0.226,0.131-0.472,0.131-0.74c0-0.535-0.179-0.944-0.532-1.235
			c-0.352-0.286-0.894-0.432-1.619-0.432h-1.258L157.726,48.729L157.726,48.729z"/>
		<path fill="#FFFFFF" d="M167.492,54.272h-1.978V43.696h1.975L167.492,54.272L167.492,54.272z"/>
		<path fill="#FFFFFF" d="M177.142,51.781c0.106,0,0.199,0.041,0.277,0.122l0.775,0.845c-0.431,0.529-0.955,0.938-1.582,1.222
			c-0.631,0.283-1.383,0.425-2.261,0.425c-0.784,0-1.489-0.135-2.116-0.402c-0.629-0.27-1.162-0.644-1.605-1.12
			c-0.444-0.478-0.785-1.048-1.021-1.71c-0.235-0.665-0.354-1.391-0.354-2.175c0-0.793,0.133-1.521,0.394-2.186
			c0.267-0.66,0.636-1.229,1.112-1.708c0.479-0.479,1.05-0.851,1.715-1.116c0.667-0.267,1.402-0.396,2.207-0.396
			c0.785,0,1.472,0.125,2.061,0.376c0.59,0.253,1.092,0.587,1.511,0.999l-0.657,0.915c-0.039,0.06-0.088,0.107-0.15,0.151
			c-0.062,0.042-0.146,0.066-0.252,0.066c-0.11,0-0.229-0.043-0.345-0.133c-0.116-0.087-0.267-0.183-0.444-0.282
			c-0.182-0.104-0.407-0.196-0.686-0.285c-0.275-0.087-0.625-0.129-1.049-0.129c-0.498,0-0.954,0.083-1.372,0.259
			c-0.417,0.176-0.774,0.422-1.076,0.741c-0.299,0.32-0.534,0.714-0.701,1.175s-0.252,0.979-0.252,1.557
			c0,0.595,0.084,1.122,0.252,1.587c0.169,0.465,0.396,0.854,0.684,1.169c0.291,0.315,0.629,0.563,1.02,0.729
			s0.812,0.251,1.258,0.251c0.271,0,0.513-0.014,0.728-0.042c0.219-0.028,0.42-0.077,0.602-0.14
			c0.185-0.065,0.355-0.145,0.521-0.244c0.164-0.103,0.323-0.225,0.487-0.37c0.048-0.045,0.099-0.079,0.15-0.106
			C177.02,51.792,177.078,51.781,177.142,51.781z"/>
		<path fill="#FFFFFF" d="M188.978,54.272h-1.521c-0.17,0-0.312-0.043-0.42-0.127c-0.109-0.087-0.188-0.191-0.237-0.318
			l-0.789-2.158h-4.382l-0.789,2.158c-0.041,0.111-0.117,0.218-0.23,0.311c-0.114,0.092-0.255,0.138-0.422,0.138h-1.529
			l4.157-10.577h2.014L188.978,54.272z M182.129,50.279h3.373l-1.289-3.521c-0.06-0.156-0.123-0.339-0.193-0.553
			c-0.069-0.213-0.14-0.442-0.209-0.689c-0.067,0.249-0.133,0.479-0.199,0.691c-0.064,0.218-0.131,0.403-0.191,0.563L182.129,50.279
			z"/>
	</g>
</g>
</svg>
