<?xml version="1.0" encoding="utf-8"?>
<!-- Generator: Adobe Illustrator 16.0.0, SVG Export Plug-In . SVG Version: 6.00 Build 0)  -->
<!DOCTYPE svg PUBLIC "-//W3C//DTD SVG 1.1//EN" "http://www.w3.org/Graphics/SVG/1.1/DTD/svg11.dtd">
<svg version="1.1" id="Layer_1" xmlns="http://www.w3.org/2000/svg" xmlns:xlink="http://www.w3.org/1999/xlink" x="0px" y="0px"
	 width="140.33px" height="140.303px" viewBox="0 0 140.33 140.303" enable-background="new 0 0 140.33 140.303"
	 xml:space="preserve">
<g>
	<g>
		<path fill="#FFFFFF" d="M99.054,44.714c0.048,1.133,0.025,2.267-0.062,3.397c-0.049,0.565-0.137,1.125-0.266,1.678
			c-0.129,0.563-0.283,1.121-0.473,1.67c-0.182,0.55-0.396,1.089-0.63,1.617c-0.24,0.527-0.515,1.039-0.821,1.532l-0.999,1.585
			c-0.354,0.562-0.665,1.148-0.925,1.759c-0.518,1.22-0.784,2.529-0.784,3.851c0.009,1.284,0.271,2.552,0.772,3.731l0.051-0.015
			c-0.251-1.203-0.28-2.444-0.084-3.655c0.201-1.172,0.626-2.294,1.245-3.308c0.591-0.988,1.446-1.838,2.272-2.833
			c0.207-0.251,0.412-0.512,0.612-0.782c0.196-0.271,0.39-0.564,0.56-0.849c0.351-0.572,0.658-1.168,0.922-1.784
			c0.264-0.614,0.49-1.245,0.674-1.89c0.191-0.654,0.336-1.319,0.433-1.993c0.213-1.354,0.151-2.732-0.178-4.062
			c-0.318-1.308-0.845-2.553-1.563-3.69c-0.672-1.126-1.561-2.107-2.617-2.881l-0.017,0.015c0.567,1.098,1.013,2.254,1.324,3.448
			C98.811,42.386,98.994,43.544,99.054,44.714z"/>
		<path fill="#FFFFFF" d="M55.629,92.177c3.51,7.214-3.428,10.06-3.116,10.526C63.75,99.575,55.629,92.177,55.629,92.177z"/>
		<path fill="#FFFFFF" d="M94.652,69.11c0,0,11.336,0.563,4.664-7.115C99.318,61.994,103.677,68.648,94.652,69.11z"/>
		<path fill="#FFFFFF" d="M96.828,72.24c-7.354,0-10.693-10.247-10.693-10.247c-0.641,13.306,8.309,13.544,8.309,13.544
			c12.748-0.234,8.775-11.493,8.775-11.493S104.182,72.24,96.828,72.24z"/>
		<path fill="#FFFFFF" d="M92.246,79.076c22.306,4.015,12.9-10.732,12.9-10.732C105.912,78.555,92.246,79.076,92.246,79.076z"/>
		<path fill="#FFFFFF" d="M101.85,81.244c-6.068,1.128-13.021,0-13.021,0c3.294,1.418-0.237,0.474,9.208,2.251
			c9.443,1.777,7.511,7.973,7.511,7.973C108.686,87.595,107.922,80.134,101.85,81.244z"/>
		<path fill="#FFFFFF" d="M85.734,122.638c0,0,12.78-2.974,6.228-11.333c0,0-0.922-1.567-6.067-2.695
			c-5.144-1.122-8.027-4.826-8.643-6.911c0,0-1.889,6.594,7.354,9.966C93.852,115.042,85.734,122.638,85.734,122.638z"/>
		<path fill="#FFFFFF" d="M93.168,110.668c6.551,8.36,9.005-0.886,9.005-0.886C98.877,116.575,93.168,110.668,93.168,110.668z"/>
		<path fill="#FFFFFF" d="M83.646,124.055c1.002,3.052,6.139,1.769,6.139,1.769c6.027-2.896,5.267-8.12,5.267-8.12
			C92.086,127.869,83.646,124.055,83.646,124.055z"/>
		<path fill="#FFFFFF" d="M93.453,83.492c-9.364-0.727-8.719-3.973-8.719-3.973c-2.451,2.693,1.77,6.952,6.594,8.5
			c3.818,1.235,5.193,2.108,5.6,2.42c-0.355-0.168-1.578-0.475-5.718-0.76c-6.03-0.403-7.877-3.776-7.877-3.776
			c-4.019-8.121,2.97-7.396,2.97-7.396c-6.549-1.653-5.986-6.993-5.986-6.993c7.638,12.058,17.361,4.381,17.361,4.381
			C93.576,76.459,83.773,77.1,83.854,58.05c0.08-19.052-12.961-19.979-12.961-19.979c9.303,4.06,8.702,11.455,8.702,11.455
			c-4.263-9.166-17.688-15.195-17.688-15.195s-1.205,4.101,4.945,8.563c6.149,4.463,6.209,12.057,4.698,15.675
			c-1.507,3.618-1.456,5.617-1.456,5.617c-0.422,9.584,10.73,12.961,10.73,12.961c-8.139,8.738-1.77,14.106-1.77,14.106
			c0.686,5.951,3.497,7.84,3.497,7.84c-6.026-0.604-6.588-7.318-6.588-7.318c-1.329,9.123,4.339,15.794,11.292,15.434
			s8.975,3.179,8.975,3.179c-0.199-5.47-3.9-7.398-3.9-7.398c5.707,1.324,4.746,9.123,4.746,9.123
			c2.611-4.941,1.607-7.879,1.607-7.879c1.323-2.688,3.858-6.832,5.266-11.175C105.357,88.715,102.816,84.22,93.453,83.492z
			 M72.189,62.757h0.01c0.869-3.332,1.301-6.764,1.283-10.209c0,0,0.967,1.305,0.323,8.117c-1.125,6.955,1.007,9.566,1.007,9.566
			S70.732,68.431,72.189,62.757z M98.277,103.475c0,0-2.039-2.938-7.232-4.063c-5.189-1.123-6.799-4.503-7.398-5.585
			c2.715,1.284,5.616,2.125,8.602,2.49C97.068,96.881,99.076,100.096,98.277,103.475z M99.679,96.44c0,0-3.053-2.532-10.608-2.813
			c-7.557-0.28-7.717-7.332-7.717-7.332s1.848,4.919,10.289,6.687C100.082,94.751,99.679,96.44,99.679,96.44z"/>
		<path fill="#FFFFFF" d="M67.01,61.645c0,0-1.975-5.258-8.156-1.98c0,0,0.493,0.26,1.721-0.121c0,0-0.522,1.226-2.896,0.562
			c0.032,0.202,0.153,0.377,0.332,0.473c0,0-0.76,0.167-1.267-0.234c0,0,0.334,1.673,2.585,1.813
			c-0.283,0.407-0.675,0.729-1.126,0.925c0.621,0,1.242-0.087,1.838-0.263c-0.109,0.346-0.35,0.636-0.672,0.805
			c0.546,0.03,1.089-0.112,1.549-0.41c0,0,0.171,0.291-0.212,0.854c0.478,0,0.942-0.137,1.347-0.393
			c1.161,0.191,2.354,0.046,3.436-0.422c0,0,0.168-0.236,1.599-0.272c0,0,0.694-0.181-0.134-0.797
			c-0.83-0.616-1.088-1.403-1.752-1.871C65.199,60.312,65.803,60.312,67.01,61.645z M64.174,61.624c0.004,0,0.01,0,0.018,0H64.174
			c0.225,0,0.402,0.181,0.402,0.404s-0.18,0.405-0.402,0.405s-0.402-0.183-0.402-0.405C63.771,61.805,63.951,61.624,64.174,61.624z
			 M66.189,62.596h-0.006c-0.564,0.093-1.109,0.283-1.607,0.564c-2.981,1.083-4.508-1.309-4.508-1.309
			c0.315-0.092,0.641-0.16,0.97-0.206c0.342,1.075,1.491,1.671,2.567,1.328c0.733-0.234,1.275-0.863,1.396-1.623
			C67.046,62.29,66.189,62.596,66.189,62.596z"/>
		<path fill="#FFFFFF" d="M69.939,72.975c1.387-0.309,0.439-0.911-0.502-0.854c-0.779,0.016-0.363,0.423-0.363,0.423
			C69.354,72.848,69.572,73.049,69.939,72.975z"/>
		<path fill="#FFFFFF" d="M74.938,78.481c-1.07-0.434-1.611-0.208-1.808-0.076c-0.196,0.134-1.101,0.633-1.892,0.237
			c-0.535-0.243-1.121-0.357-1.709-0.336c-2.551,0.408-1.146,1.142-1.146,1.142c2.782,2.099,5.581,1.289,6.547,0.492
			C75.725,79.09,75.999,78.925,74.938,78.481z M74.908,79.438v-0.012c-0.816,0.689-1.418,0.425-1.57,0.358
			c-0.814-0.358,0.168-1.264,0.604-1.264C74.377,78.522,75.72,78.745,74.908,79.438z"/>
		<path fill="#FFFFFF" d="M66.787,77.891c0.709,0.664,1.631,0.303,1.631,0.303c0.802-0.586,1.908-0.845,2.472-0.502
			c0.579,0.372,1.302,0.454,1.946,0.218c0.686-0.259,1.609,0,1.609,0c0.785,0.477,1.756,0.54,2.598,0.175
			c0.492-0.215,0.834-0.876-0.209-0.946c-0.639-0.047-1.227-0.353-1.629-0.842c-1.525-1.553-2.213-0.848-2.572-0.646
			c-0.361,0.202-0.643,0.363-1.126,0.021c-0.485-0.339-1.084-0.641-1.972,0c-0.885,0.646-1.547,1.203-2.491,1.418
			C66.102,77.301,66.787,77.891,66.787,77.891z M73.669,75.971h0.009c1.251,0.197,1.674,0.828,0.979,1.162
			c-0.69,0.331-1.506-0.528-1.506-0.528S72.42,75.775,73.669,75.971z"/>
		<path fill="#FFFFFF" d="M71.038,22.875l1.22,1.492h1.75l1.219-1.492v-2.092l-1.219-1.495h-1.75l-1.22,1.495V22.875z
			 M71.275,20.869l1.096-1.343h1.521l1.092,1.34v1.921L73.89,24.13h-1.524l-1.09-1.336V20.869z"/>
		<path fill="#FFFFFF" d="M67.732,24.368l1.222-1.492v-2.093l-1.222-1.495h-1.746l-1.222,1.495v2.093l1.222,1.492H67.732z
			 M64.988,20.865l1.093-1.341h1.524l1.101,1.341v1.922l-1.099,1.342h-1.524l-1.097-1.342L64.988,20.865z"/>
		<path fill="#FFFFFF" d="M54.621,68.897c-0.16-2.844,0.343-6.179,2.054-9.957c0.813-1.479,1.519-2.835,2.125-4.096
			c0.03,0.012,0.062,0.012,0.093,0h0.018c0.648-0.168,1.326-0.19,1.982-0.068c0.633,0.119,1.239,0.351,1.793,0.675
			c0.566,0.327,1.098,0.704,1.59,1.134c0.234,0.235,0.486,0.45,0.731,0.682c0.243,0.229,0.472,0.485,0.722,0.708l0.043,0.04
			c0.314,0.231,0.758,0.167,0.99-0.146c0.176-0.232,0.188-0.55,0.032-0.797c-0.233-0.295-0.472-0.576-0.724-0.858
			c-0.25-0.282-0.549-0.521-0.836-0.771c-0.151-0.116-0.307-0.236-0.474-0.34c-0.149-0.116-0.308-0.224-0.473-0.32
			c-0.171-0.098-0.339-0.188-0.509-0.28c-0.17-0.094-0.359-0.157-0.539-0.236l-0.264-0.1l-0.285-0.078
			c-0.187-0.063-0.379-0.105-0.574-0.139c-0.389-0.069-0.784-0.096-1.18-0.074c-0.707,0.03-1.391,0.258-1.979,0.652
			C64.176,43.775,62.462,41.1,62.462,41.1c-2.813,9.918-8.974,15.157-9.339,15.584c3.015-3.68,4.928-8.71,4.928-8.71
			C43.883,57.496,45.68,67.387,45.68,67.387c-3.558-6.573,0.995-14.264,0.995-14.264c-0.883,0.756-1.536,1.74-1.891,2.845
			c-1.372-14.951,9.799-21.944,9.799-21.944c-7.637,7.32-6.631,18.065-6.631,18.065c1.567-2.125,4.485-3.095,4.485-3.095
			c5.547-1.631,7.174-6.756,7.174-6.756c3.195-13.143-2.233-12.75-2.233-12.75c0.879-0.813,2.778-0.843,2.778-0.843
			c-0.158,0.64-0.098,1.316,0.179,1.916c4.342,5.226,10.571,5.709,10.571,5.709c14.229,1.848,14.791,14.288,14.791,14.288
			c3.457,17.907,9.805,17.264,9.805,17.264c-5.387-3.175-0.639-11.616-0.639-11.616c7.715-16.076-2.897-22.902-2.897-22.902
			c0.563-0.282,1.084-0.816,1.511-1.264c0.998-1.009,1.676-2.292,1.947-3.685c0.122-0.784,0.092-1.587-0.087-2.362
			c-0.174-0.856-0.455-1.701-0.662-2.583c-0.128-0.558-0.224-1.118-0.284-1.688c-0.046-0.38-0.078-0.763-0.105-1.146
			c-0.014-0.145-0.107-0.67-0.137-1.056l0.295,1.111l0.338-1.434l1.037,1.04l-0.428-1.405l1.424,0.383l-1.072-1.006l1.422-0.381
			l-1.436-0.335l1.043-1.04l-1.406,0.428l0.383-1.42l-1.008,1.071l-0.381-1.421l-0.336,1.435l-1.037-1.044l0.427,1.407l-1.419-0.383
			l1.072,1.006l-1.422,0.379l1.428,0.338l-1.039,1.037l1.408-0.428l-0.332,1.23c-0.703,0.611-1.617,1.349-2.342,1.713
			c-1.365,0.685-2.013,1.204-2.816,2.21c0.238-0.298-0.09-1.475-0.15-1.778c-0.62-3.033-2.876-5.587-3.57-8.58l0.321-1.37
			l1.04,1.041l-0.425-1.407l1.419,0.383l-1.072-1.007l1.422-0.379l-1.431-0.335l1.04-1.038l-1.408,0.427l0.385-1.423l-1.006,1.073
			l-0.382-1.423L83.799,9.63l-1.037-1.041l0.426,1.405l-1.42-0.382l1.07,1.006l-1.423,0.38l1.435,0.333l-1.045,1.04l1.409-0.425
			l-0.377,1.401c-0.851,1.156-1.806,2.231-2.877,3.191c-1.099,0.955-1.976,2.134-2.579,3.455c0,0-0.284-2.938-3.822-7.634
			c-1.934-2.562-2.758-4.384-3.111-5.513l0.959,0.963L70.98,6.402l1.422,0.383L71.326,5.78l1.426-0.379l-1.434-0.338l1.041-1.038
			l-1.406,0.427l0.382-1.421l-1.009,1.074l-0.377-1.421l-0.334,1.434l-1.041-1.043l0.428,1.409L67.58,4.101l1.074,1.007L67.23,5.487
			l1.434,0.337l-1.039,1.04l1.406-0.428l-0.383,1.422l1.008-1.074l0.068,0.26c-0.506,1.312-1.559,3.386-3.723,6.03
			c-3.859,4.725-3.223,6.803-3.223,6.803s-1.92-2.694-3.85-4.423c-0.986-0.886-1.605-2.062-1.975-3.002l0.877,0.879l-0.426-1.408
			l1.42,0.384l-1.072-1.007l1.422-0.38l-1.432-0.335l1.043-1.04l-1.41,0.427l0.385-1.423l-1.008,1.074l-0.378-1.424l-0.337,1.435
			l-1.038-1.042l0.428,1.405l-1.422-0.381l1.069,1.006l-1.42,0.381l1.435,0.334l-1.042,1.04l1.4-0.43l-0.385,1.423l1.008-1.074
			l0.063,0.235c-0.245,0.913-0.652,2.067-1.318,3.119c-1.371,2.17-3.207,5.708-2.646,8.284c-0.017-0.072-0.213-0.196-0.263-0.236
			c-0.258-0.235-0.525-0.44-0.797-0.647c-0.601-0.461-1.23-0.879-1.891-1.253c-0.605-0.303-1.179-0.669-1.703-1.1
			c-0.459-0.407-0.842-0.889-1.128-1.427l0.019-0.072l1.037,1.04l-0.423-1.406l1.423,0.384l-1.074-1.006l1.422-0.382l-1.432-0.335
			l1.039-1.04l-1.406,0.427l0.383-1.419l-1.008,1.071l-0.378-1.421l-0.335,1.434l-1.038-1.043l0.425,1.407l-1.421-0.382l1.075,1.006
			l-1.424,0.377l1.434,0.337l-1.041,1.039l1.407-0.429l-0.382,1.422l1.008-1.07l0.376,1.416c-0.078,0.808-0.229,1.605-0.468,2.386
			c-0.309,0.921-0.738,1.791-0.982,2.726c-0.459,1.771,0,3.729,0.979,5.25c0.12,0.188,0.235,0.371,0.385,0.548
			c0.525,0.675,1.146,1.267,1.845,1.76c-10.772,11.415-3.337,23.143-3.337,23.143c-4.34,10.571,2.151,15.584,2.151,15.584
			c1.203,2.834,2.792,4.252,2.792,4.252c0.36,4.944,1.93,11.938,7.637,15.396c5.707,3.459,2.252,8.601,2.252,8.601
			c8.639-9.325,3.305-18.609,3.305-18.609c6.51,5.786,10.327,5.145,10.327,5.145c-7.851-1.948-13.913-11.395-13.913-11.395
			s-0.402,1.689,1.729,4.102c2.129,2.41,1.565,3.777,1.565,3.777s-0.042-1.003-3.899-2.649c-3.858-1.651-6.028-3.692-6.51-4.578
			c-0.482-0.886,3.258,0.604,3.258,0.604c2.57,2.524,4.659,3.618,4.659,3.618S55.035,76.219,54.621,68.897 M91.221,26.685
			c-0.377-0.273-0.595-0.716-0.584-1.181c0-0.761,0.542-1.376,1.21-1.376c0.669,0,1.206,0.614,1.206,1.376
			c0,0.761-0.539,1.377-1.206,1.377c-0.098,0-0.196-0.015-0.291-0.042l-0.329-0.183L91.221,26.685z M94.063,19.211l0.002,0.007
			c-0.025,0.026-0.059,0.054-0.093,0.09L94.063,19.211z M93.389,29.939c-1.806,2.276-2.281-1.866-1.926-2.875
			c0.126,0.038,0.254,0.06,0.384,0.06c0.796,0,1.444-0.723,1.444-1.612c0.007-0.481-0.195-0.942-0.551-1.267
			c0.238-0.445,0.521-0.868,0.849-1.256C94,25.587,95.288,27.367,93.389,29.939z M92.156,22.112
			c0.836-0.604,1.336-1.035,1.336-1.035c-0.033,0.539-0.018,1.081,0.053,1.618c-0.395,0.424-0.73,0.901-0.994,1.417
			c-0.143-0.09-0.296-0.151-0.46-0.183L92.156,22.112z M89.752,23.651c0.834-0.474,1.568-0.944,2.161-1.367l-0.062,1.615
			c-0.798,0-1.443,0.723-1.443,1.612c-0.01,0.563,0.27,1.094,0.738,1.404c-0.271,0.809-0.451,1.289-1.91,1.839
			C87.622,29.365,87.541,24.894,89.752,23.651z M82.82,23.074h-0.758c-0.636-0.235-1.102-1.012-1.102-1.914
			c0-1.101,0.695-1.996,1.55-1.996c0.849,0,1.542,0.896,1.542,1.996c0,0.961-0.527,1.768-1.227,1.958
			C82.822,23.088,82.82,23.074,82.82,23.074z M87.16,28.205l-0.678-0.234l0.602-1.115L87.16,28.205z M84.134,16.865v0.007
			c1.394,2.492,3.935,5.456,1.608,9.849c-1.94,2.69-2.727-2.126-2.891-3.363c0.817-0.204,1.438-1.105,1.438-2.192
			c0.021-0.712-0.278-1.395-0.811-1.867C83.492,18.656,83.904,17.47,84.134,16.865z M83.363,14.837v0.005
			c0.098,0.619,0.308,1.214,0.623,1.757c-0.188,0.472-0.662,1.75-0.732,2.54c-0.225-0.134-0.482-0.205-0.745-0.208H82.43
			c0-0.43,0.034-1.91-0.107-2.57C82.753,15.917,83.105,15.402,83.363,14.837z M82.117,16.572v0.004
			c0.078,0.796,0.102,1.598,0.072,2.396c-0.83,0.188-1.461,1.1-1.461,2.192c0,0.968,0.488,1.786,1.18,2.101
			c-2.154,5.409-3.361,2.25-3.361,2.25C76.525,20.21,79.954,18.75,82.117,16.572z M69.977,32.08c-2.281,0-4.132-1.85-4.132-4.132
			c0.313,0.776,0.825,1.414,1.452,1.884l1.309-0.237l-1.324-0.886l1.556,0.334l-0.882-1.324l1.31,0.903l-0.31-1.561l0.865,1.336
			l0.311-1.559l0.287,1.563l0.887-1.32l-0.336,1.554l1.325-0.88l-0.905,1.309l1.561-0.309l-1.332,0.861l1.048,0.211
			c0.64-0.482,1.144-1.126,1.45-1.88C74.109,30.231,72.259,32.08,69.977,32.08z M69.225,20.174l-1.095-1.342v-1.923l1.095-1.344
			h1.523l1.097,1.344v1.923l-1.097,1.342H69.225z M77.273,26.2h-1.574l1.031-1.928L77.273,26.2z M75.566,19.188
			c0.521,1.89-0.473,6.657-3.017,5.949c-2.776-1.273-2.108-4.474-2.056-4.724h0.367l1.219-1.491v-2.096l-1.219-1.496h-0.039
			l0.518-2.99C72.75,14.392,74.472,15.79,75.566,19.188z M69.977,9.793c0.299,0.794,0.686,1.555,1.151,2.262l-0.567,3.274h-1.063
			c-0.07-0.501-0.372-2.681-0.546-3.507C69.359,11.183,69.704,10.503,69.977,9.793z M64.41,19.188
			c1.132-3.52,2.941-4.896,4.378-7.084c0.169,0.912,0.422,2.718,0.491,3.221h-0.168l-1.219,1.495v2.092l1.219,1.493h0.365
			c0.059,0.252,0.727,3.452-2.054,4.724C64.898,25.844,63.887,21.076,64.41,19.188z M63.288,24.193l0.987,1.318l-1.231,0.333
			L63.288,24.193z M57.197,23.074c0,0,0,0.016,0,0.044c-0.707-0.189-1.229-0.997-1.229-1.958c0-1.101,0.694-1.996,1.547-1.996
			c0.854,0,1.543,0.896,1.543,1.996c0,0.902-0.473,1.655-1.101,1.914H57.197z M57.992,16.664c2.172,2.126,5.471,3.62,3.484,8.847
			c0,0-1.207,3.157-3.359-2.25c0.682-0.314,1.181-1.134,1.181-2.102c0-1.092-0.631-2.005-1.46-2.193
			C57.839,18.642,57.881,17.405,57.992,16.664z M56.654,14.837c0.276,0.605,0.66,1.152,1.135,1.618
			c-0.113,0.819-0.178,1.649-0.194,2.479c-0.026,0-0.056,0-0.084,0c-0.263,0.002-0.521,0.073-0.746,0.208
			c-0.071-0.79-0.548-2.064-0.735-2.54C56.344,16.06,56.555,15.46,56.654,14.837z M55.881,16.868
			c0.234,0.603,0.646,1.787,0.652,2.425c-0.529,0.474-0.825,1.156-0.807,1.867c0,1.085,0.617,1.988,1.436,2.192
			c-0.168,1.238-0.945,6.054-2.891,3.363C51.947,22.323,54.486,19.36,55.881,16.868z M53.068,26.865l0.664,0.656l-0.664,0.235
			V26.865z M48.794,26.663l-0.332,0.183c-0.093,0.026-0.188,0.04-0.286,0.042c-0.666,0-1.209-0.62-1.209-1.377
			c0-0.759,0.543-1.378,1.209-1.378s1.208,0.615,1.208,1.378c0.012,0.465-0.207,0.906-0.584,1.18L48.794,26.663z M50.258,23.651
			c2.21,1.243,2.128,5.707,0.521,5.104c-1.46-0.55-1.64-1.03-1.91-1.838c0.469-0.313,0.748-0.843,0.74-1.405
			c0-0.891-0.65-1.612-1.447-1.612h-0.013l-0.141-1.677C48.738,22.736,49.487,23.212,50.258,23.651z M46.532,21.076
			c0,0,0.463,0.398,1.237,0.968l0.158,1.888c-0.162,0.031-0.313,0.09-0.452,0.179c-0.261-0.512-0.596-0.98-0.993-1.393
			C46.551,22.173,46.568,21.623,46.532,21.076z M46.629,29.939c-1.889-2.566-0.612-4.348-0.195-6.938
			c0.329,0.381,0.614,0.799,0.848,1.244c-0.357,0.324-0.558,0.784-0.553,1.266c0,0.891,0.649,1.612,1.445,1.612
			c0.131,0,0.261-0.021,0.383-0.06C48.914,28.073,48.438,32.214,46.629,29.939z M50.052,70.061c-0.067-0.771-0.04-1.551,0.081-2.313
			c0.25-1.484,0.766-2.913,1.518-4.218c0.724-1.278,1.612-2.458,2.646-3.504c0.052-0.044,0.127-0.037,0.169,0.012
			c0.032,0.04,0.037,0.102,0.007,0.146c-0.434,0.564-0.827,1.158-1.18,1.777c-0.362,0.607-0.687,1.239-0.97,1.889
			c-0.568,1.271-0.916,2.628-1.027,4.016c-0.048,0.67-0.006,1.346,0.128,2.004c0.138,0.646,0.331,1.277,0.581,1.891
			c0.471,1.231,1.18,2.382,1.941,3.66c0.031,0.054,0.015,0.121-0.039,0.153c-0.033,0.02-0.071,0.02-0.104,0
			c-0.691-0.329-1.314-0.777-1.848-1.324c-0.551-0.555-0.999-1.201-1.324-1.914C50.3,71.617,50.105,70.848,50.052,70.061z
			 M62.968,88.008c0.002,0.025-0.019,0.045-0.042,0.05c0,0,0,0-0.002,0c-0.018,0-0.034-0.007-0.043-0.021
			c-0.632-0.97-1.343-1.883-2.126-2.734c-0.185-0.201-0.39-0.381-0.583-0.563c-0.201-0.168-0.408-0.326-0.624-0.472l-0.159-0.111
			c-0.056-0.03-0.111-0.06-0.167-0.094c-0.104-0.067-0.216-0.127-0.332-0.178c-0.114-0.047-0.235-0.099-0.341-0.15l-0.436-0.181
			c-0.575-0.247-1.127-0.544-1.652-0.889c-0.264-0.157-0.505-0.343-0.756-0.516c-0.251-0.172-0.486-0.367-0.707-0.564
			c-0.938-0.76-1.779-1.633-2.506-2.598c-0.014-0.014-0.014-0.032,0-0.05c0.012-0.007,0.022-0.007,0.037,0
			c1.058,0.583,2.066,1.18,3.084,1.764c0.504,0.287,1.013,0.563,1.519,0.827c0.507,0.26,1.015,0.501,1.522,0.708l0.389,0.148
			c0.156,0.066,0.313,0.135,0.472,0.206c0.153,0.077,0.302,0.158,0.444,0.253l0.216,0.124l0.2,0.152
			c0.518,0.396,0.968,0.876,1.33,1.416c0.354,0.521,0.638,1.082,0.855,1.67C62.781,86.786,62.918,87.391,62.968,88.008z"/>
		<path fill="#FFFFFF" d="M71.75,30.362c0.177-0.077,0.347-0.166,0.509-0.264l-0.653,0.118L71.75,30.362z"/>
		<path fill="#FFFFFF" d="M68.283,30.397l0.316-0.205l-1.121-0.227C67.732,30.138,68.001,30.282,68.283,30.397z"/>
	</g>
	<g>
		<path fill="#FFFFFF" d="M6.776,119.351c0.07,0.171,0.139,0.338,0.208,0.508c0.067-0.177,0.139-0.347,0.212-0.518
			c0.073-0.173,0.15-0.333,0.234-0.489l3.131-5.861c0.039-0.073,0.077-0.131,0.119-0.177c0.041-0.046,0.088-0.074,0.14-0.097
			c0.052-0.018,0.108-0.028,0.171-0.033c0.063-0.007,0.139-0.009,0.228-0.009h1.485v10.579H10.97v-6.833
			c0-0.127,0.002-0.268,0.012-0.417c0.006-0.151,0.017-0.306,0.033-0.464l-3.197,6c-0.073,0.138-0.168,0.242-0.285,0.318
			c-0.118,0.075-0.253,0.116-0.41,0.116H6.852c-0.155,0-0.292-0.041-0.409-0.116c-0.118-0.076-0.212-0.182-0.285-0.318l-3.241-6.02
			c0.021,0.161,0.034,0.317,0.041,0.473c0.007,0.154,0.011,0.295,0.011,0.428v6.833H1.233v-10.577h1.484
			c0.087,0,0.165,0.002,0.229,0.007s0.12,0.02,0.171,0.036c0.052,0.021,0.1,0.05,0.143,0.096c0.044,0.044,0.085,0.102,0.126,0.178
			l3.159,5.872C6.629,119.02,6.704,119.183,6.776,119.351z"/>
		<path fill="#FFFFFF" d="M17.059,123.254h-1.977v-10.577h1.977V123.254z"/>
		<path fill="#FFFFFF" d="M25.105,114.601c-0.055,0.104-0.117,0.183-0.188,0.226s-0.155,0.067-0.253,0.067
			c-0.099,0-0.206-0.039-0.329-0.113c-0.124-0.079-0.265-0.161-0.432-0.254c-0.167-0.092-0.359-0.178-0.582-0.252
			c-0.222-0.077-0.483-0.113-0.787-0.113c-0.273,0-0.511,0.031-0.713,0.1c-0.202,0.067-0.373,0.156-0.512,0.274
			c-0.14,0.116-0.244,0.258-0.312,0.421c-0.07,0.163-0.102,0.344-0.102,0.536c0,0.248,0.068,0.457,0.208,0.622
			c0.138,0.166,0.322,0.308,0.553,0.425c0.228,0.115,0.489,0.222,0.782,0.313c0.292,0.094,0.59,0.192,0.895,0.299
			c0.305,0.104,0.604,0.226,0.896,0.363c0.292,0.14,0.553,0.314,0.781,0.525c0.23,0.215,0.413,0.476,0.554,0.782
			c0.141,0.308,0.208,0.68,0.208,1.117c0,0.479-0.083,0.927-0.246,1.344c-0.163,0.418-0.402,0.779-0.716,1.089
			c-0.316,0.312-0.698,0.556-1.152,0.732c-0.453,0.18-0.973,0.266-1.558,0.266c-0.336,0-0.668-0.03-0.994-0.098
			c-0.328-0.065-0.642-0.158-0.941-0.281c-0.299-0.122-0.579-0.269-0.841-0.438c-0.26-0.172-0.494-0.361-0.699-0.571l0.57-0.944
			c0.053-0.068,0.119-0.125,0.192-0.173c0.077-0.045,0.159-0.068,0.254-0.068c0.124,0,0.253,0.051,0.396,0.15
			c0.141,0.102,0.308,0.211,0.501,0.333c0.191,0.122,0.419,0.23,0.68,0.333c0.261,0.1,0.574,0.152,0.94,0.152
			c0.562,0,0.996-0.135,1.303-0.399c0.309-0.269,0.46-0.646,0.46-1.146c0-0.278-0.069-0.503-0.209-0.683
			c-0.139-0.177-0.324-0.322-0.552-0.44c-0.23-0.12-0.49-0.222-0.783-0.306c-0.293-0.083-0.59-0.173-0.894-0.271
			c-0.302-0.097-0.601-0.216-0.894-0.35c-0.292-0.138-0.554-0.315-0.782-0.536c-0.229-0.222-0.414-0.491-0.553-0.822
			c-0.139-0.329-0.208-0.736-0.208-1.219c0-0.384,0.077-0.758,0.23-1.125c0.152-0.367,0.376-0.69,0.671-0.975
			c0.295-0.283,0.658-0.509,1.085-0.682c0.431-0.171,0.92-0.257,1.471-0.257c0.624,0,1.201,0.099,1.728,0.293
			c0.525,0.196,0.975,0.47,1.346,0.82L25.105,114.601z"/>
		<path fill="#FFFFFF" d="M32.954,114.601c-0.054,0.104-0.117,0.183-0.186,0.226c-0.071,0.043-0.155,0.067-0.254,0.067
			c-0.098,0-0.205-0.039-0.329-0.113c-0.122-0.079-0.268-0.161-0.432-0.254c-0.167-0.092-0.359-0.178-0.583-0.252
			c-0.222-0.077-0.482-0.113-0.787-0.113c-0.273,0-0.511,0.031-0.714,0.1c-0.203,0.067-0.372,0.156-0.512,0.274
			c-0.139,0.116-0.244,0.258-0.312,0.421c-0.066,0.163-0.102,0.344-0.102,0.536c0,0.248,0.069,0.457,0.208,0.622
			c0.141,0.166,0.323,0.308,0.553,0.425c0.229,0.115,0.489,0.222,0.782,0.313c0.293,0.094,0.593,0.192,0.896,0.299
			c0.304,0.104,0.602,0.226,0.895,0.363c0.292,0.14,0.553,0.314,0.782,0.525c0.229,0.215,0.414,0.476,0.553,0.782
			c0.141,0.308,0.208,0.68,0.208,1.117c0,0.479-0.08,0.927-0.244,1.344c-0.164,0.418-0.4,0.779-0.716,1.089
			c-0.316,0.312-0.699,0.556-1.152,0.732c-0.454,0.18-0.973,0.266-1.557,0.266c-0.337,0-0.668-0.03-0.996-0.098
			c-0.326-0.065-0.639-0.158-0.938-0.281c-0.301-0.122-0.581-0.269-0.843-0.438c-0.26-0.172-0.492-0.361-0.697-0.571l0.57-0.944
			c0.054-0.068,0.118-0.125,0.193-0.173c0.075-0.045,0.16-0.068,0.253-0.068c0.123,0,0.253,0.051,0.395,0.15
			c0.143,0.101,0.31,0.211,0.502,0.333s0.42,0.23,0.68,0.333c0.26,0.1,0.576,0.152,0.941,0.152c0.562,0,0.994-0.135,1.302-0.399
			c0.308-0.269,0.46-0.646,0.46-1.146c0-0.278-0.068-0.503-0.208-0.683c-0.14-0.177-0.323-0.322-0.553-0.44
			c-0.229-0.12-0.489-0.222-0.783-0.306c-0.292-0.083-0.589-0.173-0.893-0.271c-0.303-0.097-0.6-0.216-0.894-0.35
			c-0.293-0.138-0.555-0.315-0.782-0.536c-0.23-0.222-0.414-0.491-0.553-0.822c-0.14-0.329-0.208-0.736-0.208-1.219
			c0-0.384,0.076-0.758,0.23-1.125s0.377-0.69,0.672-0.975c0.294-0.283,0.656-0.509,1.088-0.682
			c0.428-0.171,0.919-0.257,1.471-0.257c0.624,0,1.199,0.099,1.725,0.293c0.528,0.196,0.977,0.47,1.348,0.82L32.954,114.601z"/>
		<path fill="#FFFFFF" d="M39.207,112.687c0.061,0.009,0.111,0.021,0.157,0.045c0.047,0.021,0.092,0.054,0.136,0.092
			c0.044,0.043,0.092,0.099,0.146,0.167l5.553,7.075c-0.02-0.173-0.032-0.338-0.039-0.502c-0.006-0.165-0.013-0.316-0.013-0.458
			v-6.429h1.733v10.577h-1.017c-0.156,0-0.284-0.024-0.387-0.072c-0.103-0.051-0.202-0.137-0.302-0.264l-5.528-7.047
			c0.015,0.156,0.025,0.313,0.032,0.466c0.008,0.153,0.012,0.293,0.012,0.421v6.496h-1.734v-10.577h1.032
			C39.077,112.675,39.149,112.677,39.207,112.687z"/>
		<path fill="#FFFFFF" d="M55.689,112.675v1.563h-4.688v2.938h3.692v1.514h-3.692v2.991h4.688v1.574h-6.671v-10.579H55.689z"/>
		<path fill="#FFFFFF" d="M59.429,119.531v3.724h-1.968v-10.579h3.443c0.707,0,1.319,0.083,1.836,0.249
			c0.519,0.168,0.945,0.396,1.281,0.694c0.336,0.299,0.586,0.652,0.746,1.068c0.16,0.415,0.241,0.868,0.241,1.356
			c0,0.514-0.086,0.983-0.255,1.408c-0.173,0.428-0.43,0.794-0.77,1.102c-0.342,0.308-0.768,0.548-1.278,0.718
			c-0.513,0.17-1.113,0.256-1.804,0.256h-1.474V119.531z M59.429,117.992h1.476c0.363,0,0.679-0.046,0.945-0.134
			c0.27-0.091,0.489-0.221,0.665-0.389c0.177-0.168,0.308-0.372,0.396-0.614c0.086-0.24,0.131-0.511,0.131-0.809
			c0-0.28-0.045-0.537-0.131-0.769c-0.088-0.229-0.219-0.425-0.396-0.586c-0.176-0.16-0.397-0.282-0.665-0.369
			c-0.268-0.084-0.582-0.127-0.945-0.127h-1.476V117.992z"/>
		<path fill="#FFFFFF" d="M74.703,123.254h-1.521c-0.17,0-0.311-0.043-0.42-0.127s-0.189-0.192-0.238-0.319l-0.789-2.157h-4.383
			l-0.789,2.157c-0.039,0.115-0.115,0.216-0.23,0.308c-0.116,0.094-0.256,0.14-0.422,0.14h-1.529l4.156-10.577h2.012L74.703,123.254
			z M67.855,119.259h3.373l-1.287-3.52c-0.06-0.153-0.123-0.339-0.195-0.552c-0.068-0.214-0.141-0.441-0.207-0.691
			c-0.069,0.25-0.137,0.479-0.201,0.693c-0.066,0.216-0.131,0.403-0.195,0.564L67.855,119.259z"/>
		<path fill="#FFFFFF" d="M77.762,121.628h4.234v1.623h-6.204v-10.576h1.97V121.628L77.762,121.628z"/>
	</g>
	<g>
		<path fill="#FFFFFF" d="M20.17,126.932c0.06,0.01,0.112,0.021,0.158,0.046c0.046,0.021,0.09,0.053,0.134,0.093
			c0.044,0.044,0.093,0.097,0.146,0.166l5.551,7.075c-0.02-0.171-0.032-0.337-0.038-0.502c-0.007-0.163-0.011-0.316-0.011-0.459
			v-6.427h1.733v10.578h-1.015c-0.157,0-0.286-0.024-0.388-0.074c-0.103-0.051-0.203-0.139-0.302-0.266l-5.529-7.046
			c0.015,0.159,0.025,0.313,0.034,0.467c0.006,0.152,0.01,0.295,0.01,0.422v6.497H18.92v-10.58h1.031
			C20.038,126.922,20.111,126.927,20.17,126.932z"/>
		<path fill="#FFFFFF" d="M40.126,132.211c0,0.775-0.129,1.492-0.387,2.151c-0.259,0.662-0.621,1.236-1.09,1.718
			c-0.471,0.482-1.033,0.859-1.691,1.131c-0.657,0.271-1.387,0.404-2.186,0.404c-0.801,0-1.53-0.134-2.191-0.404
			c-0.663-0.271-1.228-0.647-1.696-1.131c-0.471-0.483-0.837-1.056-1.095-1.718c-0.258-0.659-0.386-1.376-0.386-2.151
			c0-0.776,0.128-1.493,0.386-2.155c0.258-0.66,0.624-1.233,1.095-1.714c0.471-0.484,1.036-0.86,1.696-1.132
			c0.661-0.271,1.39-0.405,2.191-0.405c0.799,0,1.529,0.137,2.186,0.41c0.658,0.272,1.224,0.648,1.691,1.13
			c0.468,0.48,0.831,1.051,1.09,1.713C39.997,130.718,40.126,131.435,40.126,132.211z M38.108,132.211
			c0-0.582-0.078-1.102-0.232-1.563c-0.153-0.46-0.374-0.851-0.662-1.175c-0.286-0.321-0.638-0.566-1.049-0.739
			c-0.412-0.17-0.876-0.254-1.393-0.254s-0.982,0.084-1.398,0.254c-0.414,0.173-0.768,0.418-1.056,0.739
			c-0.29,0.324-0.515,0.715-0.669,1.175c-0.156,0.461-0.234,0.981-0.234,1.563c0,0.578,0.078,1.102,0.234,1.563
			c0.155,0.46,0.379,0.85,0.669,1.171c0.289,0.318,0.641,0.563,1.056,0.734c0.416,0.17,0.882,0.256,1.398,0.256
			s0.98-0.086,1.393-0.256c0.412-0.171,0.763-0.416,1.049-0.734c0.288-0.321,0.509-0.711,0.662-1.171
			C38.03,133.313,38.108,132.789,38.108,132.211z"/>
		<path fill="#FFFFFF" d="M43.71,133.368v4.132h-1.967v-10.577h3.226c0.722,0,1.34,0.073,1.854,0.223
			c0.516,0.148,0.938,0.357,1.266,0.626c0.329,0.271,0.569,0.588,0.726,0.963c0.153,0.374,0.231,0.784,0.231,1.232
			c0,0.354-0.053,0.69-0.156,1.008c-0.104,0.315-0.255,0.604-0.454,0.864c-0.198,0.259-0.441,0.482-0.731,0.679
			c-0.289,0.196-0.62,0.353-0.99,0.471c0.249,0.142,0.462,0.343,0.644,0.606l2.647,3.908h-1.769c-0.173,0-0.317-0.036-0.437-0.106
			c-0.12-0.066-0.221-0.162-0.305-0.29l-2.224-3.388c-0.083-0.127-0.176-0.218-0.273-0.271c-0.101-0.055-0.248-0.079-0.444-0.079
			H43.71L43.71,133.368z M43.71,131.955h1.229c0.37,0,0.692-0.046,0.97-0.14c0.277-0.091,0.503-0.221,0.682-0.384
			c0.178-0.162,0.312-0.356,0.397-0.583c0.088-0.226,0.131-0.472,0.131-0.741c0-0.535-0.176-0.944-0.53-1.235
			c-0.353-0.286-0.895-0.432-1.621-0.432h-1.259L43.71,131.955L43.71,131.955z"/>
		<path fill="#FFFFFF" d="M58.306,126.922v1.616h-3.183v8.96h-1.969v-8.96h-3.196v-1.616H58.306L58.306,126.922z"/>
		<path fill="#FFFFFF" d="M68.482,137.498h-1.983v-4.621H61.54v4.621h-1.983v-10.576h1.983v4.551h4.959v-4.551h1.981v10.576H68.482z
			"/>
		<path fill="#FFFFFF" d="M82.74,137.498h-1.522c-0.171,0-0.312-0.043-0.421-0.127c-0.109-0.087-0.188-0.191-0.236-0.318
			l-0.789-2.159h-4.384l-0.79,2.159c-0.041,0.111-0.117,0.217-0.23,0.31c-0.112,0.092-0.254,0.138-0.42,0.138h-1.528l4.157-10.577
			h2.012L82.74,137.498z M75.891,133.505h3.373l-1.289-3.521c-0.059-0.156-0.123-0.339-0.193-0.552
			c-0.069-0.213-0.139-0.443-0.209-0.69c-0.066,0.249-0.135,0.479-0.2,0.692c-0.065,0.217-0.13,0.403-0.192,0.563L75.891,133.505z"
			/>
		<path fill="#FFFFFF" d="M89.371,133.596c0.072,0.171,0.138,0.339,0.209,0.509c0.066-0.176,0.138-0.348,0.213-0.519
			c0.072-0.17,0.15-0.333,0.23-0.488l3.133-5.859c0.039-0.074,0.078-0.132,0.121-0.177c0.041-0.044,0.088-0.077,0.139-0.094
			c0.053-0.022,0.107-0.032,0.173-0.036c0.063-0.008,0.138-0.008,0.228-0.008h1.484v10.575h-1.732v-6.833
			c0-0.128,0.002-0.264,0.013-0.418c0.007-0.15,0.018-0.302,0.03-0.46l-3.197,6c-0.072,0.137-0.168,0.242-0.284,0.316
			c-0.118,0.076-0.253,0.115-0.411,0.115h-0.27c-0.155,0-0.293-0.039-0.41-0.115c-0.117-0.074-0.213-0.181-0.284-0.316l-3.241-6.021
			c0.021,0.163,0.034,0.321,0.04,0.476c0.009,0.151,0.013,0.295,0.013,0.428v6.833h-1.733v-10.579h1.483
			c0.09,0,0.168,0.003,0.229,0.01c0.063,0.002,0.12,0.015,0.173,0.036c0.051,0.017,0.098,0.048,0.143,0.094
			c0.043,0.043,0.086,0.103,0.125,0.175l3.16,5.875C89.223,133.267,89.299,133.429,89.371,133.596z"/>
		<path fill="#FFFFFF" d="M104.109,126.922v1.563H99.42v2.935h3.695v1.514H99.42v2.994h4.689v1.57h-6.674v-10.576H104.109
			L104.109,126.922z"/>
		<path fill="#FFFFFF" d="M107.845,133.368v4.132h-1.97v-10.577h3.227c0.723,0,1.344,0.073,1.856,0.223
			c0.515,0.148,0.938,0.357,1.267,0.626c0.329,0.271,0.569,0.588,0.725,0.963c0.152,0.374,0.229,0.784,0.229,1.232
			c0,0.354-0.053,0.69-0.157,1.008c-0.104,0.315-0.256,0.604-0.453,0.864c-0.197,0.259-0.44,0.482-0.731,0.679
			c-0.288,0.196-0.621,0.353-0.992,0.471c0.25,0.142,0.466,0.343,0.646,0.606l2.647,3.908h-1.771c-0.17,0-0.315-0.036-0.436-0.106
			c-0.119-0.066-0.221-0.162-0.305-0.29l-2.225-3.388c-0.082-0.127-0.174-0.218-0.273-0.271c-0.1-0.055-0.248-0.079-0.443-0.079
			H107.845L107.845,133.368z M107.845,131.955h1.229c0.371,0,0.693-0.046,0.969-0.14c0.277-0.091,0.503-0.221,0.682-0.384
			c0.18-0.162,0.313-0.356,0.399-0.583c0.085-0.226,0.131-0.472,0.131-0.741c0-0.535-0.179-0.944-0.532-1.235
			c-0.352-0.286-0.894-0.432-1.619-0.432h-1.258L107.845,131.955L107.845,131.955z"/>
		<path fill="#FFFFFF" d="M117.611,137.498h-1.977v-10.576h1.975L117.611,137.498L117.611,137.498z"/>
		<path fill="#FFFFFF" d="M127.261,135.007c0.106,0,0.199,0.041,0.277,0.122l0.776,0.845c-0.431,0.529-0.955,0.938-1.582,1.221
			c-0.631,0.283-1.383,0.425-2.261,0.425c-0.784,0-1.489-0.135-2.116-0.402c-0.629-0.27-1.162-0.644-1.606-1.12
			c-0.444-0.478-0.785-1.048-1.021-1.71c-0.236-0.665-0.354-1.391-0.354-2.175c0-0.793,0.133-1.522,0.394-2.186
			c0.266-0.66,0.635-1.229,1.112-1.708c0.479-0.478,1.05-0.85,1.715-1.116c0.667-0.267,1.402-0.396,2.207-0.396
			c0.785,0,1.472,0.125,2.06,0.376c0.59,0.252,1.092,0.586,1.511,0.999l-0.657,0.915c-0.039,0.059-0.088,0.107-0.15,0.151
			c-0.062,0.042-0.146,0.066-0.252,0.066c-0.111,0-0.229-0.043-0.345-0.132c-0.116-0.087-0.267-0.183-0.444-0.283
			c-0.182-0.103-0.408-0.196-0.686-0.285c-0.275-0.087-0.625-0.129-1.049-0.129c-0.498,0-0.954,0.083-1.372,0.259
			c-0.417,0.176-0.774,0.422-1.076,0.741c-0.299,0.321-0.534,0.714-0.701,1.175s-0.252,0.979-0.252,1.557
			c0,0.594,0.084,1.122,0.252,1.587c0.169,0.464,0.396,0.854,0.683,1.169c0.291,0.315,0.629,0.562,1.02,0.729
			s0.811,0.251,1.258,0.251c0.27,0,0.512-0.014,0.727-0.042c0.219-0.028,0.42-0.077,0.602-0.14c0.184-0.065,0.355-0.144,0.52-0.244
			c0.164-0.102,0.324-0.224,0.488-0.37c0.047-0.045,0.098-0.079,0.15-0.106C127.139,135.019,127.197,135.007,127.261,135.007z"/>
		<path fill="#FFFFFF" d="M139.097,137.498h-1.522c-0.17,0-0.311-0.043-0.42-0.127c-0.109-0.087-0.187-0.191-0.237-0.318
			l-0.789-2.159h-4.382l-0.789,2.159c-0.041,0.111-0.117,0.217-0.23,0.31c-0.115,0.092-0.255,0.138-0.422,0.138h-1.529l4.157-10.577
			h2.013L139.097,137.498z M132.248,133.505h3.373l-1.289-3.521c-0.059-0.156-0.123-0.339-0.193-0.552s-0.14-0.443-0.209-0.69
			c-0.068,0.249-0.133,0.479-0.199,0.692c-0.065,0.217-0.131,0.403-0.192,0.563L132.248,133.505z"/>
	</g>
</g>
</svg>
