<?xml version="1.0" encoding="utf-8"?>
<!-- Generator: Adobe Illustrator 16.0.0, SVG Export Plug-In . SVG Version: 6.00 Build 0)  -->
<!DOCTYPE svg PUBLIC "-//W3C//DTD SVG 1.1//EN" "http://www.w3.org/Graphics/SVG/1.1/DTD/svg11.dtd">
<svg version="1.1" id="Layer_1" xmlns="http://www.w3.org/2000/svg" xmlns:xlink="http://www.w3.org/1999/xlink" x="0px" y="0px"
	 width="229.003px" height="95.983px" viewBox="-19.582 -7.885 229.003 95.983"
	 enable-background="new -19.582 -7.885 229.003 95.983" xml:space="preserve">
<g>
	<g>
		
			<linearGradient id="SVGID_1_" gradientUnits="userSpaceOnUse" x1="-57.8088" y1="1124.9075" x2="-20.712" y2="1200.5421" gradientTransform="matrix(1 0 0 1 66.4746 -1126.6533)">
			<stop  offset="0" style="stop-color:#2B3990"/>
			<stop  offset="0.1882" style="stop-color:#BE1E2D"/>
			<stop  offset="0.3011" style="stop-color:#BE1E2D"/>
			<stop  offset="0.414" style="stop-color:#2E3192"/>
			<stop  offset="0.5914" style="stop-color:#21409A"/>
			<stop  offset="0.7258" style="stop-color:#BE1E2D"/>
			<stop  offset="1" style="stop-color:#BE1E2D"/>
		</linearGradient>
		<path fill="url(#SVGID_1_)" d="M25.86,24.614c0.035,0.834,0.02,1.67-0.044,2.504c-0.035,0.417-0.101,0.828-0.196,1.236
			c-0.094,0.416-0.209,0.827-0.349,1.231c-0.133,0.405-0.292,0.802-0.464,1.193c-0.176,0.388-0.379,0.766-0.606,1.128l-0.736,1.169
			c-0.261,0.414-0.489,0.847-0.681,1.297c-0.381,0.9-0.578,1.865-0.578,2.838c0.007,0.948,0.2,1.882,0.571,2.752l0.037-0.011
			c-0.185-0.888-0.208-1.801-0.063-2.695c0.148-0.863,0.461-1.691,0.917-2.438c0.436-0.727,1.068-1.354,1.677-2.088
			c0.152-0.185,0.304-0.377,0.452-0.577c0.144-0.2,0.287-0.417,0.413-0.625c0.258-0.422,0.484-0.862,0.679-1.316
			c0.195-0.453,0.361-0.917,0.497-1.392c0.14-0.482,0.248-0.974,0.319-1.47c0.156-0.998,0.111-2.015-0.131-2.996
			c-0.233-0.964-0.623-1.881-1.153-2.72c-0.494-0.83-1.151-1.554-1.929-2.124l-0.013,0.011c0.419,0.809,0.747,1.662,0.976,2.543
			C25.683,22.897,25.817,23.751,25.86,24.614z"/>
		
			<linearGradient id="SVGID_2_" gradientUnits="userSpaceOnUse" x1="-96.2493" y1="1143.7542" x2="-59.1459" y2="1219.4022" gradientTransform="matrix(1 0 0 1 66.4746 -1126.6533)">
			<stop  offset="0" style="stop-color:#2B3990"/>
			<stop  offset="0.1882" style="stop-color:#BE1E2D"/>
			<stop  offset="0.3011" style="stop-color:#BE1E2D"/>
			<stop  offset="0.414" style="stop-color:#2E3192"/>
			<stop  offset="0.5914" style="stop-color:#21409A"/>
			<stop  offset="0.7258" style="stop-color:#BE1E2D"/>
			<stop  offset="1" style="stop-color:#BE1E2D"/>
		</linearGradient>
		<path fill="url(#SVGID_2_)" d="M-6.157,59.608c2.588,5.319-2.526,7.417-2.296,7.762C-0.168,65.064-6.157,59.608-6.157,59.608z"/>
		
			<linearGradient id="SVGID_3_" gradientUnits="userSpaceOnUse" x1="-61.5344" y1="1126.7209" x2="-24.426" y2="1202.3789" gradientTransform="matrix(1 0 0 1 66.4746 -1126.6533)">
			<stop  offset="0" style="stop-color:#2B3990"/>
			<stop  offset="0.1882" style="stop-color:#BE1E2D"/>
			<stop  offset="0.3011" style="stop-color:#BE1E2D"/>
			<stop  offset="0.414" style="stop-color:#2E3192"/>
			<stop  offset="0.5914" style="stop-color:#21409A"/>
			<stop  offset="0.7258" style="stop-color:#BE1E2D"/>
			<stop  offset="1" style="stop-color:#BE1E2D"/>
		</linearGradient>
		<path fill="url(#SVGID_3_)" d="M22.616,42.6c0,0,8.357,0.415,3.439-5.246C26.056,37.354,29.269,42.259,22.616,42.6z"/>
		
			<linearGradient id="SVGID_4_" gradientUnits="userSpaceOnUse" x1="-63.1438" y1="1127.512" x2="-26.0378" y2="1203.1654" gradientTransform="matrix(1 0 0 1 66.4746 -1126.6533)">
			<stop  offset="0" style="stop-color:#2B3990"/>
			<stop  offset="0.1882" style="stop-color:#BE1E2D"/>
			<stop  offset="0.3011" style="stop-color:#BE1E2D"/>
			<stop  offset="0.414" style="stop-color:#2E3192"/>
			<stop  offset="0.5914" style="stop-color:#21409A"/>
			<stop  offset="0.7258" style="stop-color:#BE1E2D"/>
			<stop  offset="1" style="stop-color:#BE1E2D"/>
		</linearGradient>
		<path fill="url(#SVGID_4_)" d="M24.219,44.907c-5.422,0-7.883-7.554-7.883-7.554c-0.473,9.81,6.126,9.986,6.126,9.986
			c9.4-0.174,6.472-8.474,6.472-8.474S29.642,44.907,24.219,44.907z"/>
		
			<linearGradient id="SVGID_5_" gradientUnits="userSpaceOnUse" x1="-63.0159" y1="1127.4602" x2="-25.9172" y2="1203.0985" gradientTransform="matrix(1 0 0 1 66.4746 -1126.6533)">
			<stop  offset="0" style="stop-color:#2B3990"/>
			<stop  offset="0.1882" style="stop-color:#BE1E2D"/>
			<stop  offset="0.3011" style="stop-color:#BE1E2D"/>
			<stop  offset="0.414" style="stop-color:#2E3192"/>
			<stop  offset="0.5914" style="stop-color:#21409A"/>
			<stop  offset="0.7258" style="stop-color:#BE1E2D"/>
			<stop  offset="1" style="stop-color:#BE1E2D"/>
		</linearGradient>
		<path fill="url(#SVGID_5_)" d="M20.842,49.949c16.445,2.96,9.511-7.913,9.511-7.913C30.918,49.565,20.842,49.949,20.842,49.949z"
			/>
		
			<linearGradient id="SVGID_6_" gradientUnits="userSpaceOnUse" x1="-66.0837" y1="1128.9602" x2="-28.9832" y2="1204.6023" gradientTransform="matrix(1 0 0 1 66.4746 -1126.6533)">
			<stop  offset="0" style="stop-color:#2B3990"/>
			<stop  offset="0.1882" style="stop-color:#BE1E2D"/>
			<stop  offset="0.3011" style="stop-color:#BE1E2D"/>
			<stop  offset="0.414" style="stop-color:#2E3192"/>
			<stop  offset="0.5914" style="stop-color:#21409A"/>
			<stop  offset="0.7258" style="stop-color:#BE1E2D"/>
			<stop  offset="1" style="stop-color:#BE1E2D"/>
		</linearGradient>
		<path fill="url(#SVGID_6_)" d="M27.922,51.546c-4.475,0.832-9.599,0-9.599,0c2.428,1.047-0.176,0.35,6.788,1.661
			c6.962,1.31,5.539,5.878,5.539,5.878C32.962,56.229,32.399,50.728,27.922,51.546z"/>
		
			<linearGradient id="SVGID_7_" gradientUnits="userSpaceOnUse" x1="-81.4153" y1="1136.4817" x2="-44.3143" y2="1212.1251" gradientTransform="matrix(1 0 0 1 66.4746 -1126.6533)">
			<stop  offset="0" style="stop-color:#2B3990"/>
			<stop  offset="0.1882" style="stop-color:#BE1E2D"/>
			<stop  offset="0.3011" style="stop-color:#BE1E2D"/>
			<stop  offset="0.414" style="stop-color:#2E3192"/>
			<stop  offset="0.5914" style="stop-color:#21409A"/>
			<stop  offset="0.7258" style="stop-color:#BE1E2D"/>
			<stop  offset="1" style="stop-color:#BE1E2D"/>
		</linearGradient>
		<path fill="url(#SVGID_7_)" d="M16.041,82.067c0,0,9.423-2.193,4.591-8.356c0,0-0.679-1.154-4.475-1.987
			c-3.791-0.827-5.917-3.559-6.371-5.095c0,0-1.392,4.861,5.421,7.347C22.026,76.466,16.041,82.067,16.041,82.067z"/>
		
			<linearGradient id="SVGID_8_" gradientUnits="userSpaceOnUse" x1="-74.3064" y1="1132.9524" x2="-37.187" y2="1208.6327" gradientTransform="matrix(1 0 0 1 66.4746 -1126.6533)">
			<stop  offset="0" style="stop-color:#2B3990"/>
			<stop  offset="0.1882" style="stop-color:#BE1E2D"/>
			<stop  offset="0.3011" style="stop-color:#BE1E2D"/>
			<stop  offset="0.414" style="stop-color:#2E3192"/>
			<stop  offset="0.5914" style="stop-color:#21409A"/>
			<stop  offset="0.7258" style="stop-color:#BE1E2D"/>
			<stop  offset="1" style="stop-color:#BE1E2D"/>
		</linearGradient>
		<path fill="url(#SVGID_8_)" d="M21.523,73.24c4.829,6.165,6.638-0.651,6.638-0.651C25.731,77.597,21.523,73.24,21.523,73.24z"/>
		
			<linearGradient id="SVGID_9_" gradientUnits="userSpaceOnUse" x1="-82.3396" y1="1136.9622" x2="-45.2495" y2="1212.583" gradientTransform="matrix(1 0 0 1 66.4746 -1126.6533)">
			<stop  offset="0" style="stop-color:#2B3990"/>
			<stop  offset="0.1882" style="stop-color:#BE1E2D"/>
			<stop  offset="0.3011" style="stop-color:#BE1E2D"/>
			<stop  offset="0.414" style="stop-color:#2E3192"/>
			<stop  offset="0.5914" style="stop-color:#21409A"/>
			<stop  offset="0.7258" style="stop-color:#BE1E2D"/>
			<stop  offset="1" style="stop-color:#BE1E2D"/>
		</linearGradient>
		<path fill="url(#SVGID_9_)" d="M14.502,83.111c0.739,2.251,4.526,1.306,4.526,1.306c4.443-2.135,3.882-5.986,3.882-5.986
			C20.724,85.923,14.502,83.111,14.502,83.111z"/>
		
			<linearGradient id="SVGID_10_" gradientUnits="userSpaceOnUse" x1="-74.0134" y1="1132.8508" x2="-36.913" y2="1208.4927" gradientTransform="matrix(1 0 0 1 66.4746 -1126.6533)">
			<stop  offset="0" style="stop-color:#2B3990"/>
			<stop  offset="0.1882" style="stop-color:#BE1E2D"/>
			<stop  offset="0.3011" style="stop-color:#BE1E2D"/>
			<stop  offset="0.414" style="stop-color:#2E3192"/>
			<stop  offset="0.5914" style="stop-color:#21409A"/>
			<stop  offset="0.7258" style="stop-color:#BE1E2D"/>
			<stop  offset="1" style="stop-color:#BE1E2D"/>
		</linearGradient>
		<path fill="url(#SVGID_10_)" d="M21.733,53.205c-6.905-0.536-6.43-2.931-6.43-2.931c-1.807,1.987,1.305,5.127,4.862,6.27
			c2.816,0.91,3.83,1.555,4.129,1.782c-0.263-0.124-1.163-0.35-4.215-0.56c-4.446-0.297-5.808-2.783-5.808-2.783
			c-2.964-5.989,2.188-5.454,2.188-5.454c-4.828-1.219-4.414-5.156-4.414-5.156c5.631,8.891,12.8,3.229,12.8,3.229
			c-3.025,0.416-10.251,0.889-10.192-13.157c0.059-14.047-9.557-14.729-9.557-14.729c6.859,2.992,6.416,8.445,6.416,8.445
			C8.37,21.404-1.529,16.959-1.529,16.959s-0.889,3.022,3.646,6.313c4.534,3.289,4.578,8.889,3.464,11.557
			c-1.111,2.667-1.073,4.141-1.073,4.141c-0.312,7.067,7.911,9.557,7.911,9.557c-6,6.441-1.304,10.398-1.304,10.398
			c0.506,4.39,2.577,5.781,2.577,5.781c-4.443-0.445-4.857-5.396-4.857-5.396c-0.98,6.729,3.2,11.645,8.326,11.38
			c5.128-0.265,6.619,2.344,6.619,2.344c-0.148-4.033-2.877-5.454-2.877-5.454c4.207,0.977,3.499,6.726,3.499,6.726
			c1.927-3.643,1.186-5.809,1.186-5.809c0.976-1.981,2.844-5.036,3.881-8.238C30.509,57.055,28.636,53.741,21.733,53.205z
			 M6.053,37.916h0.008c0.641-2.456,0.958-4.986,0.946-7.527c0,0,0.714,0.962,0.239,5.985c-0.83,5.127,0.742,7.053,0.742,7.053
			S4.98,42.1,6.053,37.916z M25.288,67.937c0,0-1.502-2.165-5.332-2.995c-3.826-0.827-5.013-3.319-5.455-4.117
			c2.002,0.946,4.142,1.566,6.342,1.836C24.396,63.076,25.878,65.446,25.288,67.937z M26.321,62.75c0,0-2.25-1.868-7.821-2.075
			c-5.571-0.206-5.69-5.404-5.69-5.404s1.363,3.628,7.586,4.93C26.619,61.506,26.321,62.75,26.321,62.75z"/>
		
			<linearGradient id="SVGID_11_" gradientUnits="userSpaceOnUse" x1="-81.2175" y1="1136.3948" x2="-44.131" y2="1212.0084" gradientTransform="matrix(1 0 0 1 66.4746 -1126.6533)">
			<stop  offset="0" style="stop-color:#2B3990"/>
			<stop  offset="0.1882" style="stop-color:#BE1E2D"/>
			<stop  offset="0.3011" style="stop-color:#BE1E2D"/>
			<stop  offset="0.414" style="stop-color:#2E3192"/>
			<stop  offset="0.5914" style="stop-color:#21409A"/>
			<stop  offset="0.7258" style="stop-color:#BE1E2D"/>
			<stop  offset="1" style="stop-color:#BE1E2D"/>
		</linearGradient>
		<path fill="url(#SVGID_11_)" d="M2.236,37.096c0,0-1.456-3.878-6.014-1.46c0,0,0.364,0.192,1.268-0.089
			c0,0-0.385,0.903-2.134,0.414c0.023,0.149,0.113,0.278,0.245,0.349c0,0-0.561,0.125-0.934-0.172c0,0,0.247,1.232,1.906,1.334
			c-0.209,0.3-0.499,0.538-0.831,0.683c0.458,0,0.917-0.063,1.354-0.193c-0.08,0.254-0.258,0.469-0.495,0.594
			c0.402,0.023,0.802-0.083,1.141-0.302c0,0,0.126,0.215-0.156,0.63c0.352,0,0.694-0.101,0.994-0.29
			c0.856,0.142,1.736,0.034,2.534-0.311c0,0,0.123-0.175,1.177-0.201c0,0,0.512-0.133-0.098-0.587
			c-0.612-0.454-0.802-1.036-1.293-1.38C0.9,36.114,1.344,36.114,2.236,37.096z M0.143,37.081c0.002,0,0.007,0,0.014,0H0.143
			c0.167,0,0.297,0.132,0.297,0.299c0,0.166-0.131,0.299-0.297,0.299c-0.163,0-0.296-0.135-0.296-0.299
			C-0.153,37.215-0.02,37.081,0.143,37.081z M1.63,37.798H1.626c-0.417,0.068-0.818,0.209-1.186,0.417
			c-2.198,0.799-3.323-0.965-3.323-0.965c0.232-0.067,0.471-0.117,0.714-0.151c0.252,0.793,1.1,1.233,1.893,0.979
			c0.541-0.174,0.94-0.637,1.028-1.196C2.262,37.573,1.63,37.798,1.63,37.798z"/>
		
			<linearGradient id="SVGID_12_" gradientUnits="userSpaceOnUse" x1="-79.7888" y1="1135.8167" x2="-42.798" y2="1211.2351" gradientTransform="matrix(1 0 0 1 66.4746 -1126.6533)">
			<stop  offset="0" style="stop-color:#2B3990"/>
			<stop  offset="0.1882" style="stop-color:#BE1E2D"/>
			<stop  offset="0.3011" style="stop-color:#BE1E2D"/>
			<stop  offset="0.414" style="stop-color:#2E3192"/>
			<stop  offset="0.5914" style="stop-color:#21409A"/>
			<stop  offset="0.7258" style="stop-color:#BE1E2D"/>
			<stop  offset="1" style="stop-color:#BE1E2D"/>
		</linearGradient>
		<path fill="url(#SVGID_12_)" d="M4.395,45.449c1.023-0.228,0.325-0.672-0.37-0.63c-0.576,0.014-0.267,0.313-0.267,0.313
			C3.963,45.356,4.124,45.505,4.395,45.449z"/>
		
			<linearGradient id="SVGID_13_" gradientUnits="userSpaceOnUse" x1="-80.551" y1="1136.0715" x2="-43.4605" y2="1211.6932" gradientTransform="matrix(1 0 0 1 66.4746 -1126.6533)">
			<stop  offset="0" style="stop-color:#2B3990"/>
			<stop  offset="0.1882" style="stop-color:#BE1E2D"/>
			<stop  offset="0.3011" style="stop-color:#BE1E2D"/>
			<stop  offset="0.414" style="stop-color:#2E3192"/>
			<stop  offset="0.5914" style="stop-color:#21409A"/>
			<stop  offset="0.7258" style="stop-color:#BE1E2D"/>
			<stop  offset="1" style="stop-color:#BE1E2D"/>
		</linearGradient>
		<path fill="url(#SVGID_13_)" d="M8.08,49.509c-0.789-0.32-1.188-0.153-1.333-0.055s-0.812,0.466-1.395,0.174
			c-0.395-0.178-0.826-0.264-1.26-0.247c-1.879,0.301-0.844,0.841-0.844,0.841c2.051,1.548,4.116,0.951,4.828,0.363
			C8.659,49.958,8.864,49.836,8.08,49.509z M8.058,50.215v-0.008c-0.602,0.508-1.045,0.312-1.158,0.264
			c-0.601-0.264,0.125-0.932,0.444-0.932C7.667,49.539,8.656,49.705,8.058,50.215z"/>
		
			<linearGradient id="SVGID_14_" gradientUnits="userSpaceOnUse" x1="-79.9973" y1="1135.7678" x2="-42.8835" y2="1211.437" gradientTransform="matrix(1 0 0 1 66.4746 -1126.6533)">
			<stop  offset="0" style="stop-color:#2B3990"/>
			<stop  offset="0.1882" style="stop-color:#BE1E2D"/>
			<stop  offset="0.3011" style="stop-color:#BE1E2D"/>
			<stop  offset="0.414" style="stop-color:#2E3192"/>
			<stop  offset="0.5914" style="stop-color:#21409A"/>
			<stop  offset="0.7258" style="stop-color:#BE1E2D"/>
			<stop  offset="1" style="stop-color:#BE1E2D"/>
		</linearGradient>
		<path fill="url(#SVGID_14_)" d="M2.071,49.074c0.522,0.49,1.203,0.225,1.203,0.225c0.591-0.433,1.406-0.624,1.822-0.372
			c0.427,0.276,0.959,0.335,1.436,0.162c0.504-0.189,1.187,0,1.187,0c0.578,0.353,1.295,0.399,1.915,0.128
			c0.363-0.158,0.615-0.645-0.153-0.698c-0.472-0.032-0.904-0.259-1.201-0.62c-1.126-1.145-1.632-0.626-1.896-0.476
			c-0.267,0.147-0.474,0.269-0.831,0.015c-0.358-0.249-0.8-0.473-1.453,0c-0.652,0.476-1.14,0.887-1.836,1.045
			C1.566,48.64,2.071,49.074,2.071,49.074z M7.145,47.659h0.006c0.923,0.146,1.234,0.61,0.723,0.856
			c-0.509,0.244-1.11-0.39-1.11-0.39S6.223,47.514,7.145,47.659z"/>
		
			<linearGradient id="SVGID_15_" gradientUnits="userSpaceOnUse" x1="-63.1062" y1="1127.5032" x2="-26.0149" y2="1203.1266" gradientTransform="matrix(1 0 0 1 66.4746 -1126.6533)">
			<stop  offset="0" style="stop-color:#2B3990"/>
			<stop  offset="0.1882" style="stop-color:#BE1E2D"/>
			<stop  offset="0.3011" style="stop-color:#BE1E2D"/>
			<stop  offset="0.414" style="stop-color:#2E3192"/>
			<stop  offset="0.5914" style="stop-color:#21409A"/>
			<stop  offset="0.7258" style="stop-color:#BE1E2D"/>
			<stop  offset="1" style="stop-color:#BE1E2D"/>
		</linearGradient>
		<path fill="url(#SVGID_15_)" d="M5.204,8.512l0.9,1.1h1.29l0.898-1.1V6.97L7.394,5.867h-1.29l-0.9,1.103V8.512z M5.38,7.032
			l0.807-0.99h1.122L8.114,7.03v1.416l-0.808,0.99H6.182L5.379,8.451V7.032H5.38z"/>
		
			<linearGradient id="SVGID_16_" gradientUnits="userSpaceOnUse" x1="-66.8347" y1="1129.3293" x2="-29.7324" y2="1204.9752" gradientTransform="matrix(1 0 0 1 66.4746 -1126.6533)">
			<stop  offset="0" style="stop-color:#2B3990"/>
			<stop  offset="0.1882" style="stop-color:#BE1E2D"/>
			<stop  offset="0.3011" style="stop-color:#BE1E2D"/>
			<stop  offset="0.414" style="stop-color:#2E3192"/>
			<stop  offset="0.5914" style="stop-color:#21409A"/>
			<stop  offset="0.7258" style="stop-color:#BE1E2D"/>
			<stop  offset="1" style="stop-color:#BE1E2D"/>
		</linearGradient>
		<path fill="url(#SVGID_16_)" d="M2.768,9.613l0.901-1.1V6.969L2.768,5.866H1.48L0.579,6.969v1.543l0.901,1.1H2.768z M0.743,7.03
			l0.806-0.989h1.125L3.485,7.03v1.417l-0.81,0.99H1.551l-0.808-0.99L0.743,7.03z"/>
		
			<linearGradient id="SVGID_17_" gradientUnits="userSpaceOnUse" x1="-70.9514" y1="1131.3489" x2="-33.8504" y2="1206.9922" gradientTransform="matrix(1 0 0 1 66.4746 -1126.6533)">
			<stop  offset="0" style="stop-color:#2B3990"/>
			<stop  offset="0.1882" style="stop-color:#BE1E2D"/>
			<stop  offset="0.3011" style="stop-color:#BE1E2D"/>
			<stop  offset="0.414" style="stop-color:#2E3192"/>
			<stop  offset="0.5914" style="stop-color:#21409A"/>
			<stop  offset="0.7258" style="stop-color:#BE1E2D"/>
			<stop  offset="1" style="stop-color:#BE1E2D"/>
		</linearGradient>
		<path fill="url(#SVGID_17_)" d="M-6.898,42.443c-0.12-2.096,0.252-4.555,1.515-7.341c0.599-1.09,1.119-2.09,1.565-3.019
			c0.023,0.008,0.046,0.008,0.069,0h0.013c0.478-0.125,0.977-0.141,1.462-0.051c0.467,0.087,0.914,0.258,1.322,0.499
			c0.418,0.242,0.811,0.519,1.173,0.835c0.172,0.175,0.358,0.332,0.54,0.502c0.178,0.169,0.348,0.359,0.531,0.523l0.032,0.029
			c0.232,0.171,0.558,0.123,0.729-0.108c0.13-0.171,0.138-0.405,0.024-0.586c-0.171-0.218-0.348-0.426-0.534-0.633
			c-0.184-0.208-0.404-0.385-0.616-0.569c-0.111-0.085-0.226-0.175-0.349-0.25c-0.11-0.085-0.227-0.166-0.349-0.237
			c-0.125-0.073-0.25-0.139-0.375-0.207c-0.125-0.07-0.265-0.117-0.397-0.175l-0.195-0.073l-0.211-0.057
			c-0.137-0.047-0.279-0.079-0.423-0.102c-0.288-0.051-0.579-0.072-0.869-0.054c-0.522,0.022-1.026,0.189-1.46,0.48
			c3.847-7.927,2.583-9.899,2.583-9.899c-2.074,7.312-6.617,11.177-6.886,11.49c2.224-2.713,3.633-6.422,3.633-6.422
			c-10.446,7.021-9.12,14.313-9.12,14.313c-2.624-4.848,0.733-10.518,0.733-10.518c-0.651,0.559-1.132,1.283-1.394,2.098
			c-1.012-11.023,7.225-16.179,7.225-16.179c-5.63,5.397-4.89,13.319-4.89,13.319c1.155-1.567,3.306-2.281,3.306-2.281
			c4.09-1.202,5.29-4.981,5.29-4.981c2.356-9.689-1.647-9.401-1.647-9.401c0.647-0.601,2.048-0.621,2.048-0.621
			c-0.116,0.472-0.071,0.97,0.133,1.413c3.202,3.853,7.794,4.209,7.794,4.209c10.491,1.362,10.905,10.535,10.905,10.535
			c2.55,13.203,7.231,12.728,7.231,12.728c-3.972-2.341-0.473-8.564-0.473-8.564c5.688-11.854-2.135-16.886-2.135-16.886
			c0.415-0.208,0.799-0.602,1.114-0.931c0.735-0.744,1.235-1.69,1.436-2.717c0.088-0.578,0.067-1.17-0.065-1.742
			c-0.127-0.632-0.334-1.254-0.487-1.904c-0.095-0.412-0.167-0.826-0.211-1.244c-0.033-0.28-0.057-0.562-0.076-0.846
			c-0.011-0.107-0.08-0.495-0.101-0.779l0.217,0.82l0.25-1.057l0.766,0.767L23.16,5.532l1.05,0.283l-0.791-0.741l1.048-0.282
			l-1.058-0.246l0.771-0.768l-1.037,0.315l0.281-1.046l-0.742,0.79L22.4,2.789l-0.248,1.058l-0.765-0.771l0.315,1.038l-1.046-0.283
			l0.791,0.743l-1.048,0.279l1.052,0.25l-0.766,0.765l1.038-0.315l-0.244,0.907c-0.52,0.45-1.193,0.995-1.728,1.263
			c-1.007,0.504-1.485,0.888-2.076,1.629c0.175-0.22-0.067-1.087-0.111-1.313c-0.458-2.235-2.121-4.118-2.632-6.325l0.237-1.01
			l0.767,0.767l-0.313-1.038l1.046,0.283l-0.791-0.743l1.049-0.278l-1.055-0.248l0.766-0.767l-1.038,0.315l0.284-1.05l-0.741,0.791
			l-0.283-1.048l-0.248,1.058l-0.765-0.768l0.314,1.037l-1.046-0.281l0.788,0.741l-1.05,0.28l1.058,0.247l-0.771,0.766l1.039-0.313
			l-0.278,1.032c-0.626,0.853-1.33,1.646-2.121,2.353c-0.809,0.704-1.457,1.574-1.901,2.548c0,0-0.208-2.165-2.817-5.628
			C5.638-1.131,5.031-2.474,4.77-3.306l0.707,0.709L5.164-3.635l1.048,0.283L5.419-4.094l1.051-0.279l-1.057-0.25L6.18-5.388
			L5.143-5.073l0.281-1.047L4.681-5.329L4.403-6.377L4.158-5.32L3.389-6.088l0.314,1.04L2.656-5.331l0.791,0.742l-1.05,0.28
			L3.454-4.06L2.688-3.293l1.037-0.316L3.442-2.56l0.744-0.793L4.237-3.16C3.864-2.194,3.087-0.666,1.492,1.285
			c-2.846,3.483-2.376,5.017-2.376,5.017S-2.302,4.315-3.723,3.04c-0.726-0.653-1.184-1.521-1.456-2.213l0.646,0.648l-0.313-1.039
			l1.047,0.284l-0.791-0.742l1.049-0.279L-4.595-0.55l0.768-0.767l-1.041,0.315l0.284-1.048l-0.744,0.792l-0.279-1.05L-5.855-1.25
			l-0.765-0.77l0.315,1.036l-1.047-0.281l0.788,0.742l-1.047,0.28l1.057,0.247L-7.323,0.77l1.033-0.316l-0.284,1.05l0.744-0.793
			l0.047,0.174c-0.182,0.674-0.482,1.524-0.974,2.3c-1.011,1.6-2.365,4.208-1.951,6.107c-0.012-0.053-0.156-0.146-0.192-0.174
			c-0.19-0.175-0.388-0.326-0.587-0.477c-0.443-0.339-0.907-0.649-1.395-0.924c-0.447-0.224-0.869-0.494-1.256-0.811
			c-0.339-0.3-0.619-0.654-0.832-1.052l0.014-0.053l0.765,0.767l-0.312-1.037l1.05,0.283l-0.792-0.741l1.049-0.282l-1.056-0.248
			l0.766-0.767l-1.037,0.314l0.283-1.045l-0.744,0.789l-0.279-1.048l-0.246,1.057l-0.766-0.77l0.313,1.038l-1.046-0.28l0.792,0.743
			l-1.05,0.278l1.058,0.249l-0.768,0.766l1.037-0.315l-0.281,1.048l0.744-0.79l0.278,1.044c-0.058,0.596-0.17,1.183-0.345,1.76
			c-0.228,0.678-0.544,1.319-0.725,2.009c-0.337,1.306,0,2.75,0.723,3.871c0.089,0.14,0.174,0.274,0.283,0.404
			c0.388,0.499,0.846,0.935,1.362,1.298c-7.943,8.416-2.462,17.063-2.462,17.063c-3.199,7.795,1.585,11.49,1.585,11.49
			c0.888,2.09,2.059,3.137,2.059,3.137c0.267,3.644,1.424,8.8,5.631,11.349c4.207,2.552,1.66,6.342,1.66,6.342
			C2.94,58.7-0.991,51.855-0.991,51.855c4.8,4.265,7.614,3.794,7.614,3.794C0.834,54.21-3.636,47.245-3.636,47.245
			s-0.297,1.246,1.273,3.025c1.571,1.776,1.154,2.785,1.154,2.785s-0.03-0.74-2.875-1.954c-2.845-1.219-4.445-2.724-4.8-3.377
			c-0.355-0.651,2.402,0.446,2.402,0.446c1.896,1.86,3.436,2.668,3.436,2.668S-6.593,47.843-6.898,42.443 M20.085,11.321
			c-0.277-0.202-0.438-0.528-0.43-0.872c0-0.561,0.4-1.015,0.893-1.015s0.889,0.453,0.889,1.015c0,0.562-0.397,1.016-0.889,1.016
			c-0.072,0-0.145-0.011-0.215-0.032l-0.243-0.135L20.085,11.321z M22.182,5.81l0.001,0.005c-0.02,0.019-0.043,0.04-0.069,0.066
			L22.182,5.81z M21.685,13.72c-1.332,1.677-1.682-1.377-1.42-2.121c0.092,0.028,0.187,0.045,0.283,0.045
			c0.586,0,1.065-0.533,1.065-1.188c0.004-0.354-0.145-0.694-0.406-0.934c0.176-0.328,0.383-0.64,0.626-0.926
			C22.135,10.511,23.085,11.823,21.685,13.72z M20.777,7.949c0.616-0.446,0.983-0.765,0.983-0.765
			c-0.023,0.397-0.013,0.797,0.04,1.194c-0.291,0.312-0.54,0.664-0.733,1.045c-0.105-0.065-0.218-0.111-0.339-0.135L20.777,7.949z
			 M19.002,9.084c0.615-0.35,1.157-0.697,1.594-1.008l-0.046,1.192c-0.588,0-1.064,0.532-1.064,1.188
			c-0.007,0.416,0.198,0.807,0.544,1.035c-0.2,0.597-0.333,0.951-1.409,1.356C17.432,13.296,17.373,10.001,19.002,9.084z
			 M13.892,8.659h-0.558c-0.468-0.175-0.812-0.746-0.812-1.411c0-0.813,0.513-1.473,1.143-1.473c0.626,0,1.137,0.661,1.137,1.473
			c0,0.708-0.39,1.303-0.904,1.443C13.893,8.668,13.892,8.659,13.892,8.659z M17.092,12.442l-0.5-0.172l0.443-0.823L17.092,12.442z
			 M14.86,4.08v0.005c1.028,1.838,2.902,4.023,1.187,7.261c-1.43,1.983-2.011-1.567-2.132-2.479c0.604-0.15,1.06-0.814,1.06-1.616
			c0.017-0.525-0.204-1.028-0.598-1.377C14.388,5.401,14.692,4.526,14.86,4.08z M14.293,2.585v0.003
			c0.071,0.458,0.226,0.896,0.458,1.296c-0.14,0.349-0.489,1.29-0.541,1.875c-0.165-0.1-0.355-0.151-0.55-0.154h-0.058
			c0-0.318,0.026-1.409-0.079-1.896C13.843,3.381,14.102,3.002,14.293,2.585z M13.375,3.864v0.002
			c0.057,0.586,0.075,1.176,0.053,1.767c-0.612,0.138-1.078,0.811-1.078,1.617c0,0.713,0.36,1.316,0.871,1.549
			c-1.588,3.987-2.479,1.659-2.479,1.659C9.251,6.546,11.778,5.47,13.375,3.864z M4.423,15.299c-1.682,0-3.047-1.364-3.047-3.046
			c0.231,0.573,0.609,1.042,1.071,1.388l0.965-0.175l-0.977-0.653l1.147,0.247l-0.651-0.977l0.965,0.666l-0.228-1.151l0.637,0.985
			l0.23-1.149l0.211,1.152L5.4,11.611l-0.248,1.146l0.977-0.648l-0.667,0.964l1.15-0.228L5.63,13.481l0.773,0.155
			c0.473-0.355,0.844-0.829,1.07-1.386C7.47,13.935,6.105,15.299,4.423,15.299z M3.868,6.52L3.061,5.53V4.113l0.807-0.991h1.124
			L5.8,4.113V5.53L4.992,6.52H3.868z M9.802,10.964h-1.16l0.76-1.421L9.802,10.964z M8.543,5.792
			C8.928,7.186,8.195,10.7,6.32,10.179C4.272,9.24,4.765,6.881,4.803,6.698h0.272l0.898-1.1V4.052L5.075,2.949H5.046l0.382-2.204
			C6.468,2.257,7.737,3.288,8.543,5.792z M4.423-1.134c0.219,0.585,0.505,1.147,0.849,1.667L4.853,2.948H4.07
			C4.018,2.577,3.794,0.97,3.668,0.362C3.968-0.109,4.221-0.611,4.423-1.134z M0.318,5.792C1.152,3.198,2.487,2.183,3.546,0.57
			c0.125,0.673,0.312,2.003,0.364,2.375H3.785L2.886,4.047v1.541L3.785,6.69h0.269c0.043,0.186,0.536,2.545-1.514,3.482
			C0.678,10.701-0.068,7.185,0.318,5.792z M-0.509,9.483l0.728,0.972l-0.908,0.246L-0.509,9.483z M-4.999,8.659c0,0,0,0.012,0,0.032
			c-0.522-0.138-0.907-0.734-0.907-1.443c0-0.813,0.513-1.473,1.142-1.473c0.63,0,1.138,0.661,1.138,1.473
			c0,0.665-0.349,1.22-0.811,1.411H-4.999z M-4.414,3.932c1.601,1.568,4.034,2.67,2.57,6.523c0,0-0.89,2.327-2.477-1.66
			c0.502-0.231,0.87-0.835,0.87-1.549c0-0.805-0.464-1.478-1.076-1.618C-4.527,5.39-4.495,4.478-4.414,3.932z M-5.399,2.585
			c0.203,0.447,0.486,0.85,0.835,1.194c-0.083,0.604-0.13,1.215-0.143,1.829c-0.019,0-0.04,0-0.063,0
			c-0.193,0.001-0.383,0.054-0.55,0.152c-0.052-0.583-0.404-1.522-0.542-1.873C-5.629,3.487-5.473,3.046-5.399,2.585z M-5.97,4.082
			c0.174,0.444,0.478,1.318,0.482,1.788c-0.391,0.35-0.609,0.853-0.596,1.376c0,0.8,0.455,1.467,1.058,1.617
			c-0.123,0.913-0.697,4.463-2.131,2.479C-8.871,8.105-6.998,5.919-5.97,4.082z M-8.043,11.453l0.488,0.483l-0.488,0.175V11.453z
			 M-11.195,11.305l-0.246,0.134c-0.069,0.02-0.139,0.029-0.211,0.032c-0.491,0-0.891-0.458-0.891-1.016
			c0-0.56,0.4-1.017,0.891-1.017c0.491,0,0.891,0.454,0.891,1.017c0.009,0.342-0.153,0.668-0.429,0.87L-11.195,11.305z
			 M-10.116,9.084c1.629,0.917,1.569,4.207,0.385,3.763c-1.077-0.405-1.209-0.759-1.409-1.355c0.346-0.229,0.551-0.62,0.545-1.034
			c0-0.657-0.48-1.189-1.067-1.189h-0.008l-0.103-1.236C-11.237,8.409-10.684,8.76-10.116,9.084z M-12.864,7.185
			c0,0,0.341,0.294,0.913,0.714l0.117,1.391c-0.12,0.023-0.231,0.066-0.334,0.132C-12.36,9.045-12.607,8.7-12.9,8.395
			C-12.848,7.994-12.837,7.588-12.864,7.185z M-12.792,13.72c-1.394-1.892-0.452-3.206-0.145-5.115
			c0.243,0.28,0.453,0.589,0.624,0.917c-0.263,0.239-0.411,0.578-0.407,0.934c0,0.657,0.479,1.188,1.067,1.188
			c0.098,0,0.191-0.016,0.282-0.045C-11.106,12.343-11.46,15.397-12.792,13.72z M-10.269,43.301
			c-0.051-0.567-0.028-1.143,0.06-1.705c0.184-1.095,0.565-2.148,1.12-3.11c0.533-0.943,1.189-1.812,1.951-2.584
			c0.039-0.033,0.094-0.027,0.124,0.008c0.025,0.031,0.028,0.076,0.005,0.107c-0.319,0.417-0.61,0.854-0.869,1.311
			c-0.268,0.448-0.505,0.914-0.714,1.391c-0.42,0.937-0.677,1.939-0.757,2.961c-0.036,0.493-0.004,0.991,0.094,1.477
			c0.101,0.477,0.244,0.941,0.428,1.394c0.347,0.908,0.869,1.756,1.432,2.699c0.022,0.039,0.011,0.089-0.029,0.112
			c-0.024,0.016-0.053,0.016-0.075,0c-0.51-0.242-0.97-0.573-1.363-0.976c-0.406-0.41-0.735-0.886-0.976-1.412
			C-10.085,44.449-10.229,43.882-10.269,43.301z M-0.745,56.533c0.001,0.021-0.014,0.033-0.032,0.038c0,0,0,0-0.001,0
			c-0.013,0-0.026-0.006-0.032-0.017c-0.466-0.717-0.99-1.389-1.567-2.018c-0.136-0.148-0.287-0.279-0.43-0.415
			c-0.149-0.123-0.3-0.24-0.46-0.349l-0.117-0.081c-0.041-0.021-0.082-0.043-0.125-0.068c-0.076-0.051-0.159-0.095-0.245-0.131
			c-0.083-0.035-0.173-0.073-0.251-0.111l-0.321-0.133c-0.423-0.183-0.832-0.4-1.217-0.655c-0.195-0.117-0.373-0.252-0.557-0.38
			c-0.186-0.126-0.359-0.271-0.522-0.417c-0.692-0.562-1.312-1.203-1.849-1.916c-0.009-0.011-0.009-0.023,0-0.035
			c0.008-0.005,0.018-0.005,0.028,0c0.779,0.428,1.523,0.87,2.273,1.3c0.373,0.212,0.747,0.416,1.12,0.609
			c0.373,0.192,0.747,0.371,1.123,0.523l0.287,0.11c0.115,0.047,0.23,0.1,0.349,0.151c0.112,0.058,0.222,0.117,0.326,0.187
			l0.159,0.091l0.148,0.111c0.381,0.293,0.714,0.646,0.98,1.044c0.26,0.385,0.469,0.799,0.631,1.232
			C-0.882,55.633-0.781,56.078-0.745,56.533z"/>
		
			<linearGradient id="SVGID_18_" gradientUnits="userSpaceOnUse" x1="-66.2136" y1="1129.1086" x2="-29.3353" y2="1204.2979" gradientTransform="matrix(1 0 0 1 66.4746 -1126.6533)">
			<stop  offset="0" style="stop-color:#2B3990"/>
			<stop  offset="0.1882" style="stop-color:#BE1E2D"/>
			<stop  offset="0.3011" style="stop-color:#BE1E2D"/>
			<stop  offset="0.414" style="stop-color:#2E3192"/>
			<stop  offset="0.5914" style="stop-color:#21409A"/>
			<stop  offset="0.7258" style="stop-color:#BE1E2D"/>
			<stop  offset="1" style="stop-color:#BE1E2D"/>
		</linearGradient>
		<path fill="url(#SVGID_18_)" d="M5.73,14.031c0.13-0.056,0.255-0.122,0.375-0.195l-0.481,0.088L5.73,14.031z"/>
		
			<linearGradient id="SVGID_19_" gradientUnits="userSpaceOnUse" x1="-68.5613" y1="1130.1174" x2="-31.2875" y2="1206.1129" gradientTransform="matrix(1 0 0 1 66.4746 -1126.6533)">
			<stop  offset="0" style="stop-color:#2B3990"/>
			<stop  offset="0.1882" style="stop-color:#BE1E2D"/>
			<stop  offset="0.3011" style="stop-color:#BE1E2D"/>
			<stop  offset="0.414" style="stop-color:#2E3192"/>
			<stop  offset="0.5914" style="stop-color:#21409A"/>
			<stop  offset="0.7258" style="stop-color:#BE1E2D"/>
			<stop  offset="1" style="stop-color:#BE1E2D"/>
		</linearGradient>
		<path fill="url(#SVGID_19_)" d="M3.174,14.058l0.233-0.151L2.58,13.739C2.768,13.867,2.966,13.973,3.174,14.058z"/>
	</g>
	<g>
		<path fill="#BE1E2D" d="M50.605,34.21c0.107,0.263,0.211,0.517,0.315,0.776c0.104-0.271,0.213-0.53,0.325-0.791
			c0.112-0.264,0.23-0.508,0.359-0.747l4.781-8.954c0.06-0.111,0.118-0.2,0.183-0.27c0.063-0.072,0.134-0.115,0.211-0.148
			c0.081-0.027,0.167-0.043,0.263-0.05c0.097-0.011,0.212-0.013,0.347-0.013h2.27v16.16h-2.65V29.736
			c0-0.194,0.002-0.408,0.018-0.637c0.008-0.231,0.024-0.467,0.05-0.708l-4.884,9.165c-0.112,0.21-0.255,0.371-0.435,0.487
			c-0.181,0.115-0.388,0.177-0.626,0.177h-0.414c-0.236,0-0.445-0.062-0.624-0.177c-0.182-0.116-0.325-0.278-0.436-0.487
			l-4.951-9.194c0.031,0.247,0.052,0.484,0.062,0.723c0.011,0.236,0.017,0.45,0.017,0.653v10.437h-2.649V24.016h2.268
			c0.133,0,0.252,0.002,0.35,0.011c0.097,0.007,0.181,0.028,0.259,0.055c0.081,0.032,0.154,0.075,0.219,0.146
			c0.068,0.067,0.13,0.155,0.192,0.271l4.827,8.969C50.38,33.704,50.494,33.953,50.605,34.21z"/>
		<path fill="#BE1E2D" d="M66.308,40.173h-3.017V24.016h3.017V40.173z"/>
		<path fill="#BE1E2D" d="M78.601,26.954c-0.082,0.159-0.178,0.279-0.285,0.345c-0.108,0.065-0.236,0.103-0.386,0.103
			c-0.151,0-0.315-0.06-0.502-0.172c-0.19-0.122-0.405-0.246-0.663-0.388c-0.253-0.141-0.547-0.271-0.888-0.385
			c-0.337-0.117-0.737-0.172-1.203-0.172c-0.417,0-0.779,0.048-1.088,0.151c-0.307,0.103-0.571,0.239-0.782,0.418
			c-0.211,0.178-0.372,0.394-0.474,0.643c-0.108,0.25-0.155,0.526-0.155,0.818c0,0.379,0.104,0.698,0.316,0.95
			c0.212,0.254,0.494,0.47,0.844,0.65c0.35,0.176,0.75,0.339,1.196,0.479c0.445,0.143,0.901,0.294,1.367,0.456
			c0.465,0.159,0.923,0.345,1.37,0.555c0.445,0.212,0.845,0.48,1.193,0.802c0.352,0.328,0.631,0.727,0.845,1.195
			c0.217,0.472,0.32,1.04,0.32,1.707c0,0.733-0.128,1.417-0.376,2.052c-0.251,0.639-0.615,1.19-1.096,1.665
			c-0.481,0.475-1.065,0.848-1.761,1.119c-0.689,0.274-1.485,0.405-2.377,0.405c-0.512,0-1.02-0.047-1.519-0.148
			c-0.501-0.1-0.979-0.242-1.438-0.431c-0.457-0.186-0.883-0.409-1.285-0.668c-0.396-0.263-0.753-0.551-1.067-0.873l0.871-1.443
			c0.081-0.104,0.182-0.191,0.295-0.265c0.119-0.068,0.243-0.104,0.387-0.104c0.188,0,0.385,0.078,0.605,0.23
			c0.215,0.155,0.469,0.321,0.765,0.508c0.293,0.187,0.641,0.352,1.038,0.508c0.396,0.153,0.876,0.233,1.435,0.233
			c0.858,0,1.522-0.205,1.992-0.61c0.469-0.41,0.703-0.987,0.703-1.75c0-0.426-0.108-0.77-0.319-1.042
			c-0.213-0.27-0.496-0.493-0.843-0.672c-0.352-0.184-0.748-0.339-1.196-0.468c-0.447-0.125-0.901-0.264-1.365-0.413
			c-0.463-0.147-0.918-0.33-1.365-0.534c-0.447-0.21-0.846-0.48-1.195-0.818c-0.351-0.339-0.631-0.751-0.843-1.255
			c-0.212-0.502-0.319-1.126-0.319-1.861c0-0.586,0.12-1.156,0.351-1.719c0.234-0.561,0.576-1.055,1.026-1.487
			c0.45-0.433,1.005-0.778,1.656-1.042c0.659-0.261,1.406-0.393,2.247-0.393c0.954,0,1.834,0.15,2.638,0.448
			c0.803,0.3,1.489,0.718,2.058,1.252L78.601,26.954z"/>
		<path fill="#BE1E2D" d="M90.591,26.954c-0.083,0.159-0.178,0.279-0.283,0.345c-0.11,0.065-0.239,0.103-0.388,0.103
			s-0.313-0.06-0.504-0.172c-0.186-0.122-0.407-0.246-0.658-0.388c-0.254-0.141-0.55-0.271-0.89-0.385
			c-0.34-0.117-0.735-0.172-1.202-0.172c-0.417,0-0.779,0.048-1.091,0.151c-0.31,0.103-0.568,0.239-0.781,0.418
			c-0.212,0.178-0.373,0.394-0.476,0.643c-0.101,0.25-0.155,0.526-0.155,0.818c0,0.379,0.104,0.698,0.316,0.95
			c0.217,0.254,0.495,0.47,0.846,0.65c0.35,0.176,0.747,0.339,1.194,0.479c0.448,0.143,0.905,0.294,1.371,0.456
			c0.462,0.159,0.918,0.345,1.366,0.555c0.446,0.212,0.845,0.48,1.193,0.802c0.352,0.328,0.631,0.727,0.846,1.195
			c0.215,0.472,0.318,1.04,0.318,1.707c0,0.733-0.122,1.417-0.373,2.052c-0.25,0.639-0.612,1.19-1.093,1.665
			c-0.483,0.475-1.069,0.848-1.76,1.119c-0.693,0.274-1.485,0.405-2.379,0.405c-0.514,0-1.021-0.047-1.52-0.148
			c-0.499-0.1-0.977-0.242-1.433-0.431c-0.46-0.186-0.889-0.409-1.288-0.668c-0.396-0.263-0.753-0.551-1.066-0.873l0.873-1.443
			c0.082-0.104,0.181-0.191,0.293-0.265c0.118-0.068,0.245-0.104,0.388-0.104c0.188,0,0.386,0.078,0.603,0.23
			c0.217,0.154,0.473,0.321,0.766,0.508c0.294,0.187,0.642,0.352,1.039,0.508c0.396,0.153,0.88,0.233,1.438,0.233
			c0.856,0,1.518-0.205,1.987-0.61c0.472-0.41,0.704-0.987,0.704-1.75c0-0.426-0.104-0.77-0.32-1.042
			c-0.212-0.27-0.493-0.493-0.843-0.672c-0.351-0.184-0.746-0.339-1.197-0.468c-0.444-0.125-0.898-0.264-1.363-0.413
			c-0.464-0.147-0.917-0.33-1.365-0.534c-0.447-0.21-0.847-0.48-1.195-0.818c-0.352-0.339-0.632-0.751-0.846-1.255
			c-0.211-0.502-0.315-1.126-0.315-1.861c0-0.586,0.116-1.156,0.352-1.719c0.236-0.561,0.575-1.055,1.025-1.487
			c0.449-0.433,1.002-0.778,1.663-1.042c0.653-0.261,1.402-0.393,2.247-0.393c0.951,0,1.831,0.15,2.633,0.448
			c0.806,0.3,1.492,0.718,2.059,1.252L90.591,26.954z"/>
		<path fill="#BE1E2D" d="M100.142,24.031c0.091,0.013,0.17,0.032,0.24,0.068c0.072,0.032,0.141,0.082,0.207,0.141
			c0.068,0.066,0.141,0.15,0.225,0.254l8.481,10.807c-0.027-0.264-0.049-0.516-0.061-0.766c-0.009-0.252-0.018-0.483-0.018-0.7
			v-9.82h2.647v16.157h-1.553c-0.238,0-0.434-0.037-0.59-0.111c-0.157-0.076-0.311-0.209-0.461-0.402l-8.445-10.764
			c0.021,0.239,0.039,0.478,0.05,0.711c0.01,0.234,0.016,0.448,0.016,0.643v9.923h-2.646V24.016h1.577
			C99.945,24.013,100.055,24.016,100.142,24.031z"/>
		<path fill="#BE1E2D" d="M125.321,24.013v2.386h-7.163v4.488h5.64v2.312h-5.64v4.569h7.163v2.405h-10.19V24.013H125.321z"/>
		<path fill="#BE1E2D" d="M131.031,34.487v5.688h-3.005V24.015h5.259c1.079,0,2.016,0.125,2.805,0.38
			c0.792,0.256,1.443,0.605,1.957,1.061c0.513,0.456,0.896,0.997,1.14,1.632c0.245,0.635,0.368,1.326,0.368,2.072
			c0,0.785-0.132,1.501-0.39,2.151c-0.264,0.653-0.655,1.214-1.175,1.683c-0.523,0.469-1.173,0.837-1.953,1.097
			c-0.782,0.259-1.7,0.392-2.755,0.392h-2.251V34.487z M131.031,32.135h2.254c0.555,0,1.036-0.07,1.444-0.204
			c0.411-0.14,0.747-0.338,1.016-0.594c0.27-0.257,0.47-0.57,0.604-0.938c0.132-0.367,0.201-0.78,0.201-1.235
			c0-0.427-0.069-0.82-0.201-1.174c-0.134-0.35-0.334-0.65-0.604-0.895c-0.269-0.245-0.606-0.432-1.016-0.564
			c-0.41-0.129-0.89-0.193-1.444-0.193h-2.254V32.135L131.031,32.135z"/>
		<path fill="#BE1E2D" d="M154.363,40.173h-2.323c-0.261,0-0.477-0.066-0.642-0.193c-0.168-0.128-0.29-0.295-0.365-0.488
			l-1.205-3.296h-6.694l-1.205,3.296c-0.061,0.175-0.175,0.328-0.353,0.469c-0.177,0.144-0.391,0.214-0.644,0.214h-2.335
			l6.348-16.156h3.072L154.363,40.173z M143.904,34.069h5.151l-1.966-5.375c-0.091-0.235-0.188-0.517-0.298-0.843
			c-0.104-0.326-0.216-0.673-0.317-1.056c-0.105,0.382-0.209,0.733-0.308,1.059c-0.101,0.33-0.199,0.617-0.298,0.862L143.904,34.069
			z"/>
		<path fill="#BE1E2D" d="M159.034,37.689h6.469v2.479h-9.479V24.013h3.01V37.689L159.034,37.689z"/>
	</g>
	<g>
		<path fill="#2B3990" d="M64.882,44.627c0.071,0.014,0.135,0.026,0.188,0.057c0.057,0.024,0.109,0.063,0.162,0.111
			c0.053,0.053,0.111,0.116,0.175,0.199l6.668,8.498c-0.025-0.206-0.039-0.406-0.046-0.603c-0.008-0.196-0.014-0.38-0.014-0.552
			v-7.72h2.082v12.705h-1.219c-0.189,0-0.344-0.028-0.468-0.09c-0.122-0.061-0.243-0.166-0.361-0.318l-6.641-8.463
			c0.019,0.191,0.031,0.375,0.04,0.561c0.007,0.184,0.013,0.354,0.013,0.507v7.804h-2.082V44.615h1.238
			C64.723,44.615,64.809,44.621,64.882,44.627z"/>
		<path fill="#2B3990" d="M88.85,50.968c0,0.932-0.155,1.793-0.464,2.584c-0.313,0.796-0.746,1.484-1.31,2.063
			c-0.565,0.579-1.24,1.032-2.031,1.358c-0.789,0.326-1.665,0.485-2.626,0.485c-0.962,0-1.838-0.161-2.631-0.485
			c-0.796-0.325-1.477-0.776-2.037-1.358c-0.565-0.581-1.005-1.268-1.315-2.063c-0.31-0.791-0.464-1.652-0.464-2.584
			c0-0.931,0.155-1.793,0.464-2.588c0.31-0.792,0.75-1.48,1.315-2.059c0.564-0.581,1.244-1.032,2.037-1.359
			c0.793-0.326,1.669-0.487,2.631-0.487c0.961,0,1.837,0.166,2.626,0.493c0.791,0.327,1.47,0.778,2.031,1.356
			c0.562,0.577,0.997,1.264,1.31,2.058C88.696,49.175,88.85,50.034,88.85,50.968z M86.426,50.968c0-0.699-0.093-1.322-0.278-1.876
			c-0.184-0.553-0.449-1.023-0.795-1.412c-0.344-0.385-0.767-0.68-1.26-0.887c-0.495-0.204-1.052-0.306-1.674-0.306
			c-0.621,0-1.179,0.102-1.678,0.306C80.243,47,79.818,47.295,79.47,47.68c-0.346,0.389-0.617,0.859-0.802,1.412
			c-0.187,0.554-0.28,1.177-0.28,1.876c0,0.694,0.094,1.324,0.28,1.878c0.187,0.553,0.457,1.021,0.802,1.406
			c0.347,0.382,0.772,0.676,1.271,0.881c0.5,0.204,1.059,0.309,1.678,0.309c0.621,0,1.178-0.104,1.674-0.309
			c0.495-0.205,0.916-0.499,1.26-0.881c0.346-0.386,0.611-0.854,0.795-1.406C86.333,52.291,86.426,51.662,86.426,50.968z"/>
		<path fill="#2B3990" d="M93.155,52.359v4.962h-2.362V44.617h3.874c0.867,0,1.608,0.088,2.228,0.269
			c0.619,0.177,1.126,0.428,1.521,0.752s0.683,0.706,0.87,1.156c0.186,0.449,0.279,0.941,0.279,1.479
			c0,0.426-0.063,0.829-0.188,1.211c-0.125,0.379-0.306,0.726-0.546,1.038c-0.236,0.311-0.529,0.579-0.876,0.816
			c-0.348,0.235-0.745,0.423-1.189,0.565c0.299,0.17,0.555,0.411,0.771,0.727l3.181,4.694h-2.125c-0.208,0-0.38-0.044-0.524-0.127
			c-0.145-0.079-0.265-0.194-0.366-0.349l-2.673-4.069c-0.099-0.152-0.21-0.262-0.326-0.325c-0.122-0.065-0.298-0.095-0.534-0.095
			L93.155,52.359L93.155,52.359z M93.155,50.661h1.476c0.446,0,0.833-0.056,1.167-0.168c0.332-0.11,0.603-0.267,0.819-0.462
			c0.214-0.194,0.374-0.427,0.477-0.7c0.105-0.271,0.157-0.566,0.157-0.89c0-0.643-0.212-1.134-0.636-1.483
			c-0.425-0.344-1.075-0.519-1.948-0.519h-1.512V50.661L93.155,50.661z"/>
		<path fill="#2B3990" d="M110.686,44.615v1.941h-3.822v10.762h-2.365V46.557h-3.839v-1.941H110.686L110.686,44.615z"/>
		<path fill="#2B3990" d="M122.907,57.319h-2.381v-5.551h-5.956v5.551h-2.382V44.615h2.382v5.466h5.956v-5.466h2.379v12.703H122.907
			z"/>
		<path fill="#2B3990" d="M140.033,57.319h-1.829c-0.205,0-0.374-0.052-0.505-0.152c-0.132-0.104-0.227-0.23-0.284-0.383
			l-0.947-2.592h-5.266l-0.949,2.592c-0.049,0.134-0.141,0.262-0.275,0.373c-0.135,0.11-0.305,0.165-0.504,0.165h-1.836
			l4.993-12.703h2.416L140.033,57.319z M131.807,52.523h4.051l-1.548-4.229c-0.07-0.188-0.148-0.407-0.231-0.664
			c-0.083-0.256-0.168-0.531-0.251-0.828c-0.08,0.299-0.163,0.575-0.24,0.83c-0.079,0.262-0.156,0.485-0.231,0.678L131.807,52.523z"
			/>
		<path fill="#2B3990" d="M147.997,52.631c0.086,0.206,0.165,0.408,0.251,0.612c0.079-0.212,0.165-0.418,0.256-0.624
			c0.087-0.204,0.18-0.399,0.275-0.586l3.764-7.036c0.047-0.09,0.093-0.158,0.145-0.213c0.05-0.053,0.106-0.093,0.168-0.113
			c0.063-0.026,0.128-0.038,0.207-0.044c0.077-0.009,0.166-0.009,0.273-0.009h1.783V57.32h-2.08v-8.207
			c0-0.153,0.003-0.316,0.016-0.502c0.008-0.181,0.021-0.362,0.036-0.553l-3.84,7.207c-0.087,0.164-0.202,0.291-0.342,0.38
			c-0.142,0.09-0.304,0.138-0.493,0.138h-0.324c-0.187,0-0.352-0.048-0.492-0.138c-0.141-0.089-0.256-0.218-0.342-0.38l-3.893-7.232
			c0.026,0.196,0.041,0.386,0.048,0.572c0.011,0.182,0.016,0.354,0.016,0.514v8.207h-2.081V44.618h1.78
			c0.109,0,0.203,0.003,0.276,0.013c0.075,0.002,0.144,0.018,0.207,0.042c0.062,0.021,0.117,0.059,0.173,0.114
			c0.052,0.052,0.104,0.123,0.15,0.21l3.794,7.056C147.82,52.235,147.91,52.431,147.997,52.631z"/>
		<path fill="#2B3990" d="M165.698,44.615v1.878h-5.631v3.524h4.438v1.818h-4.438v3.597h5.631v1.886h-8.016V44.615H165.698
			L165.698,44.615z"/>
		<path fill="#2B3990" d="M170.186,52.359v4.962h-2.366V44.617h3.875c0.869,0,1.615,0.088,2.23,0.269
			c0.618,0.177,1.126,0.428,1.521,0.752c0.396,0.324,0.685,0.706,0.872,1.156c0.182,0.449,0.274,0.941,0.274,1.479
			c0,0.426-0.063,0.829-0.189,1.211c-0.124,0.379-0.307,0.726-0.543,1.038c-0.236,0.311-0.528,0.579-0.878,0.816
			c-0.347,0.234-0.746,0.423-1.192,0.565c0.301,0.17,0.56,0.411,0.777,0.727l3.178,4.694h-2.126c-0.204,0-0.379-0.044-0.524-0.127
			c-0.144-0.079-0.265-0.194-0.366-0.349l-2.672-4.069c-0.099-0.152-0.21-0.262-0.328-0.325c-0.12-0.065-0.298-0.095-0.532-0.095
			L170.186,52.359L170.186,52.359z M170.186,50.661h1.477c0.445,0,0.831-0.056,1.163-0.168c0.333-0.11,0.604-0.267,0.819-0.462
			c0.217-0.194,0.376-0.427,0.479-0.7c0.102-0.271,0.157-0.566,0.157-0.89c0-0.643-0.215-1.134-0.64-1.483
			c-0.422-0.344-1.073-0.519-1.944-0.519h-1.511L170.186,50.661L170.186,50.661z"/>
		<path fill="#2B3990" d="M181.915,57.319h-2.375V44.615h2.372L181.915,57.319L181.915,57.319z"/>
		<path fill="#2B3990" d="M193.505,54.326c0.128,0,0.239,0.049,0.333,0.146l0.932,1.015c-0.518,0.636-1.147,1.127-1.9,1.468
			c-0.758,0.34-1.661,0.51-2.715,0.51c-0.942,0-1.789-0.162-2.542-0.483c-0.756-0.323-1.396-0.772-1.929-1.345
			c-0.533-0.574-0.942-1.259-1.227-2.054c-0.282-0.799-0.425-1.671-0.425-2.612c0-0.953,0.16-1.828,0.473-2.625
			c0.32-0.793,0.764-1.477,1.336-2.052c0.575-0.574,1.262-1.021,2.06-1.341c0.802-0.32,1.685-0.476,2.651-0.476
			c0.943,0,1.768,0.149,2.475,0.451c0.709,0.304,1.312,0.705,1.814,1.2l-0.789,1.099c-0.047,0.071-0.105,0.129-0.181,0.182
			c-0.074,0.051-0.175,0.08-0.303,0.08c-0.133,0-0.274-0.052-0.414-0.159c-0.14-0.104-0.32-0.22-0.534-0.339
			c-0.218-0.125-0.488-0.236-0.823-0.343c-0.33-0.104-0.75-0.155-1.26-0.155c-0.598,0-1.146,0.1-1.647,0.312
			c-0.501,0.211-0.93,0.506-1.293,0.89c-0.358,0.385-0.642,0.857-0.842,1.411s-0.303,1.175-0.303,1.87
			c0,0.714,0.101,1.348,0.303,1.905c0.203,0.559,0.477,1.026,0.821,1.404c0.35,0.379,0.755,0.676,1.225,0.876
			c0.469,0.201,0.975,0.302,1.511,0.302c0.324,0,0.615-0.017,0.873-0.051c0.263-0.034,0.505-0.093,0.723-0.168
			c0.222-0.078,0.427-0.173,0.625-0.293c0.197-0.123,0.389-0.27,0.586-0.444c0.058-0.054,0.118-0.095,0.181-0.128
			C193.359,54.34,193.429,54.326,193.505,54.326z"/>
		<path fill="#2B3990" d="M207.721,57.319h-1.827c-0.204,0-0.374-0.052-0.505-0.152c-0.131-0.104-0.225-0.23-0.285-0.383
			l-0.947-2.592h-5.263l-0.948,2.592c-0.049,0.134-0.141,0.262-0.276,0.373c-0.138,0.11-0.307,0.165-0.507,0.165h-1.837
			l4.993-12.703h2.419L207.721,57.319z M199.495,52.523h4.051l-1.548-4.229c-0.071-0.188-0.147-0.407-0.232-0.664
			c-0.083-0.256-0.168-0.531-0.251-0.828c-0.081,0.299-0.159,0.575-0.239,0.83c-0.077,0.262-0.157,0.485-0.229,0.678L199.495,52.523
			z"/>
	</g>
</g>
</svg>
