<?xml version="1.0" encoding="utf-8"?>
<!-- Generator: Adobe Illustrator 16.0.0, SVG Export Plug-In . SVG Version: 6.00 Build 0)  -->
<!DOCTYPE svg PUBLIC "-//W3C//DTD SVG 1.1//EN" "http://www.w3.org/Graphics/SVG/1.1/DTD/svg11.dtd">
<svg version="1.1" id="Layer_1" xmlns="http://www.w3.org/2000/svg" xmlns:xlink="http://www.w3.org/1999/xlink" x="0px" y="0px"
	 width="174.667px" height="170.91px" viewBox="0 0 174.667 170.91" enable-background="new 0 0 174.667 170.91"
	 xml:space="preserve">
<g>
	<linearGradient id="SVGID_1_" gradientUnits="userSpaceOnUse" x1="93.9063" y1="9.2539" x2="156.5297" y2="136.9331">
		<stop  offset="0" style="stop-color:#2B3990"/>
		<stop  offset="0.1882" style="stop-color:#BE1E2D"/>
		<stop  offset="0.3011" style="stop-color:#BE1E2D"/>
		<stop  offset="0.414" style="stop-color:#2E3192"/>
		<stop  offset="0.5914" style="stop-color:#21409A"/>
		<stop  offset="0.7258" style="stop-color:#BE1E2D"/>
		<stop  offset="1" style="stop-color:#BE1E2D"/>
	</linearGradient>
	<path fill="url(#SVGID_1_)" d="M122.936,53.75c0.058,1.41,0.031,2.822-0.078,4.229c-0.061,0.703-0.169,1.401-0.329,2.089
		c-0.158,0.702-0.355,1.395-0.587,2.077c-0.226,0.685-0.495,1.354-0.785,2.013c-0.298,0.657-0.638,1.294-1.021,1.907l-1.242,1.972
		c-0.441,0.697-0.828,1.43-1.151,2.189c-0.643,1.517-0.975,3.147-0.974,4.793c0.009,1.597,0.336,3.175,0.961,4.644l0.063-0.018
		c-0.313-1.498-0.35-3.041-0.106-4.551c0.254-1.458,0.779-2.853,1.548-4.115c0.737-1.231,1.802-2.286,2.829-3.526
		c0.258-0.312,0.514-0.635,0.761-0.973c0.247-0.338,0.485-0.703,0.698-1.056c0.436-0.712,0.818-1.454,1.147-2.221
		c0.328-0.765,0.609-1.55,0.837-2.351c0.24-0.813,0.42-1.641,0.538-2.48c0.264-1.683,0.188-3.401-0.22-5.054
		c-0.396-1.626-1.053-3.177-1.946-4.594c-0.832-1.402-1.941-2.622-3.257-3.585l-0.019,0.018c0.706,1.364,1.259,2.803,1.647,4.29
		C122.631,50.853,122.861,52.295,122.936,53.75z"/>
	<linearGradient id="SVGID_2_" gradientUnits="userSpaceOnUse" x1="29.0313" y1="41.082" x2="91.6489" y2="168.7495">
		<stop  offset="0" style="stop-color:#2B3990"/>
		<stop  offset="0.1882" style="stop-color:#BE1E2D"/>
		<stop  offset="0.3011" style="stop-color:#BE1E2D"/>
		<stop  offset="0.414" style="stop-color:#2E3192"/>
		<stop  offset="0.5914" style="stop-color:#21409A"/>
		<stop  offset="0.7258" style="stop-color:#BE1E2D"/>
		<stop  offset="1" style="stop-color:#BE1E2D"/>
	</linearGradient>
	<path fill="url(#SVGID_2_)" d="M68.891,112.819c4.37,8.978-4.265,12.519-3.876,13.102
		C78.998,122.027,68.891,112.819,68.891,112.819z"/>
	<linearGradient id="SVGID_3_" gradientUnits="userSpaceOnUse" x1="87.6289" y1="12.3384" x2="150.2487" y2="140.0101">
		<stop  offset="0" style="stop-color:#2B3990"/>
		<stop  offset="0.1882" style="stop-color:#BE1E2D"/>
		<stop  offset="0.3011" style="stop-color:#BE1E2D"/>
		<stop  offset="0.414" style="stop-color:#2E3192"/>
		<stop  offset="0.5914" style="stop-color:#21409A"/>
		<stop  offset="0.7258" style="stop-color:#BE1E2D"/>
		<stop  offset="1" style="stop-color:#BE1E2D"/>
	</linearGradient>
	<path fill="url(#SVGID_3_)" d="M117.455,84.111c0,0,14.107,0.699,5.804-8.855C123.264,75.256,128.689,83.537,117.455,84.111z"/>
	<linearGradient id="SVGID_4_" gradientUnits="userSpaceOnUse" x1="84.9077" y1="13.6685" x2="147.5306" y2="141.3464">
		<stop  offset="0" style="stop-color:#2B3990"/>
		<stop  offset="0.1882" style="stop-color:#BE1E2D"/>
		<stop  offset="0.3011" style="stop-color:#BE1E2D"/>
		<stop  offset="0.414" style="stop-color:#2E3192"/>
		<stop  offset="0.5914" style="stop-color:#21409A"/>
		<stop  offset="0.7258" style="stop-color:#BE1E2D"/>
		<stop  offset="1" style="stop-color:#BE1E2D"/>
	</linearGradient>
	<path fill="url(#SVGID_4_)" d="M120.164,88.009c-9.155,0-13.308-12.753-13.308-12.753c-0.799,16.556,10.336,16.856,10.336,16.856
		c15.868-0.294,10.923-14.305,10.923-14.305S129.317,88.009,120.164,88.009z"/>
	<linearGradient id="SVGID_5_" gradientUnits="userSpaceOnUse" x1="85.1196" y1="13.5635" x2="147.7435" y2="141.2436">
		<stop  offset="0" style="stop-color:#2B3990"/>
		<stop  offset="0.1882" style="stop-color:#BE1E2D"/>
		<stop  offset="0.3011" style="stop-color:#BE1E2D"/>
		<stop  offset="0.414" style="stop-color:#2E3192"/>
		<stop  offset="0.5914" style="stop-color:#21409A"/>
		<stop  offset="0.7258" style="stop-color:#BE1E2D"/>
		<stop  offset="1" style="stop-color:#BE1E2D"/>
	</linearGradient>
	<path fill="url(#SVGID_5_)" d="M114.46,96.515c27.761,4.994,16.056-13.357,16.056-13.357
		C131.47,95.865,114.46,96.515,114.46,96.515z"/>
	<linearGradient id="SVGID_6_" gradientUnits="userSpaceOnUse" x1="79.9399" y1="16.0972" x2="142.568" y2="143.7858">
		<stop  offset="0" style="stop-color:#2B3990"/>
		<stop  offset="0.1882" style="stop-color:#BE1E2D"/>
		<stop  offset="0.3011" style="stop-color:#BE1E2D"/>
		<stop  offset="0.414" style="stop-color:#2E3192"/>
		<stop  offset="0.5914" style="stop-color:#21409A"/>
		<stop  offset="0.7258" style="stop-color:#BE1E2D"/>
		<stop  offset="1" style="stop-color:#BE1E2D"/>
	</linearGradient>
	<path fill="url(#SVGID_6_)" d="M126.414,99.215c-7.554,1.402-16.204,0-16.204,0c4.1,1.764-0.294,0.588,11.461,2.801
		s9.347,9.922,9.347,9.922C134.919,107.119,133.97,97.831,126.414,99.215z"/>
	<linearGradient id="SVGID_7_" gradientUnits="userSpaceOnUse" x1="54.063" y1="28.7939" x2="116.6875" y2="156.4752">
		<stop  offset="0" style="stop-color:#2B3990"/>
		<stop  offset="0.1882" style="stop-color:#BE1E2D"/>
		<stop  offset="0.3011" style="stop-color:#BE1E2D"/>
		<stop  offset="0.414" style="stop-color:#2E3192"/>
		<stop  offset="0.5914" style="stop-color:#21409A"/>
		<stop  offset="0.7258" style="stop-color:#BE1E2D"/>
		<stop  offset="1" style="stop-color:#BE1E2D"/>
	</linearGradient>
	<path fill="url(#SVGID_7_)" d="M106.356,150.728c0,0,15.909-3.701,7.752-14.105c0,0-1.148-1.95-7.552-3.351
		c-6.403-1.398-9.991-6.009-10.757-8.604c0,0-2.35,8.204,9.156,12.405C116.46,141.276,106.356,150.728,106.356,150.728z"/>
	<linearGradient id="SVGID_8_" gradientUnits="userSpaceOnUse" x1="66.0967" y1="22.9058" x2="128.7152" y2="150.5749">
		<stop  offset="0" style="stop-color:#2B3990"/>
		<stop  offset="0.1882" style="stop-color:#BE1E2D"/>
		<stop  offset="0.3011" style="stop-color:#BE1E2D"/>
		<stop  offset="0.414" style="stop-color:#2E3192"/>
		<stop  offset="0.5914" style="stop-color:#21409A"/>
		<stop  offset="0.7258" style="stop-color:#BE1E2D"/>
		<stop  offset="1" style="stop-color:#BE1E2D"/>
	</linearGradient>
	<path fill="url(#SVGID_8_)" d="M115.61,135.833c8.152,10.404,11.207-1.103,11.207-1.103
		C122.714,143.184,115.61,135.833,115.61,135.833z"/>
	<linearGradient id="SVGID_9_" gradientUnits="userSpaceOnUse" x1="52.4795" y1="29.5605" x2="115.1087" y2="157.2515">
		<stop  offset="0" style="stop-color:#2B3990"/>
		<stop  offset="0.1882" style="stop-color:#BE1E2D"/>
		<stop  offset="0.3011" style="stop-color:#BE1E2D"/>
		<stop  offset="0.414" style="stop-color:#2E3192"/>
		<stop  offset="0.5914" style="stop-color:#21409A"/>
		<stop  offset="0.7258" style="stop-color:#BE1E2D"/>
		<stop  offset="1" style="stop-color:#BE1E2D"/>
	</linearGradient>
	<path fill="url(#SVGID_9_)" d="M103.757,152.491c1.248,3.801,7.641,2.203,7.641,2.203c7.503-3.604,6.554-10.107,6.554-10.107
		C114.26,157.24,103.757,152.491,103.757,152.491z"/>
	<linearGradient id="SVGID_10_" gradientUnits="userSpaceOnUse" x1="66.5596" y1="22.6655" x2="129.1839" y2="150.3466">
		<stop  offset="0" style="stop-color:#2B3990"/>
		<stop  offset="0.1882" style="stop-color:#BE1E2D"/>
		<stop  offset="0.3011" style="stop-color:#BE1E2D"/>
		<stop  offset="0.414" style="stop-color:#2E3192"/>
		<stop  offset="0.5914" style="stop-color:#21409A"/>
		<stop  offset="0.7258" style="stop-color:#BE1E2D"/>
		<stop  offset="1" style="stop-color:#BE1E2D"/>
	</linearGradient>
	<path fill="url(#SVGID_10_)" d="M115.962,102.01c-11.655-0.905-10.848-4.946-10.848-4.946c-3.051,3.354,2.201,8.654,8.205,10.579
		c4.754,1.538,6.464,2.624,6.968,3.011c-0.443-0.209-1.963-0.589-7.116-0.944c-7.505-0.502-9.805-4.701-9.805-4.701
		c-4.997-10.107,3.698-9.205,3.698-9.205c-8.151-2.057-7.451-8.704-7.451-8.704c9.503,15.005,21.607,5.451,21.607,5.451
		c-5.104,0.703-17.305,1.502-17.206-22.208c0.101-23.709-16.13-24.862-16.13-24.862c11.579,5.052,10.83,14.256,10.83,14.256
		C93.41,48.331,76.703,40.828,76.703,40.828s-1.499,5.102,6.153,10.657c7.653,5.554,7.728,15.004,5.851,19.507
		c-1.878,4.502-1.813,6.991-1.813,6.991c-0.526,11.928,13.354,16.13,13.354,16.13c-10.13,10.873-2.201,17.556-2.201,17.556
		c0.853,7.406,4.352,9.757,4.352,9.757c-7.502-0.753-8.201-9.109-8.201-9.109c-1.653,11.354,5.401,19.657,14.056,19.207
		c8.654-0.449,11.167,3.954,11.167,3.954c-0.25-6.805-4.853-9.205-4.853-9.205c7.104,1.647,5.905,11.353,5.905,11.353
		c3.251-6.151,2.001-9.805,2.001-9.805c1.648-3.349,4.802-8.503,6.553-13.906C130.778,108.51,127.616,102.918,115.962,102.01z
		 M89.501,76.205h0.012c1.081-4.147,1.62-8.417,1.599-12.705c0,0,1.201,1.625,0.401,10.104c-1.4,8.655,1.251,11.905,1.251,11.905
		S87.688,83.267,89.501,76.205z M121.966,126.877c0,0-2.539-3.651-8.999-5.052c-6.46-1.397-8.462-5.605-9.21-6.95
		c3.378,1.598,6.991,2.645,10.703,3.1C120.463,118.673,122.964,122.676,121.966,126.877z M123.712,118.124
		c0,0-3.798-3.151-13.202-3.501c-9.404-0.349-9.604-9.124-9.604-9.124s2.301,6.12,12.804,8.322
		C124.214,116.023,123.712,118.124,123.712,118.124z"/>
	<linearGradient id="SVGID_11_" gradientUnits="userSpaceOnUse" x1="54.3887" y1="28.6353" x2="117.013" y2="156.3162">
		<stop  offset="0" style="stop-color:#2B3990"/>
		<stop  offset="0.1882" style="stop-color:#BE1E2D"/>
		<stop  offset="0.3011" style="stop-color:#BE1E2D"/>
		<stop  offset="0.414" style="stop-color:#2E3192"/>
		<stop  offset="0.5914" style="stop-color:#21409A"/>
		<stop  offset="0.7258" style="stop-color:#BE1E2D"/>
		<stop  offset="1" style="stop-color:#BE1E2D"/>
	</linearGradient>
	<path fill="url(#SVGID_11_)" d="M83.053,74.821c0,0-2.457-6.545-10.148-2.466c0,0,0.612,0.323,2.14-0.15
		c0,0-0.652,1.525-3.604,0.699c0.039,0.25,0.19,0.468,0.413,0.588c0,0-0.947,0.206-1.576-0.294c0,0,0.415,2.081,3.215,2.257
		c-0.354,0.505-0.838,0.903-1.401,1.152c0.774,0,1.545-0.11,2.289-0.327c-0.137,0.43-0.438,0.79-0.837,1
		c0.679,0.038,1.354-0.141,1.925-0.511c0,0,0.214,0.361-0.262,1.063c0.594,0,1.174-0.17,1.675-0.488
		c1.446,0.238,2.931,0.056,4.276-0.526c0,0,0.208-0.294,1.989-0.338c0,0,0.864-0.227-0.167-0.992
		c-1.032-0.768-1.353-1.746-2.178-2.328C80.802,73.161,81.552,73.161,83.053,74.821z M79.526,74.797c0.006,0,0.014,0,0.021,0
		L79.526,74.797c0.278,0,0.502,0.225,0.502,0.503c0,0.277-0.225,0.503-0.502,0.503c-0.277,0-0.502-0.226-0.502-0.503
		C79.024,75.022,79.249,74.797,79.526,74.797z M82.034,76.005h-0.007c-0.704,0.115-1.38,0.353-2.001,0.703
		c-3.712,1.349-5.613-1.628-5.613-1.628c0.396-0.115,0.799-0.2,1.208-0.256c0.427,1.339,1.857,2.079,3.197,1.652
		c0.914-0.292,1.586-1.072,1.739-2.019C83.1,75.626,82.034,76.005,82.034,76.005z"/>
	<linearGradient id="SVGID_12_" gradientUnits="userSpaceOnUse" x1="56.7344" y1="27.5239" x2="119.3257" y2="155.1377">
		<stop  offset="0" style="stop-color:#2B3990"/>
		<stop  offset="0.1882" style="stop-color:#BE1E2D"/>
		<stop  offset="0.3011" style="stop-color:#BE1E2D"/>
		<stop  offset="0.414" style="stop-color:#2E3192"/>
		<stop  offset="0.5914" style="stop-color:#21409A"/>
		<stop  offset="0.7258" style="stop-color:#BE1E2D"/>
		<stop  offset="1" style="stop-color:#BE1E2D"/>
	</linearGradient>
	<path fill="url(#SVGID_12_)" d="M86.7,88.923c1.725-0.388,0.549-1.136-0.626-1.063c-0.967,0.018-0.45,0.525-0.45,0.525
		C85.972,88.763,86.242,89.016,86.7,88.923z"/>
	<linearGradient id="SVGID_13_" gradientUnits="userSpaceOnUse" x1="55.5156" y1="28.0869" x2="118.1366" y2="155.761">
		<stop  offset="0" style="stop-color:#2B3990"/>
		<stop  offset="0.1882" style="stop-color:#BE1E2D"/>
		<stop  offset="0.3011" style="stop-color:#BE1E2D"/>
		<stop  offset="0.414" style="stop-color:#2E3192"/>
		<stop  offset="0.5914" style="stop-color:#21409A"/>
		<stop  offset="0.7258" style="stop-color:#BE1E2D"/>
		<stop  offset="1" style="stop-color:#BE1E2D"/>
	</linearGradient>
	<path fill="url(#SVGID_13_)" d="M92.921,95.774c-1.333-0.543-2.007-0.261-2.25-0.095c-0.244,0.168-1.37,0.788-2.351,0.295
		c-0.668-0.302-1.396-0.444-2.128-0.418c-3.176,0.506-1.426,1.421-1.426,1.421c3.464,2.611,6.947,1.604,8.148,0.611
		C93.902,96.532,94.242,96.327,92.921,95.774z M92.884,96.964V96.95c-1.015,0.863-1.764,0.529-1.955,0.449
		c-1.015-0.449,0.208-1.574,0.753-1.574C92.224,95.825,93.895,96.103,92.884,96.964z"/>
	<linearGradient id="SVGID_14_" gradientUnits="userSpaceOnUse" x1="56.4644" y1="27.606" x2="119.0971" y2="155.3042">
		<stop  offset="0" style="stop-color:#2B3990"/>
		<stop  offset="0.1882" style="stop-color:#BE1E2D"/>
		<stop  offset="0.3011" style="stop-color:#BE1E2D"/>
		<stop  offset="0.414" style="stop-color:#2E3192"/>
		<stop  offset="0.5914" style="stop-color:#21409A"/>
		<stop  offset="0.7258" style="stop-color:#BE1E2D"/>
		<stop  offset="1" style="stop-color:#BE1E2D"/>
	</linearGradient>
	<path fill="url(#SVGID_14_)" d="M82.779,95.04c0.882,0.825,2.028,0.376,2.028,0.376c0.999-0.726,2.375-1.052,3.077-0.626
		c0.721,0.465,1.619,0.565,2.423,0.272c0.851-0.322,2.002,0,2.002,0c0.979,0.593,2.185,0.672,3.232,0.215
		c0.615-0.264,1.038-1.09-0.26-1.175c-0.792-0.059-1.524-0.438-2.028-1.049c-1.898-1.929-2.751-1.054-3.201-0.802
		c-0.449,0.249-0.798,0.449-1.401,0.025c-0.603-0.423-1.349-0.802-2.451,0c-1.102,0.802-1.924,1.498-3.1,1.764
		C81.925,94.305,82.779,95.04,82.779,95.04z M91.343,92.65h0.01c1.557,0.244,2.084,1.032,1.219,1.446
		c-0.863,0.414-1.875-0.658-1.875-0.658S89.788,92.406,91.343,92.65z"/>
	<linearGradient id="SVGID_15_" gradientUnits="userSpaceOnUse" x1="84.9683" y1="13.6367" x2="147.5959" y2="141.3245">
		<stop  offset="0" style="stop-color:#2B3990"/>
		<stop  offset="0.1882" style="stop-color:#BE1E2D"/>
		<stop  offset="0.3011" style="stop-color:#BE1E2D"/>
		<stop  offset="0.414" style="stop-color:#2E3192"/>
		<stop  offset="0.5914" style="stop-color:#21409A"/>
		<stop  offset="0.7258" style="stop-color:#BE1E2D"/>
		<stop  offset="1" style="stop-color:#BE1E2D"/>
	</linearGradient>
	<path fill="url(#SVGID_15_)" d="M88.07,26.572l1.516,1.858h2.179l1.515-1.858v-2.603l-1.515-1.86h-2.179l-1.516,1.86V26.572z
		 M88.363,24.075l1.363-1.671h1.895l1.358,1.666v2.393l-1.363,1.669h-1.896l-1.357-1.664V24.075z"/>
	<linearGradient id="SVGID_16_" gradientUnits="userSpaceOnUse" x1="78.6748" y1="16.7246" x2="141.2963" y2="144.3998">
		<stop  offset="0" style="stop-color:#2B3990"/>
		<stop  offset="0.1882" style="stop-color:#BE1E2D"/>
		<stop  offset="0.3011" style="stop-color:#BE1E2D"/>
		<stop  offset="0.414" style="stop-color:#2E3192"/>
		<stop  offset="0.5914" style="stop-color:#21409A"/>
		<stop  offset="0.7258" style="stop-color:#BE1E2D"/>
		<stop  offset="1" style="stop-color:#BE1E2D"/>
	</linearGradient>
	<path fill="url(#SVGID_16_)" d="M83.955,28.43l1.517-1.858v-2.603l-1.517-1.86h-2.174l-1.52,1.86v2.603l1.52,1.858H83.955z
		 M80.541,24.069l1.357-1.666h1.896l1.37,1.666v2.393l-1.364,1.669h-1.901l-1.363-1.669L80.541,24.069z"/>
	<linearGradient id="SVGID_17_" gradientUnits="userSpaceOnUse" x1="71.7236" y1="20.1338" x2="134.3472" y2="147.8131">
		<stop  offset="0" style="stop-color:#2B3990"/>
		<stop  offset="0.1882" style="stop-color:#BE1E2D"/>
		<stop  offset="0.3011" style="stop-color:#BE1E2D"/>
		<stop  offset="0.414" style="stop-color:#2E3192"/>
		<stop  offset="0.5914" style="stop-color:#21409A"/>
		<stop  offset="0.7258" style="stop-color:#BE1E2D"/>
		<stop  offset="1" style="stop-color:#BE1E2D"/>
	</linearGradient>
	<path fill="url(#SVGID_17_)" d="M67.636,83.847c-0.199-3.54,0.428-7.69,2.557-12.394c1.011-1.839,1.889-3.527,2.645-5.096
		c0.036,0.013,0.076,0.013,0.112,0h0.023c0.807-0.209,1.65-0.239,2.468-0.085c0.787,0.15,1.542,0.435,2.233,0.84
		c0.703,0.406,1.364,0.878,1.976,1.411c0.293,0.294,0.608,0.561,0.911,0.846c0.302,0.286,0.587,0.606,0.896,0.882l0.056,0.05
		c0.391,0.29,0.944,0.207,1.232-0.184c0.216-0.291,0.232-0.685,0.04-0.992c-0.293-0.367-0.587-0.717-0.899-1.069
		s-0.684-0.65-1.04-0.96c-0.188-0.145-0.382-0.294-0.588-0.424c-0.188-0.145-0.384-0.278-0.588-0.399
		c-0.211-0.121-0.423-0.235-0.635-0.35c-0.211-0.115-0.447-0.197-0.667-0.294l-0.329-0.123l-0.356-0.1
		c-0.233-0.075-0.472-0.132-0.714-0.171c-0.484-0.088-0.978-0.119-1.469-0.091c-0.88,0.039-1.732,0.32-2.463,0.812
		c6.492-13.38,4.358-16.71,4.358-16.71c-3.503,12.343-11.167,18.864-11.62,19.396c3.752-4.578,6.13-10.84,6.13-10.84
		C54.274,69.655,56.51,81.962,56.51,81.962c-4.426-8.181,1.238-17.75,1.238-17.75c-1.097,0.939-1.911,2.166-2.352,3.541
		c-1.71-18.608,12.193-27.312,12.193-27.312c-9.504,9.11-8.252,22.484-8.252,22.484c1.951-2.645,5.583-3.85,5.583-3.85
		c6.903-2.028,8.928-8.405,8.928-8.405c3.976-16.356-2.778-15.869-2.778-15.869c1.091-1.014,3.454-1.049,3.454-1.049
		c-0.196,0.797-0.118,1.639,0.223,2.385c5.404,6.504,13.157,7.104,13.157,7.104c17.708,2.301,18.409,17.782,18.409,17.782
		c4.302,22.284,12.204,21.485,12.204,21.485c-6.703-3.952-0.798-14.456-0.798-14.456c9.603-20.009-3.604-28.505-3.604-28.505
		c0.699-0.35,1.347-1.015,1.876-1.57c1.243-1.256,2.086-2.853,2.424-4.587c0.152-0.977,0.115-1.975-0.107-2.939
		c-0.216-1.067-0.567-2.119-0.824-3.215c-0.159-0.692-0.278-1.393-0.356-2.098c-0.056-0.473-0.097-0.949-0.132-1.426
		c-0.015-0.181-0.133-0.835-0.17-1.314l0.367,1.382l0.42-1.784l1.29,1.296l-0.529-1.752l1.771,0.477l-1.335-1.252l1.769-0.473
		l-1.784-0.417l1.297-1.293l-1.75,0.529l0.475-1.766l-1.254,1.334l-0.472-1.769l-0.417,1.784l-1.293-1.299l0.528,1.754l-1.765-0.476
		l1.335,1.252l-1.771,0.47l1.78,0.421l-1.295,1.292l1.754-0.532l-0.414,1.532c-0.873,0.761-2.013,1.677-2.914,2.13
		c-1.7,0.852-2.506,1.499-3.505,2.75c0.295-0.37-0.111-1.833-0.188-2.213c-0.772-3.774-3.579-6.953-4.444-10.679l0.399-1.705
		l1.295,1.296l-0.529-1.754l1.766,0.479l-1.334-1.255l1.77-0.47l-1.781-0.417l1.296-1.294l-1.755,0.53l0.479-1.77l-1.255,1.337
		l-0.471-1.772l-0.42,1.784l-1.29-1.296l0.529,1.751l-1.77-0.476l1.335,1.254l-1.77,0.471l1.784,0.417l-1.299,1.293l1.754-0.528
		l-0.469,1.743c-1.056,1.44-2.246,2.779-3.581,3.972c-1.363,1.189-2.456,2.655-3.209,4.3c0,0-0.354-3.657-4.758-9.499
		c-2.405-3.19-3.43-5.457-3.871-6.862l1.194,1.199l-0.529-1.754l1.77,0.476l-1.338-1.252l1.772-0.471l-1.784-0.42l1.296-1.293
		l-1.751,0.532l0.476-1.769L87.179,3.21l-0.47-1.77l-0.417,1.784l-1.294-1.299l0.529,1.754l-1.769-0.476l1.337,1.252l-1.77,0.473
		l1.781,0.417L83.812,6.64l1.751-0.532l-0.477,1.77l1.255-1.335l0.085,0.322c-0.63,1.632-1.939,4.213-4.632,7.507
		c-4.805,5.877-4.011,8.463-4.011,8.463s-2.389-3.353-4.79-5.504c-1.228-1.1-1.997-2.565-2.457-3.734l1.091,1.093l-0.53-1.754
		l1.767,0.479l-1.334-1.255l1.769-0.47l-1.784-0.417l1.299-1.294l-1.755,0.53l0.479-1.77l-1.254,1.337l-0.471-1.772l-0.419,1.784
		l-1.294-1.296l0.532,1.751l-1.77-0.476l1.334,1.254l-1.769,0.471l1.784,0.417l-1.296,1.293l1.751-0.528l-0.476,1.769l1.252-1.338
		l0.079,0.295c-0.304,1.135-0.812,2.572-1.64,3.881c-1.707,2.701-3.993,7.104-3.294,10.309c-0.018-0.088-0.265-0.244-0.326-0.294
		c-0.32-0.294-0.653-0.549-0.99-0.808c-0.747-0.573-1.532-1.093-2.352-1.558c-0.755-0.375-1.467-0.834-2.121-1.367
		c-0.57-0.505-1.045-1.106-1.402-1.775l0.021-0.091l1.293,1.296l-0.528-1.752l1.77,0.477l-1.337-1.252l1.769-0.473l-1.78-0.417
		l1.295-1.293l-1.751,0.529l0.476-1.766l-1.254,1.334l-0.47-1.769l-0.417,1.784l-1.293-1.299l0.53,1.754l-1.77-0.476l1.337,1.252
		l-1.772,0.47l1.784,0.421l-1.295,1.292l1.751-0.532l-0.477,1.769l1.255-1.333L57,23.774c-0.096,1.005-0.283,2-0.58,2.97
		c-0.383,1.146-0.92,2.228-1.223,3.391c-0.57,2.207,0,4.64,1.217,6.536c0.15,0.234,0.293,0.461,0.479,0.682
		c0.654,0.838,1.428,1.575,2.295,2.189c-13.406,14.207-4.152,28.8-4.152,28.8c-5.401,13.157,2.677,19.396,2.677,19.396
		c1.499,3.526,3.477,5.289,3.477,5.289c0.45,6.154,2.401,14.858,9.504,19.16c7.104,4.304,2.8,10.703,2.8,10.703
		c10.753-11.604,4.114-23.16,4.114-23.16c8.103,7.204,12.852,6.404,12.852,6.404c-9.769-2.425-17.315-14.179-17.315-14.179
		s-0.499,2.101,2.151,5.101c2.651,3.001,1.951,4.703,1.951,4.703s-0.053-1.25-4.855-3.301c-4.802-2.052-7.502-4.594-8.102-5.695
		c-0.599-1.102,4.052,0.752,4.052,0.752c3.201,3.141,5.802,4.503,5.802,4.503S68.15,92.957,67.636,83.847 M113.184,31.313
		c-0.467-0.341-0.738-0.89-0.723-1.469c0-0.946,0.673-1.713,1.504-1.713c0.832,0,1.502,0.767,1.502,1.713s-0.673,1.713-1.502,1.713
		c-0.121-0.001-0.243-0.019-0.361-0.053l-0.41-0.226L113.184,31.313z M116.722,22.012l0.003,0.009
		c-0.034,0.033-0.072,0.068-0.115,0.111L116.722,22.012z M115.884,35.362c-2.247,2.833-2.839-2.321-2.396-3.577
		c0.154,0.049,0.316,0.074,0.478,0.074c0.991,0,1.797-0.899,1.797-2.007c0.008-0.598-0.242-1.172-0.686-1.575
		c0.297-0.556,0.648-1.081,1.056-1.563C116.646,29.947,118.249,32.162,115.884,35.362z M114.352,25.621
		c1.04-0.75,1.66-1.288,1.66-1.288c-0.043,0.672-0.021,1.346,0.066,2.014c-0.491,0.528-0.908,1.122-1.239,1.763
		c-0.175-0.11-0.367-0.188-0.571-0.227L114.352,25.621z M111.358,27.537c1.038-0.588,1.953-1.175,2.69-1.702l-0.074,2.01
		c-0.994,0-1.799,0.899-1.799,2.007c-0.012,0.702,0.335,1.361,0.92,1.749c-0.337,1.005-0.562,1.605-2.377,2.287
		C108.707,34.648,108.608,29.085,111.358,27.537z M102.73,26.82h-0.943c-0.79-0.294-1.369-1.258-1.369-2.381
		c0-1.369,0.865-2.485,1.926-2.485c1.06,0,1.921,1.116,1.921,2.485c0,1.196-0.655,2.198-1.527,2.434
		C102.733,26.837,102.73,26.82,102.73,26.82z M108.132,33.206l-0.843-0.294l0.748-1.39L108.132,33.206z M104.367,19.094V19.1
		c1.734,3.104,4.896,6.792,2.002,12.257c-2.416,3.35-3.393-2.645-3.598-4.185c1.017-0.253,1.788-1.378,1.788-2.728
		c0.024-0.885-0.344-1.735-1.006-2.325C103.566,21.321,104.082,19.846,104.367,19.094z M103.407,16.569v0.006
		c0.12,0.77,0.384,1.511,0.774,2.186c-0.234,0.588-0.824,2.181-0.91,3.162c-0.28-0.167-0.603-0.256-0.928-0.258h-0.101
		c0-0.535,0.043-2.377-0.133-3.2C102.648,17.913,103.088,17.271,103.407,16.569z M101.857,18.726v0.006
		c0.096,0.991,0.125,1.986,0.089,2.98c-1.033,0.235-1.822,1.369-1.822,2.732c0,1.202,0.611,2.222,1.47,2.613
		c-2.681,6.73-4.185,2.801-4.185,2.801C94.896,23.255,99.161,21.438,101.857,18.726z M86.747,38.028
		c-2.84,0-5.143-2.302-5.143-5.143c0.392,0.968,1.03,1.76,1.808,2.345l1.627-0.297l-1.646-1.102l1.934,0.417L84.231,32.6
		l1.629,1.125l-0.385-1.942l1.076,1.664l0.387-1.94l0.356,1.946l1.103-1.644l-0.417,1.934l1.648-1.096l-1.125,1.628l1.939-0.385
		l-1.659,1.073l1.305,0.263c0.794-0.6,1.423-1.402,1.805-2.34C91.891,35.726,89.588,38.028,86.747,38.028z M85.812,23.21
		l-1.363-1.669v-2.392l1.363-1.672h1.896l1.364,1.672v2.392l-1.364,1.669H85.812z M95.827,30.71h-1.959l1.283-2.398L95.827,30.71z
		 M93.702,21.982c0.65,2.351-0.586,8.285-3.751,7.403c-3.459-1.583-2.628-5.565-2.558-5.877h0.456l1.516-1.857v-2.606l-1.516-1.861
		H87.8l0.646-3.723C90.199,16.014,92.343,17.756,93.702,21.982z M86.747,10.292c0.373,0.988,0.853,1.933,1.434,2.815l-0.708,4.076
		H86.15c-0.088-0.625-0.463-3.338-0.679-4.366C85.98,12.021,86.408,11.174,86.747,10.292z M79.82,21.982
		c1.408-4.381,3.659-6.094,5.449-8.816c0.208,1.135,0.523,3.383,0.611,4.009h-0.209l-1.516,1.86v2.604l1.516,1.857h0.456
		c0.071,0.314,0.902,4.296-2.556,5.877C80.429,30.267,79.168,24.333,79.82,21.982z M78.422,28.21l1.231,1.642l-1.534,0.415
		L78.422,28.21z M70.843,26.82c0,0,0,0.018,0,0.053c-0.882-0.235-1.531-1.238-1.531-2.434c0-1.369,0.864-2.485,1.925-2.485
		c1.061,0,1.921,1.116,1.921,2.485c0,1.123-0.588,2.058-1.37,2.381H70.843z M71.833,18.844c2.701,2.645,6.807,4.505,4.334,11.008
		c0,0-1.501,3.93-4.181-2.8c0.85-0.391,1.469-1.41,1.469-2.613c0-1.36-0.785-2.495-1.816-2.73
		C71.642,21.304,71.695,19.763,71.833,18.844z M70.167,16.569c0.343,0.753,0.821,1.436,1.411,2.016
		c-0.141,1.021-0.22,2.051-0.241,3.083c-0.035,0-0.07,0-0.105,0c-0.327,0.002-0.648,0.091-0.929,0.259
		c-0.088-0.981-0.682-2.569-0.915-3.16C69.78,18.089,70.045,17.344,70.167,16.569z M69.203,19.097
		c0.293,0.749,0.805,2.224,0.813,3.017c-0.66,0.59-1.027,1.439-1.004,2.325c0,1.349,0.77,2.475,1.786,2.728
		c-0.206,1.54-1.175,7.535-3.597,4.185C64.31,25.885,67.469,22.197,69.203,19.097z M65.703,31.536l0.826,0.817l-0.826,0.294V31.536z
		 M60.383,31.287l-0.411,0.227c-0.116,0.034-0.237,0.051-0.358,0.052c-0.829,0-1.505-0.77-1.505-1.713
		c0-0.943,0.676-1.713,1.505-1.713c0.829,0,1.504,0.767,1.504,1.713c0.014,0.58-0.257,1.129-0.726,1.47L60.383,31.287z
		 M62.208,27.537c2.751,1.548,2.646,7.104,0.65,6.351c-1.819-0.682-2.04-1.282-2.378-2.287c0.585-0.388,0.931-1.047,0.92-1.749
		c0-1.108-0.809-2.007-1.799-2.007h-0.018l-0.173-2.086C60.313,26.398,61.247,26.992,62.208,27.537z M57.568,24.333
		c0,0,0.574,0.497,1.54,1.202l0.197,2.351c-0.201,0.039-0.391,0.112-0.564,0.221c-0.322-0.637-0.738-1.221-1.234-1.734
		C57.593,25.697,57.614,25.014,57.568,24.333z M57.692,35.362c-2.352-3.194-0.765-5.41-0.247-8.634
		c0.412,0.473,0.767,0.993,1.058,1.548c-0.444,0.403-0.694,0.977-0.688,1.575c0,1.108,0.808,2.007,1.799,2.007
		c0.162,0,0.322-0.025,0.476-0.074C60.534,33.041,59.939,38.195,57.692,35.362z M61.95,85.294c-0.085-0.96-0.051-1.928,0.102-2.88
		c0.311-1.848,0.95-3.626,1.887-5.248c0.901-1.593,2.009-3.06,3.294-4.361c0.062-0.054,0.155-0.046,0.208,0.015
		c0.043,0.05,0.048,0.124,0.01,0.179c-0.54,0.703-1.031,1.443-1.47,2.214c-0.449,0.757-0.852,1.543-1.205,2.35
		c-0.707,1.582-1.139,3.27-1.278,4.996c-0.06,0.835-0.006,1.674,0.159,2.495c0.17,0.804,0.413,1.591,0.723,2.352
		c0.587,1.534,1.47,2.965,2.416,4.558c0.039,0.066,0.018,0.15-0.047,0.191c-0.042,0.021-0.09,0.021-0.132,0
		c-0.858-0.41-1.636-0.97-2.298-1.651c-0.686-0.689-1.245-1.495-1.649-2.381C62.26,87.231,62.016,86.273,61.95,85.294z
		 M78.024,107.631c0.002,0.03-0.021,0.059-0.052,0.062c0,0-0.001,0-0.003,0c-0.021,0.003-0.042-0.008-0.053-0.025
		c-0.786-1.206-1.67-2.344-2.645-3.404c-0.229-0.253-0.485-0.473-0.726-0.701c-0.25-0.21-0.509-0.406-0.779-0.588l-0.197-0.138
		c-0.071-0.039-0.139-0.074-0.206-0.115c-0.132-0.084-0.271-0.159-0.414-0.224c-0.142-0.058-0.294-0.12-0.424-0.188l-0.543-0.224
		c-0.716-0.309-1.403-0.678-2.057-1.103c-0.327-0.199-0.629-0.429-0.94-0.644c-0.312-0.214-0.605-0.455-0.881-0.702
		c-1.167-0.946-2.214-2.031-3.118-3.232c-0.017-0.017-0.017-0.044,0-0.062c0.015-0.008,0.032-0.008,0.047,0
		c1.316,0.723,2.574,1.469,3.838,2.192c0.628,0.359,1.258,0.704,1.889,1.029c0.632,0.322,1.263,0.625,1.898,0.881l0.482,0.188
		c0.196,0.083,0.39,0.168,0.587,0.256c0.19,0.093,0.374,0.197,0.552,0.312l0.271,0.156l0.247,0.19
		c0.645,0.493,1.204,1.089,1.655,1.764c0.438,0.646,0.795,1.345,1.063,2.078C77.791,106.109,77.961,106.865,78.024,107.631z"/>
	<linearGradient id="SVGID_18_" gradientUnits="userSpaceOnUse" x1="79.6641" y1="16.2319" x2="142.3044" y2="143.9455">
		<stop  offset="0" style="stop-color:#2B3990"/>
		<stop  offset="0.1882" style="stop-color:#BE1E2D"/>
		<stop  offset="0.3011" style="stop-color:#BE1E2D"/>
		<stop  offset="0.414" style="stop-color:#2E3192"/>
		<stop  offset="0.5914" style="stop-color:#21409A"/>
		<stop  offset="0.7258" style="stop-color:#BE1E2D"/>
		<stop  offset="1" style="stop-color:#BE1E2D"/>
	</linearGradient>
	<path fill="url(#SVGID_18_)" d="M88.954,35.888c0.22-0.096,0.432-0.206,0.635-0.328l-0.816,0.149L88.954,35.888z"/>
	<linearGradient id="SVGID_19_" gradientUnits="userSpaceOnUse" x1="75.7915" y1="18.1172" x2="138.4752" y2="145.9192">
		<stop  offset="0" style="stop-color:#2B3990"/>
		<stop  offset="0.1882" style="stop-color:#BE1E2D"/>
		<stop  offset="0.3011" style="stop-color:#BE1E2D"/>
		<stop  offset="0.414" style="stop-color:#2E3192"/>
		<stop  offset="0.5914" style="stop-color:#21409A"/>
		<stop  offset="0.7258" style="stop-color:#BE1E2D"/>
		<stop  offset="1" style="stop-color:#BE1E2D"/>
	</linearGradient>
	<path fill="url(#SVGID_19_)" d="M84.638,35.932l0.395-0.255l-1.396-0.28C83.952,35.611,84.289,35.789,84.638,35.932z"/>
</g>
<g>
	<path fill="#BE1E2D" d="M8.091,146.637c0.088,0.21,0.174,0.421,0.26,0.633c0.085-0.219,0.173-0.434,0.264-0.646
		c0.091-0.212,0.188-0.415,0.292-0.609l3.896-7.293c0.049-0.091,0.099-0.164,0.15-0.219s0.109-0.094,0.173-0.118
		c0.064-0.024,0.135-0.039,0.214-0.045c0.079-0.007,0.173-0.01,0.282-0.01h1.848v13.165h-2.158v-8.504
		c0-0.157,0.004-0.33,0.014-0.519c0.009-0.188,0.022-0.379,0.041-0.573l-3.979,7.465c-0.091,0.171-0.209,0.303-0.355,0.396
		s-0.315,0.142-0.51,0.142H8.187c-0.194,0-0.364-0.048-0.51-0.142s-0.264-0.226-0.355-0.396l-4.033-7.492
		c0.024,0.2,0.041,0.396,0.05,0.587c0.009,0.191,0.014,0.369,0.014,0.532v8.504H1.195V138.33h1.848c0.109,0,0.204,0.003,0.282,0.01
		c0.079,0.006,0.15,0.021,0.214,0.045c0.063,0.024,0.123,0.063,0.177,0.118s0.106,0.128,0.155,0.219l3.933,7.311
		C7.908,146.226,8.003,146.428,8.091,146.637z"/>
	<path fill="#BE1E2D" d="M20.888,151.495H18.43V138.33h2.458V151.495z"/>
	<path fill="#BE1E2D" d="M30.902,140.724c-0.067,0.134-0.145,0.228-0.232,0.282s-0.193,0.082-0.314,0.082
		c-0.122,0-0.258-0.047-0.41-0.141c-0.152-0.095-0.331-0.199-0.537-0.314c-0.207-0.115-0.448-0.22-0.724-0.314
		c-0.276-0.094-0.602-0.141-0.979-0.141c-0.34,0-0.636,0.041-0.888,0.123s-0.464,0.195-0.637,0.341s-0.302,0.32-0.387,0.523
		c-0.085,0.204-0.127,0.427-0.127,0.67c0,0.309,0.087,0.567,0.26,0.773s0.402,0.382,0.688,0.528c0.285,0.146,0.61,0.276,0.974,0.392
		c0.364,0.115,0.736,0.238,1.115,0.368c0.379,0.131,0.751,0.282,1.115,0.455s0.688,0.392,0.974,0.656
		c0.285,0.264,0.514,0.587,0.688,0.969c0.173,0.383,0.259,0.847,0.259,1.394c0,0.595-0.102,1.151-0.305,1.671
		c-0.203,0.519-0.5,0.971-0.892,1.356c-0.392,0.385-0.87,0.688-1.434,0.91s-1.21,0.332-1.939,0.332
		c-0.419,0-0.832-0.041-1.238-0.123s-0.796-0.198-1.17-0.351c-0.373-0.151-0.722-0.333-1.047-0.546
		c-0.325-0.212-0.615-0.449-0.87-0.71l0.71-1.175c0.066-0.085,0.147-0.156,0.241-0.214c0.094-0.058,0.199-0.086,0.314-0.086
		c0.152,0,0.315,0.062,0.492,0.187c0.176,0.124,0.384,0.263,0.624,0.414s0.522,0.29,0.847,0.414s0.715,0.187,1.17,0.187
		c0.698,0,1.238-0.165,1.621-0.496s0.574-0.806,0.574-1.425c0-0.346-0.086-0.628-0.26-0.847c-0.173-0.219-0.402-0.402-0.687-0.551
		c-0.286-0.148-0.61-0.274-0.975-0.378c-0.364-0.104-0.734-0.215-1.11-0.337c-0.376-0.121-0.747-0.267-1.111-0.437
		s-0.689-0.392-0.974-0.665c-0.286-0.273-0.515-0.614-0.688-1.024c-0.173-0.409-0.259-0.915-0.259-1.516
		c0-0.479,0.095-0.947,0.287-1.402s0.47-0.858,0.837-1.211c0.367-0.352,0.818-0.634,1.352-0.847c0.534-0.212,1.144-0.318,1.83-0.318
		c0.777,0,1.493,0.121,2.148,0.364c0.656,0.243,1.214,0.583,1.675,1.02L30.902,140.724z"/>
	<path fill="#BE1E2D" d="M40.671,140.724c-0.067,0.134-0.145,0.228-0.232,0.282s-0.193,0.082-0.314,0.082
		c-0.122,0-0.258-0.047-0.41-0.141c-0.152-0.095-0.331-0.199-0.537-0.314c-0.207-0.115-0.448-0.22-0.724-0.314
		c-0.276-0.094-0.602-0.141-0.979-0.141c-0.34,0-0.636,0.041-0.888,0.123s-0.464,0.195-0.637,0.341s-0.302,0.32-0.387,0.523
		c-0.085,0.204-0.127,0.427-0.127,0.67c0,0.309,0.087,0.567,0.26,0.773s0.402,0.382,0.688,0.528c0.285,0.146,0.61,0.276,0.974,0.392
		c0.364,0.115,0.736,0.238,1.115,0.368c0.379,0.131,0.751,0.282,1.115,0.455s0.688,0.392,0.974,0.656
		c0.285,0.264,0.514,0.587,0.688,0.969c0.173,0.383,0.259,0.847,0.259,1.394c0,0.595-0.102,1.151-0.305,1.671
		c-0.203,0.519-0.5,0.971-0.892,1.356c-0.392,0.385-0.87,0.688-1.434,0.91s-1.21,0.332-1.939,0.332
		c-0.419,0-0.832-0.041-1.238-0.123s-0.796-0.198-1.17-0.351c-0.373-0.151-0.722-0.333-1.047-0.546
		c-0.325-0.212-0.615-0.449-0.87-0.71l0.71-1.175c0.066-0.085,0.147-0.156,0.241-0.214c0.094-0.058,0.199-0.086,0.314-0.086
		c0.152,0,0.315,0.062,0.492,0.187c0.176,0.124,0.384,0.263,0.624,0.414s0.522,0.29,0.847,0.414s0.715,0.187,1.17,0.187
		c0.698,0,1.238-0.165,1.621-0.496s0.574-0.806,0.574-1.425c0-0.346-0.086-0.628-0.26-0.847c-0.173-0.219-0.402-0.402-0.687-0.551
		c-0.286-0.148-0.61-0.274-0.975-0.378c-0.364-0.104-0.734-0.215-1.11-0.337c-0.376-0.121-0.747-0.267-1.111-0.437
		s-0.689-0.392-0.974-0.665c-0.286-0.273-0.515-0.614-0.688-1.024c-0.173-0.409-0.259-0.915-0.259-1.516
		c0-0.479,0.095-0.947,0.287-1.402s0.47-0.858,0.837-1.211c0.367-0.352,0.818-0.634,1.352-0.847c0.534-0.212,1.144-0.318,1.83-0.318
		c0.777,0,1.493,0.121,2.148,0.364c0.656,0.243,1.214,0.583,1.675,1.02L40.671,140.724z"/>
	<path fill="#BE1E2D" d="M48.455,138.343c0.073,0.01,0.138,0.027,0.196,0.055c0.058,0.027,0.114,0.067,0.168,0.118
		c0.055,0.052,0.115,0.12,0.182,0.205l6.91,8.804c-0.024-0.212-0.041-0.42-0.05-0.623c-0.009-0.204-0.014-0.394-0.014-0.569v-8.003
		h2.158v13.165H56.74c-0.194,0-0.355-0.03-0.482-0.091s-0.252-0.17-0.374-0.328l-6.883-8.768c0.019,0.194,0.032,0.388,0.041,0.578
		c0.009,0.191,0.014,0.366,0.014,0.523v8.085h-2.158V138.33h1.284C48.291,138.33,48.382,138.334,48.455,138.343z"/>
	<path fill="#BE1E2D" d="M68.967,138.33v1.948h-5.836v3.651h4.598v1.885h-4.598v3.724h5.836v1.957h-8.303V138.33H68.967z"/>
	<path fill="#BE1E2D" d="M73.619,146.861v4.634H71.17V138.33h4.288c0.88,0,1.642,0.104,2.285,0.31
		c0.644,0.207,1.174,0.495,1.593,0.865s0.729,0.813,0.929,1.329s0.3,1.08,0.3,1.693c0,0.638-0.106,1.222-0.318,1.753
		c-0.213,0.531-0.531,0.987-0.956,1.37c-0.425,0.382-0.956,0.68-1.593,0.892c-0.637,0.213-1.384,0.319-2.24,0.319H73.619z
		 M73.619,144.949h1.839c0.449,0,0.841-0.056,1.174-0.169c0.334-0.112,0.61-0.272,0.829-0.482c0.219-0.209,0.382-0.464,0.492-0.765
		c0.109-0.3,0.164-0.636,0.164-1.006c0-0.352-0.055-0.671-0.164-0.956s-0.273-0.528-0.492-0.729c-0.218-0.2-0.495-0.354-0.829-0.459
		c-0.333-0.106-0.725-0.16-1.174-0.16h-1.839V144.949z"/>
	<path fill="#BE1E2D" d="M92.629,151.495h-1.894c-0.212,0-0.387-0.053-0.523-0.159s-0.235-0.238-0.296-0.396l-0.983-2.686h-5.454
		l-0.983,2.686c-0.048,0.14-0.144,0.268-0.287,0.383s-0.317,0.173-0.523,0.173h-1.903l5.171-13.165h2.503L92.629,151.495z
		 M84.107,146.524h4.197l-1.602-4.38c-0.073-0.193-0.154-0.423-0.242-0.687c-0.088-0.265-0.174-0.551-0.259-0.86
		c-0.085,0.31-0.168,0.598-0.25,0.864c-0.082,0.268-0.162,0.501-0.241,0.701L84.107,146.524z"/>
	<path fill="#BE1E2D" d="M96.435,149.473h5.271v2.021h-7.721V138.33h2.449V149.473z"/>
</g>
<g>
	<path fill="#2B3990" d="M24.761,156.073c0.073,0.01,0.138,0.027,0.196,0.055c0.058,0.027,0.114,0.067,0.168,0.118
		c0.055,0.052,0.115,0.12,0.182,0.205l6.91,8.804c-0.024-0.212-0.041-0.42-0.05-0.623c-0.009-0.204-0.014-0.394-0.014-0.569v-8.003
		h2.158v13.165h-1.266c-0.194,0-0.355-0.03-0.482-0.091s-0.252-0.17-0.374-0.328l-6.883-8.768c0.019,0.194,0.032,0.388,0.041,0.578
		c0.009,0.191,0.014,0.366,0.014,0.523v8.085h-2.158v-13.165h1.284C24.597,156.059,24.688,156.064,24.761,156.073z"/>
	<path fill="#2B3990" d="M49.598,162.642c0,0.965-0.161,1.858-0.482,2.681c-0.322,0.822-0.774,1.534-1.357,2.135
		c-0.583,0.602-1.284,1.07-2.103,1.407s-1.727,0.505-2.722,0.505s-1.904-0.168-2.727-0.505c-0.823-0.337-1.527-0.806-2.112-1.407
		c-0.586-0.601-1.04-1.313-1.361-2.135s-0.482-1.716-0.482-2.681c0-0.966,0.161-1.859,0.482-2.682s0.775-1.534,1.361-2.135
		c0.585-0.601,1.29-1.07,2.112-1.407c0.822-0.336,1.731-0.505,2.727-0.505s1.903,0.17,2.722,0.51s1.521,0.809,2.103,1.407
		c0.583,0.598,1.035,1.308,1.357,2.13C49.437,160.783,49.598,161.676,49.598,162.642z M47.085,162.642
		c0-0.723-0.096-1.37-0.287-1.944c-0.191-0.573-0.466-1.061-0.824-1.461c-0.358-0.4-0.794-0.707-1.307-0.92
		c-0.513-0.212-1.091-0.318-1.734-0.318s-1.223,0.106-1.739,0.318c-0.516,0.213-0.955,0.52-1.315,0.92
		c-0.361,0.4-0.639,0.888-0.833,1.461c-0.194,0.574-0.291,1.222-0.291,1.944c0,0.722,0.097,1.37,0.291,1.943s0.472,1.06,0.833,1.457
		c0.361,0.397,0.799,0.702,1.315,0.915c0.516,0.212,1.095,0.318,1.739,0.318s1.222-0.106,1.734-0.318
		c0.513-0.213,0.948-0.518,1.307-0.915c0.358-0.397,0.633-0.884,0.824-1.457C46.989,164.012,47.085,163.364,47.085,162.642z"/>
	<path fill="#2B3990" d="M54.059,164.081v5.144h-2.449v-13.165h4.015c0.898,0,1.667,0.093,2.308,0.278
		c0.641,0.185,1.166,0.444,1.575,0.778s0.71,0.732,0.901,1.197c0.191,0.464,0.287,0.976,0.287,1.534
		c0,0.442-0.065,0.861-0.195,1.256c-0.131,0.395-0.319,0.753-0.565,1.074c-0.246,0.322-0.549,0.604-0.91,0.847
		c-0.361,0.243-0.772,0.438-1.234,0.583c0.31,0.176,0.577,0.428,0.801,0.756l3.296,4.861h-2.203c-0.213,0-0.393-0.042-0.542-0.128
		c-0.148-0.084-0.274-0.206-0.377-0.363l-2.768-4.216c-0.103-0.157-0.217-0.27-0.341-0.337c-0.125-0.066-0.308-0.1-0.551-0.1H54.059
		z M54.059,162.323h1.529c0.461,0,0.863-0.058,1.207-0.173c0.343-0.115,0.625-0.274,0.847-0.478
		c0.221-0.203,0.387-0.444,0.496-0.724s0.164-0.586,0.164-0.92c0-0.668-0.22-1.181-0.66-1.539c-0.44-0.357-1.112-0.537-2.017-0.537
		h-1.566V162.323z"/>
	<path fill="#2B3990" d="M72.222,156.059v2.013h-3.96v11.152h-2.449v-11.152h-3.979v-2.013H72.222z"/>
	<path fill="#2B3990" d="M84.886,169.224h-2.467v-5.754h-6.173v5.754h-2.467v-13.165h2.467v5.663h6.173v-5.663h2.467V169.224z"/>
	<path fill="#2B3990" d="M102.63,169.224h-1.894c-0.213,0-0.387-0.053-0.523-0.159s-0.235-0.238-0.296-0.396l-0.983-2.686H93.48
		l-0.983,2.686c-0.049,0.14-0.145,0.268-0.287,0.383s-0.317,0.173-0.523,0.173h-1.902l5.171-13.165h2.504L102.63,169.224z
		 M94.108,164.253h4.197l-1.603-4.38c-0.073-0.193-0.153-0.423-0.241-0.687c-0.088-0.265-0.175-0.551-0.26-0.86
		c-0.085,0.31-0.168,0.598-0.25,0.864c-0.082,0.268-0.162,0.501-0.241,0.701L94.108,164.253z"/>
	<path fill="#2B3990" d="M110.883,164.367c0.088,0.21,0.174,0.421,0.259,0.633c0.085-0.219,0.173-0.434,0.265-0.646
		c0.091-0.212,0.188-0.415,0.291-0.609l3.896-7.293c0.049-0.091,0.099-0.164,0.15-0.219s0.109-0.094,0.173-0.118
		s0.135-0.039,0.214-0.045c0.079-0.007,0.173-0.01,0.282-0.01h1.849v13.165h-2.158v-8.504c0-0.157,0.005-0.33,0.014-0.519
		c0.01-0.188,0.023-0.379,0.041-0.573l-3.979,7.465c-0.091,0.171-0.209,0.303-0.354,0.396c-0.146,0.094-0.316,0.142-0.511,0.142
		h-0.336c-0.194,0-0.364-0.048-0.51-0.142s-0.265-0.226-0.355-0.396l-4.033-7.492c0.024,0.2,0.041,0.396,0.05,0.587
		c0.01,0.191,0.014,0.369,0.014,0.532v8.504h-2.157v-13.165h1.848c0.109,0,0.204,0.003,0.282,0.01
		c0.079,0.006,0.15,0.021,0.215,0.045c0.063,0.024,0.122,0.063,0.177,0.118s0.106,0.128,0.155,0.219l3.933,7.311
		C110.699,163.956,110.794,164.158,110.883,164.367z"/>
	<path fill="#2B3990" d="M129.224,156.059v1.948h-5.836v3.651h4.598v1.885h-4.598v3.724h5.836v1.957h-8.304v-13.165H129.224z"/>
	<path fill="#2B3990" d="M133.875,164.081v5.144h-2.449v-13.165h4.015c0.898,0,1.668,0.093,2.309,0.278
		c0.64,0.185,1.165,0.444,1.575,0.778c0.409,0.334,0.71,0.732,0.901,1.197c0.19,0.464,0.286,0.976,0.286,1.534
		c0,0.442-0.065,0.861-0.195,1.256c-0.131,0.395-0.319,0.753-0.564,1.074c-0.246,0.322-0.55,0.604-0.911,0.847
		c-0.36,0.243-0.772,0.438-1.233,0.583c0.31,0.176,0.577,0.428,0.802,0.756l3.295,4.861h-2.203c-0.212,0-0.393-0.042-0.541-0.128
		c-0.149-0.084-0.275-0.206-0.378-0.363l-2.768-4.216c-0.104-0.157-0.218-0.27-0.342-0.337c-0.124-0.066-0.308-0.1-0.551-0.1
		H133.875z M133.875,162.323h1.529c0.461,0,0.863-0.058,1.206-0.173s0.625-0.274,0.847-0.478s0.388-0.444,0.496-0.724
		c0.109-0.279,0.164-0.586,0.164-0.92c0-0.668-0.22-1.181-0.66-1.539c-0.439-0.357-1.112-0.537-2.017-0.537h-1.565V162.323z"/>
	<path fill="#2B3990" d="M146.029,169.224h-2.458v-13.165h2.458V169.224z"/>
	<path fill="#2B3990" d="M158.038,166.12c0.134,0,0.249,0.052,0.346,0.154l0.965,1.048c-0.534,0.661-1.19,1.168-1.971,1.52
		c-0.78,0.353-1.716,0.528-2.809,0.528c-0.978,0-1.855-0.167-2.636-0.501c-0.78-0.333-1.446-0.798-1.998-1.393
		c-0.553-0.595-0.976-1.305-1.271-2.131c-0.294-0.825-0.441-1.727-0.441-2.703c0-0.989,0.164-1.896,0.491-2.718
		c0.328-0.822,0.789-1.531,1.385-2.126c0.595-0.595,1.306-1.058,2.135-1.389c0.828-0.331,1.743-0.496,2.745-0.496
		c0.977,0,1.831,0.156,2.563,0.469s1.357,0.728,1.88,1.243l-0.819,1.138c-0.049,0.073-0.11,0.137-0.187,0.191
		s-0.181,0.082-0.314,0.082c-0.14,0-0.282-0.055-0.428-0.164s-0.331-0.228-0.556-0.355c-0.225-0.127-0.508-0.245-0.851-0.354
		s-0.778-0.164-1.307-0.164c-0.619,0-1.188,0.107-1.707,0.323c-0.52,0.216-0.965,0.523-1.339,0.924
		c-0.373,0.4-0.664,0.888-0.874,1.462c-0.209,0.573-0.313,1.218-0.313,1.935c0,0.74,0.104,1.398,0.313,1.976
		c0.21,0.576,0.493,1.062,0.852,1.456s0.78,0.697,1.266,0.906s1.008,0.314,1.565,0.314c0.334,0,0.636-0.019,0.906-0.055
		c0.271-0.037,0.52-0.095,0.747-0.174c0.228-0.078,0.442-0.18,0.646-0.305c0.203-0.124,0.404-0.277,0.604-0.46
		c0.062-0.055,0.125-0.099,0.191-0.132C157.887,166.136,157.959,166.12,158.038,166.12z"/>
	<path fill="#2B3990" d="M172.768,169.224h-1.894c-0.212,0-0.387-0.053-0.523-0.159s-0.235-0.238-0.296-0.396l-0.983-2.686h-5.453
		l-0.983,2.686c-0.049,0.14-0.145,0.268-0.287,0.383s-0.316,0.173-0.523,0.173h-1.902l5.171-13.165h2.504L172.768,169.224z
		 M164.246,164.253h4.197l-1.603-4.38c-0.072-0.193-0.153-0.423-0.241-0.687c-0.088-0.265-0.175-0.551-0.259-0.86
		c-0.086,0.31-0.169,0.598-0.251,0.864c-0.082,0.268-0.162,0.501-0.241,0.701L164.246,164.253z"/>
</g>
</svg>
